UbuntuMono-Bold.ufo
<glyph name="exclam" format="2">
  <advance width="560"/>
  <unicode hex="0021"/>
  <outline>
    <contour>
      <point x="224" y="252" type="curve"/>
      <point x="338" y="252" type="line"/>
      <point x="351" y="347"/>
      <point x="360" y="401"/>
      <point x="360" y="510" type="curve" smooth="yes"/>
      <point x="360" y="693" type="line"/>
      <point x="200" y="693" type="line"/>
      <point x="200" y="510" type="line" smooth="yes"/>
      <point x="200" y="402"/>
      <point x="211" y="347"/>
    </contour>
    <contour>
      <point x="280" y="-13" type="curve" smooth="yes"/>
      <point x="328" y="-13"/>
      <point x="373" y="21"/>
      <point x="373" y="80" type="curve" smooth="yes"/>
      <point x="373" y="137"/>
      <point x="328" y="171"/>
      <point x="280" y="171" type="curve" smooth="yes"/>
      <point x="232" y="171"/>
      <point x="187" y="137"/>
      <point x="187" y="80" type="curve" smooth="yes"/>
      <point x="187" y="21"/>
      <point x="232" y="-13"/>
    </contour>
  </outline>
</glyph>
<glyph name="quotedbl" format="2">
  <advance width="560"/>
  <unicode hex="0022"/>
  <outline>
    <contour>
      <point x="352" y="446" type="curve"/>
      <point x="432" y="446" type="line"/>
      <point x="447" y="523"/>
      <point x="465" y="632"/>
      <point x="465" y="706" type="curve" smooth="yes"/>
      <point x="465" y="760" type="line"/>
      <point x="318" y="760" type="line"/>
      <point x="318" y="707" type="line" smooth="yes"/>
      <point x="318" y="632"/>
      <point x="337" y="523"/>
    </contour>
    <contour>
      <point x="131" y="446" type="curve"/>
      <point x="211" y="446" type="line"/>
      <point x="226" y="523"/>
      <point x="244" y="632"/>
      <point x="244" y="706" type="curve" smooth="yes"/>
      <point x="244" y="760" type="line"/>
      <point x="97" y="760" type="line"/>
      <point x="97" y="707" type="line" smooth="yes"/>
      <point x="97" y="632"/>
      <point x="116" y="523"/>
    </contour>
  </outline>
</glyph>
<glyph name="numbersign" format="2">
  <advance width="560"/>
  <unicode hex="0023"/>
  <outline>
    <contour>
      <point x="55" y="0" type="line"/>
      <point x="169" y="0" type="line"/>
      <point x="200" y="171" type="line"/>
      <point x="290" y="171" type="line"/>
      <point x="258" y="0" type="line"/>
      <point x="372" y="0" type="line"/>
      <point x="404" y="171" type="line"/>
      <point x="541" y="171" type="line"/>
      <point x="541" y="286" type="line"/>
      <point x="426" y="286" type="line"/>
      <point x="449" y="409" type="line"/>
      <point x="541" y="409" type="line"/>
      <point x="541" y="523" type="line"/>
      <point x="472" y="523" type="line"/>
      <point x="504" y="693" type="line"/>
      <point x="390" y="693" type="line"/>
      <point x="357" y="523" type="line"/>
      <point x="268" y="523" type="line"/>
      <point x="301" y="693" type="line"/>
      <point x="187" y="693" type="line"/>
      <point x="155" y="523" type="line"/>
      <point x="20" y="523" type="line"/>
      <point x="20" y="409" type="line"/>
      <point x="132" y="409" type="line"/>
      <point x="109" y="286" type="line"/>
      <point x="20" y="286" type="line"/>
      <point x="20" y="171" type="line"/>
      <point x="87" y="171" type="line"/>
    </contour>
    <contour>
      <point x="223" y="286" type="line"/>
      <point x="246" y="409" type="line"/>
      <point x="335" y="409" type="line"/>
      <point x="312" y="286" type="line"/>
    </contour>
  </outline>
</glyph>
<glyph name="dollar" format="2">
  <advance width="560"/>
  <unicode hex="0024"/>
  <outline>
    <contour>
      <point x="216" y="-109" type="line"/>
      <point x="344" y="-109" type="line"/>
      <point x="344" y="11" type="line"/>
      <point x="480" y="32"/>
      <point x="523" y="116"/>
      <point x="523" y="196" type="curve" smooth="yes"/>
      <point x="523" y="314"/>
      <point x="438" y="363"/>
      <point x="321" y="407" type="curve" smooth="yes"/>
      <point x="245" y="435"/>
      <point x="205" y="445"/>
      <point x="205" y="493" type="curve" smooth="yes"/>
      <point x="205" y="528"/>
      <point x="228" y="557"/>
      <point x="300" y="557" type="curve" smooth="yes"/>
      <point x="363" y="557"/>
      <point x="424" y="540"/>
      <point x="468" y="522" type="curve"/>
      <point x="500" y="637" type="line"/>
      <point x="470" y="650"/>
      <point x="414" y="668"/>
      <point x="346" y="673" type="curve"/>
      <point x="346" y="776" type="line"/>
      <point x="218" y="776" type="line"/>
      <point x="218" y="668" type="line"/>
      <point x="102" y="641"/>
      <point x="60" y="566"/>
      <point x="60" y="482" type="curve" smooth="yes"/>
      <point x="60" y="366"/>
      <point x="148" y="328"/>
      <point x="235" y="297" type="curve" smooth="yes"/>
      <point x="326" y="265"/>
      <point x="379" y="248"/>
      <point x="379" y="193" type="curve" smooth="yes"/>
      <point x="379" y="147"/>
      <point x="349" y="125"/>
      <point x="267" y="125" type="curve" smooth="yes"/>
      <point x="196" y="125"/>
      <point x="128" y="148"/>
      <point x="81" y="170" type="curve"/>
      <point x="38" y="60" type="line"/>
      <point x="66" y="45"/>
      <point x="122" y="19"/>
      <point x="216" y="10" type="curve"/>
    </contour>
  </outline>
</glyph>
<glyph name="percent" format="2">
  <advance width="560"/>
  <unicode hex="0025"/>
  <outline>
    <contour>
      <point x="2" y="0" type="line"/>
      <point x="102" y="0" type="line"/>
      <point x="558" y="693" type="line"/>
      <point x="458" y="693" type="line"/>
    </contour>
    <contour>
      <point x="422" y="-15" type="curve" smooth="yes"/>
      <point x="501" y="-15"/>
      <point x="549" y="46"/>
      <point x="549" y="159" type="curve" smooth="yes"/>
      <point x="549" y="272"/>
      <point x="501" y="333"/>
      <point x="422" y="333" type="curve" smooth="yes"/>
      <point x="345" y="333"/>
      <point x="297" y="272"/>
      <point x="297" y="159" type="curve" smooth="yes"/>
      <point x="297" y="46"/>
      <point x="345" y="-15"/>
    </contour>
    <contour>
      <point x="421" y="74" type="curve" smooth="yes"/>
      <point x="401" y="74"/>
      <point x="386" y="97"/>
      <point x="386" y="159" type="curve" smooth="yes"/>
      <point x="386" y="222"/>
      <point x="401" y="246"/>
      <point x="421" y="246" type="curve" smooth="yes"/>
      <point x="441" y="246"/>
      <point x="459" y="222"/>
      <point x="459" y="159" type="curve" smooth="yes"/>
      <point x="459" y="97"/>
      <point x="441" y="74"/>
    </contour>
    <contour>
      <point x="136" y="361" type="curve" smooth="yes"/>
      <point x="215" y="361"/>
      <point x="263" y="422"/>
      <point x="263" y="535" type="curve" smooth="yes"/>
      <point x="263" y="648"/>
      <point x="215" y="709"/>
      <point x="136" y="709" type="curve" smooth="yes"/>
      <point x="59" y="709"/>
      <point x="11" y="648"/>
      <point x="11" y="535" type="curve" smooth="yes"/>
      <point x="11" y="422"/>
      <point x="59" y="361"/>
    </contour>
    <contour>
      <point x="136" y="450" type="curve" smooth="yes"/>
      <point x="115" y="450"/>
      <point x="100" y="473"/>
      <point x="100" y="535" type="curve" smooth="yes"/>
      <point x="100" y="598"/>
      <point x="115" y="622"/>
      <point x="136" y="622" type="curve" smooth="yes"/>
      <point x="155" y="622"/>
      <point x="172" y="598"/>
      <point x="172" y="535" type="curve" smooth="yes"/>
      <point x="172" y="473"/>
      <point x="155" y="450"/>
    </contour>
  </outline>
</glyph>
<glyph name="ampersand" format="2">
  <advance width="560"/>
  <unicode hex="0026"/>
  <outline>
    <contour>
      <point x="224" y="-9" type="curve" smooth="yes"/>
      <point x="276" y="-9"/>
      <point x="332" y="15"/>
      <point x="382" y="59" type="curve"/>
      <point x="392" y="40"/>
      <point x="401" y="20"/>
      <point x="409" y="0" type="curve"/>
      <point x="540" y="0" type="line"/>
      <point x="525" y="53"/>
      <point x="495" y="105"/>
      <point x="459" y="155" type="curve"/>
      <point x="491" y="213"/>
      <point x="513" y="286"/>
      <point x="514" y="368" type="curve"/>
      <point x="400" y="383" type="line"/>
      <point x="399" y="329"/>
      <point x="393" y="286"/>
      <point x="383" y="248" type="curve"/>
      <point x="349" y="287"/>
      <point x="315" y="324"/>
      <point x="286" y="360" type="curve"/>
      <point x="377" y="408"/>
      <point x="420" y="479"/>
      <point x="420" y="551" type="curve" smooth="yes"/>
      <point x="420" y="655"/>
      <point x="337" y="709"/>
      <point x="252" y="709" type="curve" smooth="yes"/>
      <point x="164" y="709"/>
      <point x="72" y="650"/>
      <point x="72" y="529" type="curve" smooth="yes"/>
      <point x="72" y="470"/>
      <point x="97" y="417"/>
      <point x="133" y="367" type="curve"/>
      <point x="60" y="323"/>
      <point x="24" y="254"/>
      <point x="24" y="183" type="curve" smooth="yes"/>
      <point x="24" y="81"/>
      <point x="91" y="-9"/>
    </contour>
    <contour>
      <point x="227" y="95" type="curve" smooth="yes"/>
      <point x="165" y="95"/>
      <point x="141" y="139"/>
      <point x="141" y="189" type="curve" smooth="yes"/>
      <point x="141" y="235"/>
      <point x="164" y="267"/>
      <point x="196" y="289" type="curve"/>
      <point x="239" y="241"/>
      <point x="286" y="192"/>
      <point x="327" y="140" type="curve"/>
      <point x="297" y="108"/>
      <point x="261" y="95"/>
    </contour>
    <contour>
      <point x="228" y="433" type="curve"/>
      <point x="205" y="469"/>
      <point x="190" y="503"/>
      <point x="190" y="535" type="curve" smooth="yes"/>
      <point x="190" y="584"/>
      <point x="215" y="609"/>
      <point x="252" y="609" type="curve" smooth="yes"/>
      <point x="281" y="609"/>
      <point x="302" y="589"/>
      <point x="302" y="550" type="curve" smooth="yes"/>
      <point x="302" y="510"/>
      <point x="277" y="460"/>
    </contour>
  </outline>
</glyph>
<glyph name="quotesingle" format="2">
  <advance width="560"/>
  <unicode hex="0027"/>
  <outline>
    <contour>
      <point x="242" y="426" type="curve"/>
      <point x="323" y="426" type="line"/>
      <point x="337" y="503"/>
      <point x="355" y="613"/>
      <point x="355" y="687" type="curve" smooth="yes"/>
      <point x="355" y="760" type="line"/>
      <point x="208" y="760" type="line"/>
      <point x="208" y="687" type="line" smooth="yes"/>
      <point x="208" y="613"/>
      <point x="227" y="503"/>
    </contour>
  </outline>
</glyph>
<glyph name="parenleft" format="2">
  <advance width="560"/>
  <unicode hex="0028"/>
  <outline>
    <contour>
      <point x="399" y="-190" type="curve"/>
      <point x="463" y="-105" type="line"/>
      <point x="320" y="-22"/>
      <point x="233" y="115"/>
      <point x="233" y="298" type="curve" smooth="yes"/>
      <point x="233" y="482"/>
      <point x="325" y="627"/>
      <point x="467" y="710" type="curve"/>
      <point x="403" y="795" type="line"/>
      <point x="200" y="683"/>
      <point x="105" y="504"/>
      <point x="105" y="298" type="curve" smooth="yes"/>
      <point x="105" y="94"/>
      <point x="196" y="-78"/>
    </contour>
  </outline>
</glyph>
<glyph name="parenright" format="2">
  <advance width="560"/>
  <unicode hex="0029"/>
  <outline>
    <contour>
      <point x="164" y="-190" type="line"/>
      <point x="366" y="-78"/>
      <point x="457" y="94"/>
      <point x="457" y="298" type="curve" smooth="yes"/>
      <point x="457" y="504"/>
      <point x="362" y="683"/>
      <point x="159" y="795" type="curve"/>
      <point x="95" y="710" type="line"/>
      <point x="237" y="627"/>
      <point x="329" y="482"/>
      <point x="329" y="298" type="curve" smooth="yes"/>
      <point x="329" y="115"/>
      <point x="242" y="-22"/>
      <point x="100" y="-105" type="curve"/>
    </contour>
  </outline>
</glyph>
<glyph name="asterisk" format="2">
  <advance width="560"/>
  <unicode hex="002A"/>
  <outline>
    <contour>
      <point x="205" y="256" type="line"/>
      <point x="226" y="284" type="line" smooth="yes"/>
      <point x="248" y="314"/>
      <point x="272" y="382"/>
      <point x="282" y="419" type="curve"/>
      <point x="293" y="381"/>
      <point x="318" y="312"/>
      <point x="339" y="283" type="curve" smooth="yes"/>
      <point x="359" y="256" type="line"/>
      <point x="465" y="332" type="line"/>
      <point x="444" y="360" type="line" smooth="yes"/>
      <point x="423" y="389"/>
      <point x="366" y="435"/>
      <point x="334" y="455" type="curve"/>
      <point x="372" y="454"/>
      <point x="445" y="457"/>
      <point x="479" y="467" type="curve" smooth="yes"/>
      <point x="513" y="477" type="line"/>
      <point x="473" y="601" type="line"/>
      <point x="440" y="590" type="line" smooth="yes"/>
      <point x="405" y="578"/>
      <point x="345" y="539"/>
      <point x="314" y="516" type="curve"/>
      <point x="327" y="552"/>
      <point x="347" y="622"/>
      <point x="347" y="659" type="curve" smooth="yes"/>
      <point x="347" y="693" type="line"/>
      <point x="217" y="693" type="line"/>
      <point x="217" y="659" type="line" smooth="yes"/>
      <point x="217" y="622"/>
      <point x="237" y="552"/>
      <point x="250" y="516" type="curve"/>
      <point x="220" y="540"/>
      <point x="161" y="584"/>
      <point x="127" y="594" type="curve" smooth="yes"/>
      <point x="93" y="604" type="line"/>
      <point x="52" y="482" type="line"/>
      <point x="85" y="470" type="line" smooth="yes"/>
      <point x="119" y="458"/>
      <point x="192" y="455"/>
      <point x="230" y="456" type="curve"/>
      <point x="199" y="435"/>
      <point x="143" y="389"/>
      <point x="121" y="360" type="curve" smooth="yes"/>
      <point x="100" y="332" type="line"/>
    </contour>
  </outline>
</glyph>
<glyph name="plus" format="2">
  <advance width="560"/>
  <unicode hex="002B"/>
  <outline>
    <contour>
      <point x="221" y="43" type="line"/>
      <point x="339" y="43" type="line"/>
      <point x="339" y="237" type="line"/>
      <point x="515" y="237" type="line"/>
      <point x="515" y="351" type="line"/>
      <point x="339" y="351" type="line"/>
      <point x="339" y="545" type="line"/>
      <point x="221" y="545" type="line"/>
      <point x="221" y="351" type="line"/>
      <point x="45" y="351" type="line"/>
      <point x="45" y="237" type="line"/>
      <point x="221" y="237" type="line"/>
    </contour>
  </outline>
</glyph>
<glyph name="comma" format="2">
  <advance width="560"/>
  <unicode hex="002C"/>
  <outline>
    <contour>
      <point x="159" y="-171" type="line"/>
      <point x="326" y="-150"/>
      <point x="389" y="-32"/>
      <point x="389" y="71" type="curve" smooth="yes"/>
      <point x="389" y="141"/>
      <point x="351" y="187"/>
      <point x="289" y="187" type="curve" smooth="yes"/>
      <point x="231" y="187"/>
      <point x="188" y="146"/>
      <point x="188" y="87" type="curve" smooth="yes"/>
      <point x="188" y="40"/>
      <point x="222" y="-6"/>
      <point x="278" y="-11" type="curve"/>
      <point x="254" y="-68"/>
      <point x="195" y="-71"/>
      <point x="141" y="-82" type="curve"/>
    </contour>
  </outline>
</glyph>
<glyph name="hyphen" format="2">
  <advance width="560"/>
  <unicode hex="002D"/>
  <outline>
    <contour>
      <point x="127" y="220" type="line"/>
      <point x="433" y="220" type="line"/>
      <point x="433" y="355" type="line"/>
      <point x="127" y="355" type="line"/>
    </contour>
  </outline>
</glyph>
<glyph name="period" format="2">
  <advance width="560"/>
  <unicode hex="002E"/>
  <outline>
    <contour>
      <point x="281" y="-12" type="curve" smooth="yes"/>
      <point x="333" y="-12"/>
      <point x="381" y="24"/>
      <point x="381" y="88" type="curve" smooth="yes"/>
      <point x="381" y="151"/>
      <point x="333" y="187"/>
      <point x="281" y="187" type="curve" smooth="yes"/>
      <point x="228" y="187"/>
      <point x="180" y="151"/>
      <point x="180" y="88" type="curve" smooth="yes"/>
      <point x="180" y="24"/>
      <point x="228" y="-12"/>
    </contour>
  </outline>
</glyph>
<glyph name="slash" format="2">
  <advance width="560"/>
  <unicode hex="002F"/>
  <outline>
    <contour>
      <point x="53" y="-185" type="line"/>
      <point x="196" y="-185" type="line"/>
      <point x="507" y="783" type="line"/>
      <point x="366" y="783" type="line"/>
    </contour>
  </outline>
</glyph>
<glyph name="zero" format="2">
  <advance width="560"/>
  <unicode hex="0030"/>
  <outline>
    <contour>
      <point x="280" y="-15" type="curve" smooth="yes"/>
      <point x="436" y="-15"/>
      <point x="521" y="105"/>
      <point x="521" y="348" type="curve" smooth="yes"/>
      <point x="521" y="590"/>
      <point x="436" y="709"/>
      <point x="280" y="709" type="curve" smooth="yes"/>
      <point x="128" y="709"/>
      <point x="39" y="589"/>
      <point x="39" y="348" type="curve" smooth="yes"/>
      <point x="39" y="105"/>
      <point x="124" y="-15"/>
    </contour>
    <contour>
      <point x="280" y="104" type="curve" smooth="yes"/>
      <point x="206" y="104"/>
      <point x="164" y="189"/>
      <point x="164" y="348" type="curve" smooth="yes"/>
      <point x="164" y="506"/>
      <point x="206" y="591"/>
      <point x="280" y="591" type="curve" smooth="yes"/>
      <point x="355" y="591"/>
      <point x="396" y="506"/>
      <point x="396" y="348" type="curve" smooth="yes"/>
      <point x="396" y="189"/>
      <point x="355" y="104"/>
    </contour>
    <contour>
      <point x="281" y="286" type="curve" smooth="yes"/>
      <point x="317" y="286"/>
      <point x="343" y="319"/>
      <point x="343" y="360" type="curve" smooth="yes"/>
      <point x="343" y="400"/>
      <point x="317" y="435"/>
      <point x="281" y="435" type="curve" smooth="yes"/>
      <point x="242" y="435"/>
      <point x="218" y="400"/>
      <point x="218" y="360" type="curve" smooth="yes"/>
      <point x="218" y="319"/>
      <point x="242" y="286"/>
    </contour>
  </outline>
</glyph>
<glyph name="one" format="2">
  <advance width="560"/>
  <unicode hex="0031"/>
  <outline>
    <contour>
      <point x="93" y="0" type="line"/>
      <point x="514" y="0" type="line"/>
      <point x="514" y="114" type="line"/>
      <point x="376" y="114" type="line"/>
      <point x="376" y="693" type="line"/>
      <point x="282" y="693" type="line"/>
      <point x="227" y="635"/>
      <point x="127" y="577"/>
      <point x="54" y="549" type="curve"/>
      <point x="99" y="435" type="line"/>
      <point x="136" y="448"/>
      <point x="197" y="472"/>
      <point x="239" y="502" type="curve"/>
      <point x="239" y="114" type="line"/>
      <point x="93" y="114" type="line"/>
    </contour>
  </outline>
</glyph>
<glyph name="two" format="2">
  <advance width="560"/>
  <unicode hex="0032"/>
  <outline>
    <contour>
      <point x="65" y="0" type="curve"/>
      <point x="517" y="0" type="line"/>
      <point x="517" y="114" type="line"/>
      <point x="220" y="114" type="line"/>
      <point x="220" y="159"/>
      <point x="291" y="225"/>
      <point x="329" y="261" type="curve" smooth="yes"/>
      <point x="407" y="334"/>
      <point x="486" y="416"/>
      <point x="486" y="511" type="curve" smooth="yes"/>
      <point x="486" y="643"/>
      <point x="383" y="709"/>
      <point x="269" y="709" type="curve" smooth="yes"/>
      <point x="192" y="709"/>
      <point x="108" y="679"/>
      <point x="48" y="617" type="curve"/>
      <point x="116" y="521" type="line"/>
      <point x="162" y="570"/>
      <point x="213" y="589"/>
      <point x="255" y="589" type="curve" smooth="yes"/>
      <point x="307" y="589"/>
      <point x="346" y="557"/>
      <point x="346" y="501" type="curve" smooth="yes"/>
      <point x="346" y="450"/>
      <point x="295" y="401"/>
      <point x="235" y="345" type="curve" smooth="yes"/>
      <point x="156" y="270"/>
      <point x="63" y="180"/>
      <point x="63" y="52" type="curve" smooth="yes"/>
      <point x="63" y="43"/>
      <point x="60" y="15"/>
    </contour>
  </outline>
</glyph>
<glyph name="three" format="2">
  <advance width="560"/>
  <unicode hex="0033"/>
  <outline>
    <contour>
      <point x="239" y="-15" type="curve" smooth="yes"/>
      <point x="424" y="-15"/>
      <point x="505" y="78"/>
      <point x="505" y="206" type="curve" smooth="yes"/>
      <point x="505" y="287"/>
      <point x="464" y="347"/>
      <point x="392" y="376" type="curve"/>
      <point x="444" y="403"/>
      <point x="478" y="459"/>
      <point x="478" y="514" type="curve" smooth="yes"/>
      <point x="478" y="626"/>
      <point x="407" y="709"/>
      <point x="251" y="709" type="curve" smooth="yes"/>
      <point x="168" y="709"/>
      <point x="99" y="674"/>
      <point x="58" y="647" type="curve"/>
      <point x="108" y="547" type="line"/>
      <point x="144" y="571"/>
      <point x="199" y="591"/>
      <point x="252" y="591" type="curve" smooth="yes"/>
      <point x="306" y="591"/>
      <point x="338" y="560"/>
      <point x="338" y="510" type="curve" smooth="yes"/>
      <point x="338" y="442"/>
      <point x="278" y="421"/>
      <point x="220" y="421" type="curve" smooth="yes"/>
      <point x="168" y="421" type="line"/>
      <point x="168" y="307" type="line"/>
      <point x="211" y="307" type="line" smooth="yes"/>
      <point x="300" y="307"/>
      <point x="365" y="281"/>
      <point x="365" y="208" type="curve" smooth="yes"/>
      <point x="365" y="149"/>
      <point x="332" y="103"/>
      <point x="237" y="103" type="curve" smooth="yes"/>
      <point x="162" y="103"/>
      <point x="106" y="124"/>
      <point x="73" y="139" type="curve"/>
      <point x="46" y="24" type="line"/>
      <point x="80" y="8"/>
      <point x="170" y="-15"/>
    </contour>
  </outline>
</glyph>
<glyph name="four" format="2">
  <advance width="560"/>
  <unicode hex="0034"/>
  <outline>
    <contour>
      <point x="319" y="0" type="line"/>
      <point x="457" y="0" type="line"/>
      <point x="457" y="164" type="line"/>
      <point x="532" y="164" type="line"/>
      <point x="532" y="277" type="line"/>
      <point x="457" y="277" type="line"/>
      <point x="457" y="693" type="line"/>
      <point x="334" y="693" type="line"/>
      <point x="214" y="573"/>
      <point x="88" y="381"/>
      <point x="30" y="264" type="curve"/>
      <point x="30" y="164" type="line"/>
      <point x="319" y="164" type="line"/>
    </contour>
    <contour>
      <point x="162" y="277" type="line"/>
      <point x="202" y="361"/>
      <point x="267" y="454"/>
      <point x="319" y="521" type="curve"/>
      <point x="319" y="277" type="line"/>
    </contour>
  </outline>
</glyph>
<glyph name="five" format="2">
  <advance width="560"/>
  <unicode hex="0035"/>
  <outline>
    <contour>
      <point x="226" y="-15" type="curve" smooth="yes"/>
      <point x="410" y="-15"/>
      <point x="501" y="81"/>
      <point x="501" y="209" type="curve" smooth="yes"/>
      <point x="501" y="348"/>
      <point x="409" y="429"/>
      <point x="225" y="440" type="curve"/>
      <point x="228" y="473"/>
      <point x="233" y="531"/>
      <point x="236" y="579" type="curve"/>
      <point x="475" y="579" type="line"/>
      <point x="475" y="693" type="line"/>
      <point x="121" y="693" type="line"/>
      <point x="116" y="581"/>
      <point x="108" y="459"/>
      <point x="93" y="335" type="curve"/>
      <point x="321" y="335"/>
      <point x="360" y="281"/>
      <point x="360" y="204" type="curve" smooth="yes"/>
      <point x="360" y="155"/>
      <point x="334" y="103"/>
      <point x="225" y="103" type="curve" smooth="yes"/>
      <point x="149" y="103"/>
      <point x="100" y="120"/>
      <point x="67" y="136" type="curve"/>
      <point x="39" y="21" type="line"/>
      <point x="71" y="6"/>
      <point x="155" y="-15"/>
    </contour>
  </outline>
</glyph>
<glyph name="six" format="2">
  <advance width="560"/>
  <unicode hex="0036"/>
  <outline>
    <contour>
      <point x="290" y="-15" type="curve" smooth="yes"/>
      <point x="442" y="-15"/>
      <point x="510" y="115"/>
      <point x="510" y="222" type="curve" smooth="yes"/>
      <point x="510" y="343"/>
      <point x="449" y="444"/>
      <point x="288" y="444" type="curve" smooth="yes"/>
      <point x="267" y="444"/>
      <point x="239" y="436"/>
      <point x="211" y="424" type="curve"/>
      <point x="243" y="540"/>
      <point x="358" y="578"/>
      <point x="477" y="580" type="curve"/>
      <point x="469" y="698" type="line"/>
      <point x="217" y="698"/>
      <point x="52" y="551"/>
      <point x="52" y="283" type="curve" smooth="yes"/>
      <point x="52" y="81"/>
      <point x="136" y="-15"/>
    </contour>
    <contour>
      <point x="287" y="104" type="curve" smooth="yes"/>
      <point x="208" y="104"/>
      <point x="187" y="186"/>
      <point x="187" y="271" type="curve" smooth="yes"/>
      <point x="187" y="286"/>
      <point x="188" y="299"/>
      <point x="189" y="312" type="curve"/>
      <point x="208" y="323"/>
      <point x="242" y="329"/>
      <point x="270" y="329" type="curve" smooth="yes"/>
      <point x="347" y="329"/>
      <point x="375" y="289"/>
      <point x="375" y="220" type="curve" smooth="yes"/>
      <point x="375" y="169"/>
      <point x="349" y="104"/>
    </contour>
  </outline>
</glyph>
<glyph name="seven" format="2">
  <advance width="560"/>
  <unicode hex="0037"/>
  <outline>
    <contour>
      <point x="148" y="0" type="curve"/>
      <point x="288" y="0" type="line"/>
      <point x="304" y="239"/>
      <point x="428" y="496"/>
      <point x="507" y="589" type="curve"/>
      <point x="507" y="693" type="line"/>
      <point x="55" y="693" type="line"/>
      <point x="55" y="579" type="line"/>
      <point x="346" y="579" type="line"/>
      <point x="264" y="444"/>
      <point x="157" y="190"/>
    </contour>
  </outline>
</glyph>
<glyph name="eight" format="2">
  <advance width="500"/>
  <unicode hex="0038"/>
  <outline>
    <contour>
      <point x="247" y="-13" type="curve" smooth="yes"/>
      <point x="407" y="-13"/>
      <point x="463" y="80"/>
      <point x="463" y="160" type="curve" smooth="yes"/>
      <point x="463" y="222"/>
      <point x="435" y="274"/>
      <point x="359" y="318" type="curve"/>
      <point x="419" y="355"/>
      <point x="446" y="415"/>
      <point x="446" y="472" type="curve" smooth="yes"/>
      <point x="446" y="570"/>
      <point x="370" y="634"/>
      <point x="252" y="634" type="curve" smooth="yes"/>
      <point x="104" y="634"/>
      <point x="53" y="534"/>
      <point x="53" y="453" type="curve" smooth="yes"/>
      <point x="53" y="403"/>
      <point x="71" y="357"/>
      <point x="129" y="317" type="curve"/>
      <point x="67" y="274"/>
      <point x="38" y="217"/>
      <point x="38" y="155" type="curve" smooth="yes"/>
      <point x="38" y="50"/>
      <point x="122" y="-13"/>
    </contour>
    <contour>
      <point x="249" y="89" type="curve" smooth="yes"/>
      <point x="197" y="89"/>
      <point x="153" y="117"/>
      <point x="153" y="170" type="curve" smooth="yes"/>
      <point x="153" y="205"/>
      <point x="174" y="246"/>
      <point x="211" y="276" type="curve"/>
      <point x="308" y="238"/>
      <point x="347" y="215"/>
      <point x="347" y="162" type="curve" smooth="yes"/>
      <point x="347" y="122"/>
      <point x="308" y="89"/>
    </contour>
    <contour>
      <point x="273" y="358" type="curve"/>
      <point x="196" y="390"/>
      <point x="169" y="414"/>
      <point x="169" y="461" type="curve" smooth="yes"/>
      <point x="169" y="507"/>
      <point x="208" y="532"/>
      <point x="250" y="532" type="curve" smooth="yes"/>
      <point x="294" y="532"/>
      <point x="330" y="508"/>
      <point x="330" y="462" type="curve" smooth="yes"/>
      <point x="330" y="428"/>
      <point x="314" y="388"/>
    </contour>
  </outline>
</glyph>
<glyph name="nine" format="2">
  <advance width="560"/>
  <unicode hex="0039"/>
  <outline>
    <contour>
      <point x="97" y="-2" type="line"/>
      <point x="349" y="-2"/>
      <point x="512" y="146"/>
      <point x="512" y="414" type="curve" smooth="yes"/>
      <point x="512" y="599"/>
      <point x="427" y="711"/>
      <point x="272" y="711" type="curve" smooth="yes"/>
      <point x="124" y="711"/>
      <point x="50" y="582"/>
      <point x="50" y="475" type="curve" smooth="yes"/>
      <point x="50" y="354"/>
      <point x="113" y="254"/>
      <point x="274" y="254" type="curve" smooth="yes"/>
      <point x="296" y="254"/>
      <point x="325" y="261"/>
      <point x="353" y="273" type="curve"/>
      <point x="315" y="166"/>
      <point x="212" y="118"/>
      <point x="93" y="116" type="curve"/>
    </contour>
    <contour>
      <point x="292" y="368" type="curve" smooth="yes"/>
      <point x="215" y="368"/>
      <point x="185" y="408"/>
      <point x="185" y="477" type="curve" smooth="yes"/>
      <point x="185" y="540"/>
      <point x="211" y="594"/>
      <point x="276" y="594" type="curve" smooth="yes"/>
      <point x="354" y="594"/>
      <point x="377" y="507"/>
      <point x="377" y="432" type="curve" smooth="yes"/>
      <point x="377" y="417"/>
      <point x="376" y="398"/>
      <point x="375" y="385" type="curve"/>
      <point x="356" y="375"/>
      <point x="320" y="368"/>
    </contour>
  </outline>
</glyph>
<glyph name="less" format="2">
  <advance width="560"/>
  <unicode hex="003C"/>
  <outline>
    <contour>
      <point x="480" y="45" type="line"/>
      <point x="519" y="166" type="line"/>
      <point x="205" y="288" type="line"/>
      <point x="519" y="410" type="line"/>
      <point x="480" y="531" type="line"/>
      <point x="50" y="351" type="line"/>
      <point x="50" y="226" type="line"/>
    </contour>
  </outline>
</glyph>
<glyph name="equal" format="2">
  <advance width="560"/>
  <unicode hex="003D"/>
  <outline>
    <contour>
      <point x="45" y="346" type="line"/>
      <point x="515" y="346" type="line"/>
      <point x="515" y="460" type="line"/>
      <point x="45" y="460" type="line"/>
    </contour>
    <contour>
      <point x="45" y="128" type="line"/>
      <point x="515" y="128" type="line"/>
      <point x="515" y="242" type="line"/>
      <point x="45" y="242" type="line"/>
    </contour>
  </outline>
</glyph>
<glyph name="greater" format="2">
  <advance width="500"/>
  <unicode hex="003E"/>
  <outline>
    <contour>
      <point x="75" y="39" type="line"/>
      <point x="459" y="201" type="line"/>
      <point x="459" y="312" type="line"/>
      <point x="75" y="473" type="line"/>
      <point x="40" y="365" type="line"/>
      <point x="321" y="256" type="line"/>
      <point x="40" y="147" type="line"/>
    </contour>
  </outline>
</glyph>
<glyph name="question" format="2">
  <advance width="560"/>
  <unicode hex="003F"/>
  <outline>
    <contour>
      <point x="186" y="252" type="curve"/>
      <point x="311" y="252" type="line"/>
      <point x="311" y="348"/>
      <point x="486" y="402"/>
      <point x="486" y="533" type="curve" smooth="yes"/>
      <point x="486" y="607"/>
      <point x="444" y="709"/>
      <point x="273" y="709" type="curve" smooth="yes"/>
      <point x="205" y="709"/>
      <point x="129" y="690"/>
      <point x="77" y="657" type="curve"/>
      <point x="115" y="552" type="line"/>
      <point x="167" y="578"/>
      <point x="211" y="592"/>
      <point x="258" y="592" type="curve" smooth="yes"/>
      <point x="306" y="592"/>
      <point x="340" y="569"/>
      <point x="340" y="524" type="curve" smooth="yes"/>
      <point x="340" y="444"/>
      <point x="185" y="413"/>
      <point x="185" y="269" type="curve" smooth="yes"/>
      <point x="185" y="263"/>
      <point x="185" y="258"/>
    </contour>
    <contour>
      <point x="258" y="-13" type="curve" smooth="yes"/>
      <point x="305" y="-13"/>
      <point x="351" y="21"/>
      <point x="351" y="80" type="curve" smooth="yes"/>
      <point x="351" y="137"/>
      <point x="305" y="171"/>
      <point x="258" y="171" type="curve" smooth="yes"/>
      <point x="209" y="171"/>
      <point x="164" y="137"/>
      <point x="164" y="80" type="curve" smooth="yes"/>
      <point x="164" y="21"/>
      <point x="209" y="-13"/>
    </contour>
  </outline>
</glyph>
<glyph name="at" format="2">
  <advance width="560"/>
  <unicode hex="0040"/>
  <outline>
    <contour>
      <point x="368" y="-151" type="curve" smooth="yes"/>
      <point x="422" y="-151"/>
      <point x="452" y="-147"/>
      <point x="503" y="-136" type="curve"/>
      <point x="491" y="-38" type="line"/>
      <point x="478" y="-43"/>
      <point x="438" y="-53"/>
      <point x="368" y="-53" type="curve" smooth="yes"/>
      <point x="180" y="-53"/>
      <point x="122" y="62"/>
      <point x="122" y="271" type="curve" smooth="yes"/>
      <point x="122" y="536"/>
      <point x="202" y="612"/>
      <point x="301" y="612" type="curve" smooth="yes"/>
      <point x="370" y="612"/>
      <point x="407" y="566"/>
      <point x="407" y="510" type="curve" smooth="yes"/>
      <point x="407" y="492" type="line"/>
      <point x="388" y="495"/>
      <point x="370" y="497"/>
      <point x="354" y="497" type="curve" smooth="yes"/>
      <point x="228" y="497"/>
      <point x="186" y="395"/>
      <point x="186" y="270" type="curve" smooth="yes"/>
      <point x="186" y="101"/>
      <point x="271" y="37"/>
      <point x="385" y="37" type="curve" smooth="yes"/>
      <point x="424" y="37"/>
      <point x="484" y="45"/>
      <point x="524" y="62" type="curve"/>
      <point x="524" y="454" type="line" smooth="yes"/>
      <point x="524" y="640"/>
      <point x="423" y="709"/>
      <point x="301" y="709" type="curve" smooth="yes"/>
      <point x="153" y="709"/>
      <point x="20" y="600"/>
      <point x="20" y="278" type="curve" smooth="yes"/>
      <point x="20" y="-54"/>
      <point x="171" y="-151"/>
    </contour>
    <contour>
      <point x="375" y="151" type="curve" smooth="yes"/>
      <point x="315" y="151"/>
      <point x="304" y="220"/>
      <point x="304" y="277" type="curve" smooth="yes"/>
      <point x="304" y="327"/>
      <point x="318" y="383"/>
      <point x="374" y="383" type="curve" smooth="yes"/>
      <point x="384" y="383"/>
      <point x="394" y="381"/>
      <point x="407" y="379" type="curve"/>
      <point x="407" y="155" type="line"/>
      <point x="395" y="152"/>
      <point x="383" y="151"/>
    </contour>
  </outline>
</glyph>
<glyph name="A" format="2">
  <advance width="560"/>
  <unicode hex="0041"/>
  <anchor x="280" y="0" name="bottom"/>
  <anchor x="504" y="11" name="ogonek"/>
  <anchor x="280" y="776" name="top"/>
  <outline>
    <contour>
      <point x="10" y="0" type="curve"/>
      <point x="153" y="0" type="line"/>
      <point x="185" y="160" type="line"/>
      <point x="370" y="160" type="line"/>
      <point x="402" y="0" type="line"/>
      <point x="550" y="0" type="line"/>
      <point x="489" y="264"/>
      <point x="422" y="492"/>
      <point x="357" y="693" type="curve"/>
      <point x="207" y="693" type="line"/>
      <point x="144" y="492"/>
      <point x="76" y="273"/>
    </contour>
    <contour>
      <point x="211" y="274" type="line"/>
      <point x="228" y="374"/>
      <point x="249" y="454"/>
      <point x="279" y="559" type="curve"/>
      <point x="309" y="454"/>
      <point x="329" y="374"/>
      <point x="346" y="274" type="curve"/>
    </contour>
  </outline>
</glyph>
<glyph name="B" format="2">
  <advance width="560"/>
  <unicode hex="0042"/>
  <anchor x="280" y="0" name="bottom"/>
  <anchor x="280" y="389" name="center"/>
  <anchor x="280" y="776" name="top"/>
  <outline>
    <contour>
      <point x="253" y="-9" type="curve" smooth="yes"/>
      <point x="405" y="-9"/>
      <point x="525" y="43"/>
      <point x="525" y="209" type="curve" smooth="yes"/>
      <point x="525" y="273"/>
      <point x="498" y="337"/>
      <point x="404" y="371" type="curve"/>
      <point x="458" y="401"/>
      <point x="493" y="454"/>
      <point x="493" y="519" type="curve" smooth="yes"/>
      <point x="493" y="606"/>
      <point x="449" y="701"/>
      <point x="240" y="701" type="curve" smooth="yes"/>
      <point x="179" y="701"/>
      <point x="113" y="693"/>
      <point x="60" y="684" type="curve"/>
      <point x="60" y="11" type="line"/>
      <point x="124" y="-2"/>
      <point x="193" y="-9"/>
    </contour>
    <contour>
      <point x="264" y="111" type="curve" smooth="yes"/>
      <point x="242" y="111"/>
      <point x="217" y="113"/>
      <point x="198" y="115" type="curve"/>
      <point x="198" y="304" type="line"/>
      <point x="272" y="304" type="line"/>
      <point x="343" y="304"/>
      <point x="390" y="276"/>
      <point x="390" y="209" type="curve" smooth="yes"/>
      <point x="390" y="128"/>
      <point x="326" y="111"/>
    </contour>
    <contour>
      <point x="198" y="418" type="line"/>
      <point x="198" y="577" type="line"/>
      <point x="216" y="579"/>
      <point x="241" y="581"/>
      <point x="261" y="581" type="curve" smooth="yes"/>
      <point x="312" y="581"/>
      <point x="358" y="570"/>
      <point x="358" y="504" type="curve" smooth="yes"/>
      <point x="358" y="450"/>
      <point x="321" y="418"/>
      <point x="252" y="418" type="curve" smooth="yes"/>
    </contour>
  </outline>
</glyph>
<glyph name="C" format="2">
  <advance width="560"/>
  <unicode hex="0043"/>
  <anchor x="280" y="0" name="bottom"/>
  <anchor x="280" y="776" name="top"/>
  <outline>
    <contour>
      <point x="332" y="-15" type="curve" smooth="yes"/>
      <point x="418" y="-15"/>
      <point x="487" y="10"/>
      <point x="525" y="34" type="curve"/>
      <point x="491" y="142" type="line"/>
      <point x="463" y="125"/>
      <point x="416" y="105"/>
      <point x="345" y="105" type="curve" smooth="yes"/>
      <point x="222" y="105"/>
      <point x="170" y="194"/>
      <point x="170" y="351" type="curve" smooth="yes"/>
      <point x="170" y="533"/>
      <point x="258" y="589"/>
      <point x="343" y="589" type="curve" smooth="yes"/>
      <point x="404" y="589"/>
      <point x="454" y="571"/>
      <point x="488" y="549" type="curve"/>
      <point x="524" y="659" type="line"/>
      <point x="504" y="672"/>
      <point x="442" y="709"/>
      <point x="345" y="709" type="curve" smooth="yes"/>
      <point x="164" y="709"/>
      <point x="30" y="577"/>
      <point x="30" y="347" type="curve" smooth="yes"/>
      <point x="30" y="116"/>
      <point x="138" y="-15"/>
    </contour>
  </outline>
</glyph>
<glyph name="D" format="2">
  <advance width="560"/>
  <unicode hex="0044"/>
  <anchor x="280" y="0" name="bottom"/>
  <anchor x="280" y="389" name="center"/>
  <anchor x="280" y="776" name="top"/>
  <outline>
    <contour>
      <point x="208" y="-9" type="curve" smooth="yes"/>
      <point x="395" y="-9"/>
      <point x="530" y="90"/>
      <point x="530" y="347" type="curve" smooth="yes"/>
      <point x="530" y="597"/>
      <point x="410" y="701"/>
      <point x="226" y="701" type="curve" smooth="yes"/>
      <point x="178" y="701"/>
      <point x="123" y="698"/>
      <point x="60" y="684" type="curve"/>
      <point x="60" y="8" type="line"/>
      <point x="114" y="-4"/>
      <point x="159" y="-9"/>
    </contour>
    <contour>
      <point x="223" y="111" type="curve" smooth="yes"/>
      <point x="215" y="111"/>
      <point x="205" y="111"/>
      <point x="198" y="112" type="curve"/>
      <point x="198" y="578" type="line"/>
      <point x="211" y="580"/>
      <point x="226" y="581"/>
      <point x="239" y="581" type="curve" smooth="yes"/>
      <point x="361" y="581"/>
      <point x="390" y="468"/>
      <point x="390" y="347" type="curve" smooth="yes"/>
      <point x="390" y="211"/>
      <point x="348" y="111"/>
    </contour>
  </outline>
</glyph>
<glyph name="E" format="2">
  <advance width="500"/>
  <unicode hex="0045"/>
  <anchor x="250" y="0" name="bottom"/>
  <anchor x="450" y="10" name="ogonek"/>
  <anchor x="250" y="693" name="top"/>
  <anchor x="20" y="693" name="topleft"/>
  <outline>
    <contour>
      <point x="63" y="0" type="line"/>
      <point x="460" y="0" type="line"/>
      <point x="460" y="102" type="line"/>
      <point x="186" y="102" type="line"/>
      <point x="186" y="276" type="line"/>
      <point x="405" y="276" type="line"/>
      <point x="405" y="378" type="line"/>
      <point x="186" y="378" type="line"/>
      <point x="186" y="517" type="line"/>
      <point x="438" y="517" type="line"/>
      <point x="438" y="619" type="line"/>
      <point x="63" y="619" type="line"/>
    </contour>
  </outline>
</glyph>
<glyph name="F" format="2">
  <advance width="560"/>
  <unicode hex="0046"/>
  <anchor x="280" y="0" name="bottom"/>
  <anchor x="280" y="776" name="top"/>
  <outline>
    <contour>
      <point x="71" y="0" type="line"/>
      <point x="208" y="0" type="line"/>
      <point x="208" y="297" type="line"/>
      <point x="459" y="297" type="line"/>
      <point x="459" y="411" type="line"/>
      <point x="208" y="411" type="line"/>
      <point x="208" y="579" type="line"/>
      <point x="495" y="579" type="line"/>
      <point x="495" y="693" type="line"/>
      <point x="71" y="693" type="line"/>
    </contour>
  </outline>
</glyph>
<glyph name="G" format="2">
  <advance width="560"/>
  <unicode hex="0047"/>
  <anchor x="280" y="0" name="bottom"/>
  <anchor x="280" y="776" name="top"/>
  <outline>
    <contour>
      <point x="314" y="-15" type="curve" smooth="yes"/>
      <point x="411" y="-15"/>
      <point x="484" y="4"/>
      <point x="516" y="17" type="curve"/>
      <point x="516" y="363" type="line"/>
      <point x="379" y="363" type="line"/>
      <point x="379" y="110" type="line"/>
      <point x="362" y="108"/>
      <point x="340" y="105"/>
      <point x="325" y="105" type="curve" smooth="yes"/>
      <point x="224" y="105"/>
      <point x="170" y="183"/>
      <point x="170" y="347" type="curve" smooth="yes"/>
      <point x="170" y="491"/>
      <point x="220" y="589"/>
      <point x="349" y="589" type="curve" smooth="yes"/>
      <point x="400" y="589"/>
      <point x="451" y="570"/>
      <point x="484" y="549" type="curve"/>
      <point x="520" y="659" type="line"/>
      <point x="498" y="672"/>
      <point x="439" y="709"/>
      <point x="330" y="709" type="curve" smooth="yes"/>
      <point x="164" y="709"/>
      <point x="30" y="585"/>
      <point x="30" y="347" type="curve" smooth="yes"/>
      <point x="30" y="108"/>
      <point x="141" y="-15"/>
    </contour>
  </outline>
</glyph>
<glyph name="H" format="2">
  <advance width="560"/>
  <unicode hex="0048"/>
  <anchor x="280" y="0" name="bottom"/>
  <anchor x="280" y="389" name="center"/>
  <anchor x="280" y="776" name="top"/>
  <anchor x="22" y="776" name="topleft"/>
  <outline>
    <contour>
      <point x="50" y="0" type="line"/>
      <point x="188" y="0" type="line"/>
      <point x="188" y="306" type="line"/>
      <point x="372" y="306" type="line"/>
      <point x="372" y="0" type="line"/>
      <point x="510" y="0" type="line"/>
      <point x="510" y="693" type="line"/>
      <point x="372" y="693" type="line"/>
      <point x="372" y="420" type="line"/>
      <point x="188" y="420" type="line"/>
      <point x="188" y="693" type="line"/>
      <point x="50" y="693" type="line"/>
    </contour>
  </outline>
</glyph>
<glyph name="I" format="2">
  <advance width="560"/>
  <unicode hex="0049"/>
  <anchor x="280" y="0" name="bottom"/>
  <anchor x="504" y="11" name="ogonek"/>
  <anchor x="280" y="776" name="top"/>
  <anchor x="22" y="776" name="topleft"/>
  <outline>
    <contour>
      <point x="60" y="0" type="line"/>
      <point x="501" y="0" type="line"/>
      <point x="501" y="114" type="line"/>
      <point x="351" y="114" type="line"/>
      <point x="351" y="579" type="line"/>
      <point x="501" y="579" type="line"/>
      <point x="501" y="693" type="line"/>
      <point x="60" y="693" type="line"/>
      <point x="60" y="579" type="line"/>
      <point x="212" y="579" type="line"/>
      <point x="212" y="114" type="line"/>
      <point x="60" y="114" type="line"/>
    </contour>
  </outline>
</glyph>
<glyph name="J" format="2">
  <advance width="560"/>
  <unicode hex="004A"/>
  <anchor x="280" y="0" name="bottom"/>
  <anchor x="280" y="776" name="top"/>
  <outline>
    <contour>
      <point x="244" y="-15" type="curve" smooth="yes"/>
      <point x="424" y="-15"/>
      <point x="491" y="96"/>
      <point x="491" y="232" type="curve" smooth="yes"/>
      <point x="491" y="693" type="line"/>
      <point x="120" y="693" type="line"/>
      <point x="120" y="579" type="line"/>
      <point x="352" y="579" type="line"/>
      <point x="352" y="240" type="line" smooth="yes"/>
      <point x="352" y="137"/>
      <point x="304" y="105"/>
      <point x="232" y="105" type="curve" smooth="yes"/>
      <point x="184" y="105"/>
      <point x="137" y="133"/>
      <point x="100" y="157" type="curve"/>
      <point x="47" y="47" type="line"/>
      <point x="91" y="13"/>
      <point x="151" y="-15"/>
    </contour>
  </outline>
</glyph>
<glyph name="L" format="2">
  <advance width="560"/>
  <unicode hex="004C"/>
  <anchor x="280" y="0" name="bottom"/>
  <anchor x="280" y="389" name="center"/>
  <anchor x="280" y="776" name="top"/>
  <anchor x="538" y="776" name="topright"/>
  <outline>
    <contour>
      <point x="80" y="0" type="line"/>
      <point x="515" y="0" type="line"/>
      <point x="515" y="114" type="line"/>
      <point x="218" y="114" type="line"/>
      <point x="218" y="693" type="line"/>
      <point x="80" y="693" type="line"/>
    </contour>
  </outline>
</glyph>
<glyph name="M" format="2">
  <advance width="560"/>
  <unicode hex="004D"/>
  <anchor x="280" y="0" name="bottom"/>
  <anchor x="280" y="776" name="top"/>
  <outline>
    <contour>
      <point x="26" y="0" type="curve"/>
      <point x="152" y="0" type="line"/>
      <point x="150" y="179"/>
      <point x="149" y="360"/>
      <point x="147" y="539" type="curve"/>
      <point x="228" y="245" type="line"/>
      <point x="329" y="245" type="line"/>
      <point x="414" y="539" type="line"/>
      <point x="412" y="360"/>
      <point x="410" y="179"/>
      <point x="408" y="0" type="curve"/>
      <point x="534" y="0" type="line"/>
      <point x="530" y="239"/>
      <point x="515" y="451"/>
      <point x="493" y="693" type="curve"/>
      <point x="379" y="693" type="line"/>
      <point x="356" y="629"/>
      <point x="315" y="497"/>
      <point x="278" y="386" type="curve"/>
      <point x="246" y="486"/>
      <point x="202" y="629"/>
      <point x="180" y="693" type="curve"/>
      <point x="66" y="693" type="line"/>
      <point x="45" y="501"/>
      <point x="35" y="226"/>
    </contour>
  </outline>
</glyph>
<glyph name="N" format="2">
  <advance width="560"/>
  <unicode hex="004E"/>
  <anchor x="280" y="0" name="bottom"/>
  <anchor x="280" y="685" name="top"/>
  <outline>
    <contour>
      <point x="52" y="0" type="line"/>
      <point x="176" y="0" type="line"/>
      <point x="176" y="460" type="line"/>
      <point x="261" y="307"/>
      <point x="336" y="152"/>
      <point x="398" y="0" type="curve"/>
      <point x="508" y="0" type="line"/>
      <point x="508" y="693" type="line"/>
      <point x="384" y="693" type="line"/>
      <point x="384" y="267" type="line"/>
      <point x="336" y="375"/>
      <point x="245" y="562"/>
      <point x="162" y="693" type="curve"/>
      <point x="52" y="693" type="line"/>
    </contour>
  </outline>
</glyph>
<glyph name="O" format="2">
  <advance width="560"/>
  <unicode hex="004F"/>
  <anchor x="280" y="0" name="bottom"/>
  <anchor x="280" y="389" name="center"/>
  <anchor x="504" y="11" name="ogonek"/>
  <anchor x="280" y="776" name="top"/>
  <anchor x="22" y="776" name="topleft"/>
  <anchor x="538" y="776" name="topright"/>
  <outline>
    <contour>
      <point x="281" y="-15" type="curve" smooth="yes"/>
      <point x="438" y="-15"/>
      <point x="530" y="110"/>
      <point x="530" y="347" type="curve" smooth="yes"/>
      <point x="530" y="585"/>
      <point x="442" y="709"/>
      <point x="280" y="709" type="curve" smooth="yes"/>
      <point x="124" y="709"/>
      <point x="30" y="585"/>
      <point x="30" y="347" type="curve" smooth="yes"/>
      <point x="30" y="110"/>
      <point x="120" y="-15"/>
    </contour>
    <contour>
      <point x="280" y="105" type="curve" smooth="yes"/>
      <point x="185" y="105"/>
      <point x="170" y="213"/>
      <point x="170" y="347" type="curve" smooth="yes"/>
      <point x="170" y="480"/>
      <point x="186" y="589"/>
      <point x="280" y="589" type="curve" smooth="yes"/>
      <point x="375" y="589"/>
      <point x="390" y="482"/>
      <point x="390" y="347" type="curve" smooth="yes"/>
      <point x="390" y="214"/>
      <point x="374" y="105"/>
    </contour>
  </outline>
</glyph>
<glyph name="P" format="2">
  <advance width="560"/>
  <unicode hex="0050"/>
  <anchor x="280" y="0" name="bottom"/>
  <anchor x="280" y="776" name="top"/>
  <outline>
    <contour>
      <point x="60" y="0" type="line"/>
      <point x="198" y="0" type="line"/>
      <point x="198" y="234" type="line"/>
      <point x="248" y="234" type="line" smooth="yes"/>
      <point x="427" y="234"/>
      <point x="529" y="304"/>
      <point x="529" y="469" type="curve" smooth="yes"/>
      <point x="529" y="634"/>
      <point x="428" y="701"/>
      <point x="251" y="701" type="curve" smooth="yes"/>
      <point x="199" y="701"/>
      <point x="115" y="697"/>
      <point x="60" y="684" type="curve"/>
    </contour>
    <contour>
      <point x="198" y="354" type="line"/>
      <point x="198" y="578" type="line"/>
      <point x="214" y="580"/>
      <point x="250" y="581"/>
      <point x="267" y="581" type="curve" smooth="yes"/>
      <point x="339" y="581"/>
      <point x="388" y="551"/>
      <point x="388" y="470" type="curve" smooth="yes"/>
      <point x="388" y="386"/>
      <point x="342" y="354"/>
      <point x="254" y="354" type="curve" smooth="yes"/>
    </contour>
  </outline>
</glyph>
<glyph name="Q" format="2">
  <advance width="560"/>
  <unicode hex="0051"/>
  <anchor x="280" y="0" name="bottom"/>
  <anchor x="280" y="776" name="top"/>
  <outline>
    <contour>
      <point x="495" y="-190" type="curve"/>
      <point x="524" y="-92" type="line"/>
      <point x="414" y="-73"/>
      <point x="351" y="-49"/>
      <point x="334" y="-12" type="curve"/>
      <point x="459" y="13"/>
      <point x="530" y="136"/>
      <point x="530" y="344" type="curve" smooth="yes"/>
      <point x="530" y="581"/>
      <point x="442" y="706"/>
      <point x="280" y="706" type="curve" smooth="yes"/>
      <point x="124" y="706"/>
      <point x="30" y="581"/>
      <point x="30" y="344" type="curve" smooth="yes"/>
      <point x="30" y="140"/>
      <point x="97" y="19"/>
      <point x="218" y="-10" type="curve"/>
      <point x="234" y="-114"/>
      <point x="321" y="-167"/>
    </contour>
    <contour>
      <point x="280" y="102" type="curve" smooth="yes"/>
      <point x="185" y="102"/>
      <point x="170" y="211"/>
      <point x="170" y="344" type="curve" smooth="yes"/>
      <point x="170" y="477"/>
      <point x="186" y="586"/>
      <point x="280" y="586" type="curve" smooth="yes"/>
      <point x="375" y="586"/>
      <point x="390" y="478"/>
      <point x="390" y="344" type="curve" smooth="yes"/>
      <point x="390" y="211"/>
      <point x="374" y="102"/>
    </contour>
  </outline>
</glyph>
<glyph name="R" format="2">
  <advance width="560"/>
  <unicode hex="0052"/>
  <anchor x="280" y="0" name="bottom"/>
  <anchor x="280" y="776" name="top"/>
  <outline>
    <contour>
      <point x="60" y="0" type="line"/>
      <point x="198" y="0" type="line"/>
      <point x="198" y="255" type="line"/>
      <point x="255" y="255" type="line"/>
      <point x="260" y="255"/>
      <point x="265" y="255"/>
      <point x="270" y="255" type="curve"/>
      <point x="321" y="171"/>
      <point x="370" y="88"/>
      <point x="403" y="0" type="curve"/>
      <point x="548" y="0" type="line"/>
      <point x="512" y="93"/>
      <point x="446" y="213"/>
      <point x="395" y="289" type="curve"/>
      <point x="472" y="323"/>
      <point x="502" y="393"/>
      <point x="502" y="474" type="curve" smooth="yes"/>
      <point x="502" y="629"/>
      <point x="398" y="701"/>
      <point x="240" y="701" type="curve" smooth="yes"/>
      <point x="196" y="701"/>
      <point x="113" y="697"/>
      <point x="60" y="683" type="curve"/>
    </contour>
    <contour>
      <point x="198" y="370" type="line"/>
      <point x="198" y="578" type="line"/>
      <point x="213" y="580"/>
      <point x="230" y="581"/>
      <point x="240" y="581" type="curve" smooth="yes"/>
      <point x="312" y="581"/>
      <point x="362" y="548"/>
      <point x="362" y="475" type="curve" smooth="yes"/>
      <point x="362" y="409"/>
      <point x="323" y="370"/>
      <point x="228" y="370" type="curve" smooth="yes"/>
    </contour>
  </outline>
</glyph>
<glyph name="S" format="2">
  <advance width="560"/>
  <unicode hex="0053"/>
  <anchor x="280" y="0" name="bottom"/>
  <anchor x="280" y="776" name="top"/>
  <outline>
    <contour>
      <point x="260" y="-15" type="curve" smooth="yes"/>
      <point x="430" y="-15"/>
      <point x="515" y="60"/>
      <point x="515" y="189" type="curve" smooth="yes"/>
      <point x="515" y="342"/>
      <point x="402" y="382"/>
      <point x="315" y="414" type="curve" smooth="yes"/>
      <point x="258" y="435"/>
      <point x="193" y="461"/>
      <point x="193" y="514" type="curve" smooth="yes"/>
      <point x="193" y="566"/>
      <point x="228" y="594"/>
      <point x="302" y="594" type="curve" smooth="yes"/>
      <point x="362" y="594"/>
      <point x="407" y="577"/>
      <point x="444" y="556" type="curve"/>
      <point x="484" y="662" type="line"/>
      <point x="441" y="685"/>
      <point x="376" y="709"/>
      <point x="292" y="709" type="curve" smooth="yes"/>
      <point x="146" y="709"/>
      <point x="55" y="631"/>
      <point x="55" y="502" type="curve" smooth="yes"/>
      <point x="55" y="371"/>
      <point x="161" y="333"/>
      <point x="244" y="301" type="curve" smooth="yes"/>
      <point x="306" y="277"/>
      <point x="377" y="249"/>
      <point x="377" y="190" type="curve" smooth="yes"/>
      <point x="377" y="144"/>
      <point x="353" y="101"/>
      <point x="260" y="101" type="curve" smooth="yes"/>
      <point x="180" y="101"/>
      <point x="125" y="127"/>
      <point x="85" y="150" type="curve"/>
      <point x="45" y="38" type="line"/>
      <point x="80" y="17"/>
      <point x="144" y="-15"/>
    </contour>
  </outline>
</glyph>
<glyph name="T" format="2">
  <advance width="560"/>
  <unicode hex="0054"/>
  <anchor x="280" y="0" name="bottom"/>
  <anchor x="280" y="389" name="center"/>
  <anchor x="280" y="776" name="top"/>
  <outline>
    <contour>
      <point x="211" y="0" type="line"/>
      <point x="349" y="0" type="line"/>
      <point x="349" y="579" type="line"/>
      <point x="532" y="579" type="line"/>
      <point x="532" y="693" type="line"/>
      <point x="28" y="693" type="line"/>
      <point x="28" y="579" type="line"/>
      <point x="211" y="579" type="line"/>
    </contour>
  </outline>
</glyph>
<glyph name="U" format="2">
  <advance width="560"/>
  <unicode hex="0055"/>
  <anchor x="280" y="0" name="bottom"/>
  <anchor x="504" y="11" name="ogonek"/>
  <anchor x="280" y="776" name="top"/>
  <anchor x="538" y="776" name="topright"/>
  <outline>
    <contour>
      <point x="278" y="-15" type="curve" smooth="yes"/>
      <point x="461" y="-15"/>
      <point x="516" y="88"/>
      <point x="516" y="251" type="curve" smooth="yes"/>
      <point x="516" y="693" type="line"/>
      <point x="379" y="693" type="line"/>
      <point x="379" y="261" type="line" smooth="yes"/>
      <point x="379" y="144"/>
      <point x="357" y="105"/>
      <point x="280" y="105" type="curve" smooth="yes"/>
      <point x="203" y="105"/>
      <point x="183" y="143"/>
      <point x="183" y="260" type="curve" smooth="yes"/>
      <point x="183" y="693" type="line"/>
      <point x="44" y="693" type="line"/>
      <point x="44" y="251" type="line" smooth="yes"/>
      <point x="44" y="88"/>
      <point x="97" y="-15"/>
    </contour>
  </outline>
</glyph>
<glyph name="V" format="2">
  <advance width="560"/>
  <unicode hex="0056"/>
  <anchor x="280" y="0" name="bottom"/>
  <anchor x="280" y="776" name="top"/>
  <outline>
    <contour>
      <point x="208" y="0" type="curve"/>
      <point x="351" y="0" type="line"/>
      <point x="438" y="237"/>
      <point x="512" y="515"/>
      <point x="547" y="693" type="curve"/>
      <point x="402" y="693" type="line"/>
      <point x="379" y="550"/>
      <point x="329" y="295"/>
      <point x="281" y="141" type="curve"/>
      <point x="233" y="296"/>
      <point x="179" y="550"/>
      <point x="160" y="693" type="curve"/>
      <point x="15" y="693" type="line"/>
      <point x="41" y="547"/>
      <point x="136" y="206"/>
    </contour>
  </outline>
</glyph>
<glyph name="W" format="2">
  <advance width="560"/>
  <unicode hex="0057"/>
  <anchor x="280" y="0" name="bottom"/>
  <anchor x="280" y="776" name="top"/>
  <outline>
    <contour>
      <point x="67" y="0" type="curve"/>
      <point x="181" y="0" type="line"/>
      <point x="212" y="93"/>
      <point x="250" y="214"/>
      <point x="282" y="307" type="curve"/>
      <point x="315" y="209"/>
      <point x="348" y="93"/>
      <point x="381" y="0" type="curve"/>
      <point x="495" y="0" type="line"/>
      <point x="516" y="207"/>
      <point x="526" y="466"/>
      <point x="534" y="693" type="curve"/>
      <point x="407" y="693" type="line"/>
      <point x="408" y="516"/>
      <point x="413" y="309"/>
      <point x="413" y="155" type="curve"/>
      <point x="380" y="278"/>
      <point x="345" y="391"/>
      <point x="332" y="448" type="curve"/>
      <point x="231" y="448" type="line"/>
      <point x="216" y="394"/>
      <point x="174" y="250"/>
      <point x="146" y="155" type="curve"/>
      <point x="146" y="310"/>
      <point x="151" y="516"/>
      <point x="153" y="693" type="curve"/>
      <point x="26" y="693" type="line"/>
      <point x="32" y="468"/>
      <point x="44" y="207"/>
    </contour>
  </outline>
</glyph>
<glyph name="X" format="2">
  <advance width="560"/>
  <unicode hex="0058"/>
  <anchor x="280" y="0" name="bottom"/>
  <anchor x="280" y="776" name="top"/>
  <outline>
    <contour>
      <point x="12" y="0" type="curve"/>
      <point x="161" y="0" type="line"/>
      <point x="193" y="76"/>
      <point x="239" y="178"/>
      <point x="282" y="265" type="curve"/>
      <point x="327" y="174"/>
      <point x="371" y="76"/>
      <point x="399" y="0" type="curve"/>
      <point x="548" y="0" type="line"/>
      <point x="519" y="80"/>
      <point x="441" y="241"/>
      <point x="360" y="370" type="curve"/>
      <point x="536" y="693" type="line"/>
      <point x="398" y="693" type="line"/>
      <point x="282" y="472" type="line"/>
      <point x="172" y="693" type="line"/>
      <point x="24" y="693" type="line"/>
      <point x="205" y="366" type="line"/>
      <point x="133" y="239"/>
      <point x="44" y="80"/>
    </contour>
  </outline>
</glyph>
<glyph name="Y" format="2">
  <advance width="560"/>
  <unicode hex="0059"/>
  <anchor x="280" y="0" name="bottom"/>
  <anchor x="280" y="776" name="top"/>
  <anchor x="22" y="776" name="topleft"/>
  <outline>
    <contour>
      <point x="212" y="0" type="line"/>
      <point x="351" y="0" type="line"/>
      <point x="351" y="264" type="line"/>
      <point x="436" y="410"/>
      <point x="491" y="541"/>
      <point x="547" y="693" type="curve"/>
      <point x="404" y="693" type="line"/>
      <point x="373" y="597"/>
      <point x="318" y="445"/>
      <point x="284" y="376" type="curve"/>
      <point x="240" y="468"/>
      <point x="197" y="586"/>
      <point x="162" y="693" type="curve"/>
      <point x="15" y="693" type="line"/>
      <point x="72" y="541"/>
      <point x="130" y="409"/>
      <point x="212" y="263" type="curve"/>
    </contour>
  </outline>
</glyph>
<glyph name="Z" format="2">
  <advance width="560"/>
  <unicode hex="005A"/>
  <anchor x="280" y="0" name="bottom"/>
  <anchor x="280" y="389" name="center"/>
  <anchor x="280" y="776" name="top"/>
  <outline>
    <contour>
      <point x="52" y="0" type="line"/>
      <point x="508" y="0" type="line"/>
      <point x="508" y="114" type="line"/>
      <point x="211" y="114" type="line"/>
      <point x="287" y="255"/>
      <point x="370" y="400"/>
      <point x="498" y="597" type="curve"/>
      <point x="498" y="693" type="line"/>
      <point x="66" y="693" type="line"/>
      <point x="66" y="579" type="line"/>
      <point x="333" y="579" type="line"/>
      <point x="200" y="357"/>
      <point x="116" y="209"/>
      <point x="52" y="80" type="curve"/>
    </contour>
  </outline>
</glyph>
<glyph name="bracketleft" format="2">
  <advance width="560"/>
  <unicode hex="005B"/>
  <outline>
    <contour>
      <point x="127" y="-185" type="line"/>
      <point x="437" y="-185" type="line"/>
      <point x="437" y="-77" type="line"/>
      <point x="258" y="-77" type="line"/>
      <point x="258" y="675" type="line"/>
      <point x="437" y="675" type="line"/>
      <point x="437" y="783" type="line"/>
      <point x="127" y="783" type="line"/>
    </contour>
  </outline>
</glyph>
<glyph name="backslash" format="2">
  <advance width="560"/>
  <unicode hex="005C"/>
  <outline>
    <contour>
      <point x="367" y="-185" type="line"/>
      <point x="510" y="-185" type="line"/>
      <point x="196" y="783" type="line"/>
      <point x="55" y="783" type="line"/>
    </contour>
  </outline>
</glyph>
<glyph name="bracketright" format="2">
  <advance width="560"/>
  <unicode hex="005D"/>
  <outline>
    <contour>
      <point x="122" y="-185" type="line"/>
      <point x="433" y="-185" type="line"/>
      <point x="433" y="783" type="line"/>
      <point x="122" y="783" type="line"/>
      <point x="122" y="675" type="line"/>
      <point x="301" y="675" type="line"/>
      <point x="301" y="-77" type="line"/>
      <point x="122" y="-77" type="line"/>
    </contour>
  </outline>
</glyph>
<glyph name="asciicircum" format="2">
  <advance width="560"/>
  <unicode hex="005E"/>
  <outline>
    <contour>
      <point x="143" y="286" type="line"/>
      <point x="284" y="530" type="line"/>
      <point x="426" y="286" type="line"/>
      <point x="550" y="346" type="line"/>
      <point x="343" y="693" type="line"/>
      <point x="225" y="693" type="line"/>
      <point x="18" y="346" type="line"/>
    </contour>
  </outline>
</glyph>
<glyph name="grave" format="2">
  <advance width="560"/>
  <unicode hex="0060"/>
  <outline>
    <contour>
      <point x="365" y="575" type="line"/>
      <point x="416" y="650" type="line"/>
      <point x="239" y="774" type="line"/>
      <point x="170" y="669" type="line"/>
    </contour>
  </outline>
</glyph>
<glyph name="a" format="2">
  <advance width="560"/>
  <unicode hex="0061"/>
  <anchor x="280" y="0" name="bottom"/>
  <anchor x="504" y="11" name="ogonek"/>
  <anchor x="280" y="582" name="top"/>
  <outline>
    <contour>
      <point x="271" y="-12" type="curve" smooth="yes"/>
      <point x="370" y="-12"/>
      <point x="454" y="3"/>
      <point x="494" y="12" type="curve"/>
      <point x="494" y="326" type="line" smooth="yes"/>
      <point x="494" y="457"/>
      <point x="441" y="540"/>
      <point x="269" y="540" type="curve" smooth="yes"/>
      <point x="202" y="540"/>
      <point x="132" y="528"/>
      <point x="99" y="516" type="curve"/>
      <point x="118" y="405" type="line"/>
      <point x="148" y="416"/>
      <point x="200" y="424"/>
      <point x="252" y="424" type="curve" smooth="yes"/>
      <point x="332" y="424"/>
      <point x="362" y="385"/>
      <point x="362" y="333" type="curve" smooth="yes"/>
      <point x="362" y="316" type="line"/>
      <point x="336" y="321"/>
      <point x="304" y="325"/>
      <point x="267" y="325" type="curve" smooth="yes"/>
      <point x="155" y="325"/>
      <point x="49" y="284"/>
      <point x="49" y="161" type="curve" smooth="yes"/>
      <point x="49" y="32"/>
      <point x="137" y="-12"/>
    </contour>
    <contour>
      <point x="281" y="99" type="curve" smooth="yes"/>
      <point x="224" y="99"/>
      <point x="185" y="118"/>
      <point x="185" y="165" type="curve" smooth="yes"/>
      <point x="185" y="217"/>
      <point x="237" y="228"/>
      <point x="295" y="228" type="curve" smooth="yes"/>
      <point x="316" y="228"/>
      <point x="344" y="226"/>
      <point x="362" y="223" type="curve"/>
      <point x="362" y="102" type="line"/>
      <point x="340" y="100"/>
      <point x="310" y="99"/>
    </contour>
  </outline>
</glyph>
<glyph name="b" format="2">
  <advance width="560"/>
  <unicode hex="0062"/>
  <anchor x="280" y="0" name="bottom"/>
  <anchor x="280" y="291" name="center"/>
  <anchor x="280" y="582" name="top"/>
  <outline>
    <contour>
      <point x="273" y="-12" type="curve" smooth="yes"/>
      <point x="435" y="-12"/>
      <point x="526" y="95"/>
      <point x="526" y="263" type="curve" smooth="yes"/>
      <point x="526" y="428"/>
      <point x="454" y="538"/>
      <point x="317" y="538" type="curve" smooth="yes"/>
      <point x="281" y="538"/>
      <point x="246" y="532"/>
      <point x="207" y="514" type="curve"/>
      <point x="207" y="777" type="line"/>
      <point x="69" y="754" type="line"/>
      <point x="69" y="16" type="line"/>
      <point x="120" y="0"/>
      <point x="203" y="-12"/>
    </contour>
    <contour>
      <point x="270" y="106" type="curve" smooth="yes"/>
      <point x="254" y="106"/>
      <point x="228" y="108"/>
      <point x="207" y="112" type="curve"/>
      <point x="207" y="398" type="line"/>
      <point x="227" y="410"/>
      <point x="259" y="419"/>
      <point x="289" y="419" type="curve" smooth="yes"/>
      <point x="354" y="419"/>
      <point x="386" y="364"/>
      <point x="386" y="267" type="curve" smooth="yes"/>
      <point x="386" y="151"/>
      <point x="342" y="106"/>
    </contour>
  </outline>
</glyph>
<glyph name="c" format="2">
  <advance width="560"/>
  <unicode hex="0063"/>
  <anchor x="280" y="0" name="bottom"/>
  <anchor x="280" y="582" name="top"/>
  <outline>
    <contour>
      <point x="354" y="-12" type="curve" smooth="yes"/>
      <point x="428" y="-12"/>
      <point x="484" y="-1"/>
      <point x="522" y="13" type="curve"/>
      <point x="502" y="127" type="line"/>
      <point x="464" y="113"/>
      <point x="413" y="108"/>
      <point x="370" y="108" type="curve" smooth="yes"/>
      <point x="239" y="108"/>
      <point x="189" y="167"/>
      <point x="189" y="263" type="curve" smooth="yes"/>
      <point x="189" y="354"/>
      <point x="232" y="420"/>
      <point x="363" y="420" type="curve" smooth="yes"/>
      <point x="420" y="420"/>
      <point x="454" y="410"/>
      <point x="483" y="400" type="curve"/>
      <point x="513" y="511" type="line"/>
      <point x="461" y="532"/>
      <point x="413" y="540"/>
      <point x="351" y="540" type="curve" smooth="yes"/>
      <point x="142" y="540"/>
      <point x="49" y="416"/>
      <point x="49" y="263" type="curve" smooth="yes"/>
      <point x="49" y="108"/>
      <point x="139" y="-12"/>
    </contour>
  </outline>
</glyph>
<glyph name="e" format="2">
  <advance width="560"/>
  <unicode hex="0065"/>
  <anchor x="280" y="0" name="bottom"/>
  <anchor x="504" y="11" name="ogonek"/>
  <anchor x="280" y="582" name="top"/>
  <outline>
    <contour>
      <point x="324" y="-12" type="curve" smooth="yes"/>
      <point x="390" y="-12"/>
      <point x="444" y="0"/>
      <point x="491" y="17" type="curve"/>
      <point x="472" y="134" type="line"/>
      <point x="438" y="122"/>
      <point x="384" y="108"/>
      <point x="329" y="108" type="curve" smooth="yes"/>
      <point x="240" y="108"/>
      <point x="177" y="150"/>
      <point x="177" y="218" type="curve"/>
      <point x="519" y="218" type="line"/>
      <point x="520" y="231"/>
      <point x="521" y="252"/>
      <point x="521" y="270" type="curve" smooth="yes"/>
      <point x="521" y="446"/>
      <point x="438" y="540"/>
      <point x="283" y="540" type="curve" smooth="yes"/>
      <point x="157" y="540"/>
      <point x="35" y="445"/>
      <point x="35" y="259" type="curve" smooth="yes"/>
      <point x="35" y="81"/>
      <point x="146" y="-12"/>
    </contour>
    <contour>
      <point x="177" y="314" type="line"/>
      <point x="183" y="372"/>
      <point x="214" y="424"/>
      <point x="286" y="424" type="curve" smooth="yes"/>
      <point x="360" y="424"/>
      <point x="388" y="370"/>
      <point x="388" y="314" type="curve"/>
    </contour>
  </outline>
</glyph>
<glyph name="f" format="2">
  <advance width="500"/>
  <unicode hex="0066"/>
  <anchor x="250" y="0" name="bottom"/>
  <anchor x="250" y="776" name="top"/>
  <outline>
    <contour>
      <point x="139" y="0" type="line"/>
      <point x="263" y="0" type="line"/>
      <point x="263" y="368" type="line"/>
      <point x="456" y="368" type="line"/>
      <point x="456" y="470" type="line"/>
      <point x="263" y="470" type="line"/>
      <point x="263" y="495" type="line" smooth="yes"/>
      <point x="263" y="576"/>
      <point x="302" y="588"/>
      <point x="348" y="588" type="curve" smooth="yes"/>
      <point x="389" y="588"/>
      <point x="440" y="573"/>
      <point x="471" y="563" type="curve"/>
      <point x="492" y="663" type="line"/>
      <point x="448" y="684"/>
      <point x="390" y="693"/>
      <point x="338" y="693" type="curve" smooth="yes"/>
      <point x="236" y="693"/>
      <point x="139" y="648"/>
      <point x="139" y="497" type="curve" smooth="yes"/>
      <point x="139" y="470" type="line"/>
      <point x="36" y="470" type="line"/>
      <point x="36" y="368" type="line"/>
      <point x="139" y="368" type="line"/>
    </contour>
  </outline>
</glyph>
<glyph name="g" format="2">
  <advance width="560"/>
  <unicode hex="0067"/>
  <anchor x="280" y="-207" name="bottom"/>
  <anchor x="280" y="582" name="top"/>
  <outline>
    <contour>
      <point x="228" y="-188" type="curve" smooth="yes"/>
      <point x="412" y="-188"/>
      <point x="491" y="-108"/>
      <point x="491" y="64" type="curve" smooth="yes"/>
      <point x="491" y="510" type="line"/>
      <point x="422" y="529"/>
      <point x="363" y="538"/>
      <point x="304" y="538" type="curve" smooth="yes"/>
      <point x="139" y="538"/>
      <point x="37" y="454"/>
      <point x="37" y="280" type="curve" smooth="yes"/>
      <point x="37" y="127"/>
      <point x="110" y="35"/>
      <point x="246" y="35" type="curve" smooth="yes"/>
      <point x="283" y="35"/>
      <point x="314" y="43"/>
      <point x="352" y="57" type="curve"/>
      <point x="352" y="36" type="line" smooth="yes"/>
      <point x="352" y="-24"/>
      <point x="327" y="-72"/>
      <point x="231" y="-72" type="curve" smooth="yes"/>
      <point x="160" y="-72"/>
      <point x="115" y="-54"/>
      <point x="73" y="-38" type="curve"/>
      <point x="47" y="-155" type="line"/>
      <point x="102" y="-172"/>
      <point x="164" y="-188"/>
    </contour>
    <contour>
      <point x="274" y="147" type="curve" smooth="yes"/>
      <point x="207" y="147"/>
      <point x="177" y="194"/>
      <point x="177" y="280" type="curve" smooth="yes"/>
      <point x="177" y="379"/>
      <point x="217" y="426"/>
      <point x="298" y="426" type="curve" smooth="yes"/>
      <point x="316" y="426"/>
      <point x="330" y="424"/>
      <point x="352" y="420" type="curve"/>
      <point x="352" y="167" type="line"/>
      <point x="332" y="156"/>
      <point x="305" y="147"/>
    </contour>
  </outline>
</glyph>
<glyph name="h" format="2">
  <advance width="560"/>
  <unicode hex="0068"/>
  <anchor x="280" y="0" name="bottom"/>
  <anchor x="280" y="435" name="center"/>
  <anchor x="280" y="869" name="top"/>
  <outline>
    <contour>
      <point x="71" y="0" type="line"/>
      <point x="208" y="0" type="line"/>
      <point x="208" y="405" type="line"/>
      <point x="223" y="410"/>
      <point x="250" y="418"/>
      <point x="276" y="418" type="curve" smooth="yes"/>
      <point x="337" y="418"/>
      <point x="356" y="377"/>
      <point x="356" y="279" type="curve" smooth="yes"/>
      <point x="356" y="0" type="line"/>
      <point x="494" y="0" type="line"/>
      <point x="494" y="297" type="line" smooth="yes"/>
      <point x="494" y="440"/>
      <point x="446" y="538"/>
      <point x="290" y="538" type="curve" smooth="yes"/>
      <point x="267" y="538"/>
      <point x="231" y="530"/>
      <point x="208" y="522" type="curve"/>
      <point x="208" y="777" type="line"/>
      <point x="71" y="754" type="line"/>
    </contour>
  </outline>
</glyph>
<glyph name="j" format="2">
  <advance width="560"/>
  <unicode hex="006A"/>
  <outline>
    <contour>
      <point x="243" y="-190" type="curve" smooth="yes"/>
      <point x="360" y="-190"/>
      <point x="448" y="-136"/>
      <point x="448" y="35" type="curve" smooth="yes"/>
      <point x="448" y="526" type="line"/>
      <point x="97" y="526" type="line"/>
      <point x="97" y="412" type="line"/>
      <point x="310" y="412" type="line"/>
      <point x="310" y="28" type="line" smooth="yes"/>
      <point x="310" y="-46"/>
      <point x="283" y="-69"/>
      <point x="237" y="-69" type="curve" smooth="yes"/>
      <point x="194" y="-69"/>
      <point x="136" y="-46"/>
      <point x="97" y="-26" type="curve"/>
      <point x="55" y="-142" type="line"/>
      <point x="112" y="-170"/>
      <point x="172" y="-190"/>
    </contour>
    <contour>
      <point x="344" y="590" type="curve" smooth="yes"/>
      <point x="391" y="590"/>
      <point x="431" y="624"/>
      <point x="431" y="678" type="curve" smooth="yes"/>
      <point x="431" y="732"/>
      <point x="391" y="766"/>
      <point x="344" y="766" type="curve" smooth="yes"/>
      <point x="297" y="766"/>
      <point x="258" y="732"/>
      <point x="258" y="678" type="curve" smooth="yes"/>
      <point x="258" y="624"/>
      <point x="297" y="590"/>
    </contour>
  </outline>
</glyph>
<glyph name="l" format="2">
  <advance width="560"/>
  <unicode hex="006C"/>
  <anchor x="280" y="0" name="bottom"/>
  <anchor x="280" y="435" name="center"/>
  <anchor x="280" y="869" name="top"/>
  <anchor x="538" y="869" name="topright"/>
  <outline>
    <contour>
      <point x="368" y="-12" type="curve" smooth="yes"/>
      <point x="461" y="-12"/>
      <point x="514" y="17"/>
      <point x="523" y="22" type="curve"/>
      <point x="505" y="133" type="line"/>
      <point x="494" y="129"/>
      <point x="454" y="108"/>
      <point x="399" y="108" type="curve" smooth="yes"/>
      <point x="356" y="108"/>
      <point x="324" y="128"/>
      <point x="324" y="199" type="curve" smooth="yes"/>
      <point x="324" y="771" type="line"/>
      <point x="40" y="771" type="line"/>
      <point x="40" y="656" type="line"/>
      <point x="186" y="656" type="line"/>
      <point x="186" y="209" type="line" smooth="yes"/>
      <point x="186" y="66"/>
      <point x="242" y="-12"/>
    </contour>
  </outline>
</glyph>
<glyph name="m" format="2">
  <advance width="560"/>
  <unicode hex="006D"/>
  <anchor x="280" y="0" name="bottom"/>
  <anchor x="280" y="582" name="top"/>
  <outline>
    <contour>
      <point x="32" y="0" type="line"/>
      <point x="144" y="0" type="line"/>
      <point x="144" y="413" type="line"/>
      <point x="156" y="417"/>
      <point x="170" y="418"/>
      <point x="179" y="418" type="curve" smooth="yes"/>
      <point x="211" y="418"/>
      <point x="224" y="392"/>
      <point x="224" y="321" type="curve" smooth="yes"/>
      <point x="224" y="200" type="line"/>
      <point x="336" y="200" type="line"/>
      <point x="336" y="306" type="line" smooth="yes"/>
      <point x="336" y="347"/>
      <point x="333" y="382"/>
      <point x="328" y="410" type="curve"/>
      <point x="339" y="416"/>
      <point x="356" y="418"/>
      <point x="370" y="418" type="curve" smooth="yes"/>
      <point x="394" y="418"/>
      <point x="416" y="404"/>
      <point x="416" y="321" type="curve" smooth="yes"/>
      <point x="416" y="0" type="line"/>
      <point x="528" y="0" type="line"/>
      <point x="528" y="315" type="line" smooth="yes"/>
      <point x="528" y="460"/>
      <point x="502" y="532"/>
      <point x="384" y="532" type="curve" smooth="yes"/>
      <point x="347" y="532"/>
      <point x="310" y="516"/>
      <point x="286" y="501" type="curve"/>
      <point x="263" y="523"/>
      <point x="233" y="532"/>
      <point x="194" y="532" type="curve" smooth="yes"/>
      <point x="151" y="532"/>
      <point x="91" y="523"/>
      <point x="32" y="506" type="curve"/>
    </contour>
  </outline>
</glyph>
<glyph name="n" format="2">
  <advance width="560"/>
  <unicode hex="006E"/>
  <anchor x="280" y="0" name="bottom"/>
  <anchor x="280" y="582" name="top"/>
  <outline>
    <contour>
      <point x="71" y="0" type="line"/>
      <point x="208" y="0" type="line"/>
      <point x="208" y="413" type="line"/>
      <point x="231" y="416"/>
      <point x="251" y="418"/>
      <point x="271" y="418" type="curve" smooth="yes"/>
      <point x="339" y="418"/>
      <point x="356" y="377"/>
      <point x="356" y="279" type="curve" smooth="yes"/>
      <point x="356" y="0" type="line"/>
      <point x="494" y="0" type="line"/>
      <point x="494" y="297" type="line" smooth="yes"/>
      <point x="494" y="440"/>
      <point x="448" y="538"/>
      <point x="280" y="538" type="curve" smooth="yes"/>
      <point x="196" y="538"/>
      <point x="120" y="523"/>
      <point x="71" y="510" type="curve"/>
    </contour>
  </outline>
</glyph>
<glyph name="o" format="2">
  <advance width="560"/>
  <unicode hex="006F"/>
  <anchor x="280" y="0" name="bottom"/>
  <anchor x="280" y="291" name="center"/>
  <anchor x="504" y="11" name="ogonek"/>
  <anchor x="280" y="582" name="top"/>
  <anchor x="538" y="582" name="topright"/>
  <outline>
    <contour>
      <point x="281" y="-15" type="curve" smooth="yes"/>
      <point x="430" y="-15"/>
      <point x="529" y="99"/>
      <point x="529" y="264" type="curve" smooth="yes"/>
      <point x="529" y="430"/>
      <point x="428" y="540"/>
      <point x="281" y="540" type="curve" smooth="yes"/>
      <point x="137" y="540"/>
      <point x="32" y="430"/>
      <point x="32" y="264" type="curve" smooth="yes"/>
      <point x="32" y="99"/>
      <point x="133" y="-15"/>
    </contour>
    <contour>
      <point x="279" y="105" type="curve" smooth="yes"/>
      <point x="205" y="105"/>
      <point x="172" y="169"/>
      <point x="172" y="263" type="curve" smooth="yes"/>
      <point x="172" y="357"/>
      <point x="211" y="420"/>
      <point x="281" y="420" type="curve" smooth="yes"/>
      <point x="355" y="420"/>
      <point x="388" y="357"/>
      <point x="388" y="263" type="curve" smooth="yes"/>
      <point x="388" y="169"/>
      <point x="351" y="105"/>
    </contour>
  </outline>
</glyph>
<glyph name="p" format="2">
  <advance width="500"/>
  <unicode hex="0070"/>
  <anchor x="250" y="0" name="bottom"/>
  <anchor x="250" y="520" name="top"/>
  <outline>
    <contour>
      <point x="63" y="-165" type="line"/>
      <point x="186" y="-165" type="line"/>
      <point x="186" y="12" type="line"/>
      <point x="221" y="-4"/>
      <point x="252" y="-11"/>
      <point x="283" y="-11" type="curve" smooth="yes"/>
      <point x="406" y="-11"/>
      <point x="469" y="90"/>
      <point x="469" y="235" type="curve" smooth="yes"/>
      <point x="469" y="385"/>
      <point x="389" y="480"/>
      <point x="244" y="480" type="curve" smooth="yes"/>
      <point x="181" y="480"/>
      <point x="108" y="469"/>
      <point x="63" y="455" type="curve"/>
    </contour>
    <contour>
      <point x="258" y="95" type="curve" smooth="yes"/>
      <point x="231" y="95"/>
      <point x="202" y="103"/>
      <point x="186" y="113" type="curve"/>
      <point x="186" y="371" type="line"/>
      <point x="200" y="372"/>
      <point x="224" y="375"/>
      <point x="243" y="375" type="curve" smooth="yes"/>
      <point x="311" y="375"/>
      <point x="344" y="315"/>
      <point x="344" y="231" type="curve" smooth="yes"/>
      <point x="344" y="145"/>
      <point x="316" y="95"/>
    </contour>
  </outline>
</glyph>
<glyph name="q" format="2">
  <advance width="560"/>
  <unicode hex="0071"/>
  <anchor x="280" y="0" name="bottom"/>
  <anchor x="280" y="582" name="top"/>
  <outline>
    <contour>
      <point x="353" y="-185" type="line"/>
      <point x="491" y="-185" type="line"/>
      <point x="491" y="510" type="line"/>
      <point x="442" y="525"/>
      <point x="357" y="538"/>
      <point x="288" y="538" type="curve" smooth="yes"/>
      <point x="125" y="538"/>
      <point x="35" y="426"/>
      <point x="35" y="263" type="curve" smooth="yes"/>
      <point x="35" y="95"/>
      <point x="106" y="-12"/>
      <point x="244" y="-12" type="curve" smooth="yes"/>
      <point x="278" y="-12"/>
      <point x="319" y="-1"/>
      <point x="353" y="15" type="curve"/>
    </contour>
    <contour>
      <point x="272" y="106" type="curve" smooth="yes"/>
      <point x="207" y="106"/>
      <point x="175" y="162"/>
      <point x="175" y="259" type="curve" smooth="yes"/>
      <point x="175" y="353"/>
      <point x="213" y="420"/>
      <point x="289" y="420" type="curve" smooth="yes"/>
      <point x="314" y="420"/>
      <point x="339" y="417"/>
      <point x="353" y="416" type="curve"/>
      <point x="353" y="127" type="line"/>
      <point x="333" y="115"/>
      <point x="304" y="106"/>
    </contour>
  </outline>
</glyph>
<glyph name="r" format="2">
  <advance width="560"/>
  <unicode hex="0072"/>
  <anchor x="280" y="0" name="bottom"/>
  <anchor x="280" y="582" name="top"/>
  <outline>
    <contour>
      <point x="100" y="0" type="line"/>
      <point x="239" y="0" type="line"/>
      <point x="239" y="391" type="line"/>
      <point x="277" y="401"/>
      <point x="314" y="404"/>
      <point x="353" y="404" type="curve" smooth="yes"/>
      <point x="386" y="404"/>
      <point x="454" y="396"/>
      <point x="489" y="386" type="curve"/>
      <point x="514" y="514" type="line"/>
      <point x="464" y="531"/>
      <point x="379" y="536"/>
      <point x="347" y="536" type="curve" smooth="yes"/>
      <point x="244" y="536"/>
      <point x="172" y="519"/>
      <point x="100" y="492" type="curve"/>
    </contour>
  </outline>
</glyph>
<glyph name="s" format="2">
  <advance width="560"/>
  <unicode hex="0073"/>
  <anchor x="280" y="0" name="bottom"/>
  <anchor x="280" y="582" name="top"/>
  <outline>
    <contour>
      <point x="254" y="-12" type="curve" smooth="yes"/>
      <point x="433" y="-12"/>
      <point x="495" y="58"/>
      <point x="495" y="146" type="curve" smooth="yes"/>
      <point x="495" y="258"/>
      <point x="395" y="289"/>
      <point x="314" y="316" type="curve" smooth="yes"/>
      <point x="258" y="335"/>
      <point x="211" y="351"/>
      <point x="211" y="384" type="curve" smooth="yes"/>
      <point x="211" y="404"/>
      <point x="230" y="424"/>
      <point x="300" y="424" type="curve" smooth="yes"/>
      <point x="366" y="424"/>
      <point x="426" y="401"/>
      <point x="450" y="393" type="curve"/>
      <point x="472" y="510" type="line"/>
      <point x="428" y="529"/>
      <point x="367" y="540"/>
      <point x="299" y="540" type="curve" smooth="yes"/>
      <point x="141" y="540"/>
      <point x="74" y="465"/>
      <point x="74" y="375" type="curve" smooth="yes"/>
      <point x="74" y="265"/>
      <point x="172" y="235"/>
      <point x="252" y="211" type="curve" smooth="yes"/>
      <point x="310" y="192"/>
      <point x="360" y="180"/>
      <point x="360" y="141" type="curve" smooth="yes"/>
      <point x="360" y="112"/>
      <point x="323" y="104"/>
      <point x="255" y="104" type="curve" smooth="yes"/>
      <point x="195" y="104"/>
      <point x="133" y="127"/>
      <point x="82" y="147" type="curve"/>
      <point x="60" y="31" type="line"/>
      <point x="99" y="15"/>
      <point x="164" y="-12"/>
    </contour>
  </outline>
</glyph>
<glyph name="t" format="2">
  <advance width="500"/>
  <unicode hex="0074"/>
  <anchor x="250" y="0" name="bottom"/>
  <anchor x="250" y="260" name="center"/>
  <anchor x="250" y="520" name="top"/>
  <anchor x="480" y="776" name="topright"/>
  <outline>
    <contour>
      <point x="322" y="-11" type="curve" smooth="yes"/>
      <point x="371" y="-11"/>
      <point x="427" y="-4"/>
      <point x="472" y="15" type="curve"/>
      <point x="455" y="121" type="line"/>
      <point x="409" y="100"/>
      <point x="382" y="96"/>
      <point x="336" y="96" type="curve" smooth="yes"/>
      <point x="294" y="96"/>
      <point x="266" y="108"/>
      <point x="266" y="178" type="curve" smooth="yes"/>
      <point x="266" y="368" type="line"/>
      <point x="463" y="368" type="line"/>
      <point x="463" y="470" type="line"/>
      <point x="266" y="470" type="line"/>
      <point x="266" y="608" type="line"/>
      <point x="143" y="588" type="line"/>
      <point x="143" y="470" type="line"/>
      <point x="36" y="470" type="line"/>
      <point x="36" y="368" type="line"/>
      <point x="143" y="368" type="line"/>
      <point x="143" y="175" type="line"/>
      <point x="143" y="17"/>
      <point x="208" y="-11"/>
    </contour>
  </outline>
</glyph>
<glyph name="u" format="2">
  <advance width="560"/>
  <unicode hex="0075"/>
  <anchor x="280" y="0" name="bottom"/>
  <anchor x="504" y="11" name="ogonek"/>
  <anchor x="280" y="582" name="top"/>
  <anchor x="538" y="582" name="topright"/>
  <outline>
    <contour>
      <point x="280" y="-12" type="curve" smooth="yes"/>
      <point x="364" y="-12"/>
      <point x="440" y="4"/>
      <point x="491" y="18" type="curve"/>
      <point x="491" y="526" type="line"/>
      <point x="352" y="526" type="line"/>
      <point x="352" y="113" type="line"/>
      <point x="333" y="110"/>
      <point x="308" y="108"/>
      <point x="289" y="108" type="curve" smooth="yes"/>
      <point x="222" y="108"/>
      <point x="204" y="155"/>
      <point x="204" y="251" type="curve" smooth="yes"/>
      <point x="204" y="526" type="line"/>
      <point x="66" y="526" type="line"/>
      <point x="66" y="233" type="line" smooth="yes"/>
      <point x="66" y="90"/>
      <point x="108" y="-12"/>
    </contour>
  </outline>
</glyph>
<glyph name="v" format="2">
  <advance width="560"/>
  <unicode hex="0076"/>
  <anchor x="280" y="0" name="bottom"/>
  <anchor x="280" y="582" name="top"/>
  <outline>
    <contour>
      <point x="217" y="0" type="curve"/>
      <point x="333" y="0" type="line"/>
      <point x="400" y="132"/>
      <point x="482" y="316"/>
      <point x="544" y="526" type="curve"/>
      <point x="404" y="526" type="line"/>
      <point x="376" y="413"/>
      <point x="315" y="261"/>
      <point x="277" y="160" type="curve"/>
      <point x="239" y="261"/>
      <point x="187" y="413"/>
      <point x="160" y="526" type="curve"/>
      <point x="16" y="526" type="line"/>
      <point x="78" y="316"/>
      <point x="150" y="132"/>
    </contour>
  </outline>
</glyph>
<glyph name="w" format="2">
  <advance width="560"/>
  <unicode hex="0077"/>
  <anchor x="280" y="0" name="bottom"/>
  <anchor x="280" y="582" name="top"/>
  <outline>
    <contour>
      <point x="92" y="0" type="curve"/>
      <point x="196" y="0" type="line"/>
      <point x="234" y="96"/>
      <point x="249" y="148"/>
      <point x="279" y="243" type="curve"/>
      <point x="306" y="147"/>
      <point x="327" y="94"/>
      <point x="361" y="0" type="curve"/>
      <point x="465" y="0" type="line"/>
      <point x="501" y="134"/>
      <point x="532" y="323"/>
      <point x="548" y="526" type="curve"/>
      <point x="430" y="526" type="line"/>
      <point x="426" y="392"/>
      <point x="421" y="282"/>
      <point x="403" y="144" type="curve"/>
      <point x="368" y="259"/>
      <point x="352" y="335"/>
      <point x="333" y="420" type="curve"/>
      <point x="233" y="420" type="line"/>
      <point x="212" y="334"/>
      <point x="197" y="259"/>
      <point x="158" y="144" type="curve"/>
      <point x="140" y="276"/>
      <point x="136" y="398"/>
      <point x="130" y="526" type="curve"/>
      <point x="12" y="526" type="line"/>
      <point x="29" y="325"/>
      <point x="56" y="131"/>
    </contour>
  </outline>
</glyph>
<glyph name="x" format="2">
  <advance width="560"/>
  <unicode hex="0078"/>
  <anchor x="280" y="0" name="bottom"/>
  <anchor x="280" y="582" name="top"/>
  <outline>
    <contour>
      <point x="22" y="0" type="curve"/>
      <point x="162" y="0" type="line"/>
      <point x="200" y="71"/>
      <point x="233" y="123"/>
      <point x="278" y="183" type="curve"/>
      <point x="314" y="136"/>
      <point x="355" y="76"/>
      <point x="395" y="0" type="curve"/>
      <point x="539" y="0" type="line"/>
      <point x="504" y="71"/>
      <point x="432" y="188"/>
      <point x="362" y="273" type="curve"/>
      <point x="532" y="526" type="line"/>
      <point x="392" y="526" type="line"/>
      <point x="284" y="362" type="line"/>
      <point x="168" y="526" type="line"/>
      <point x="24" y="526" type="line"/>
      <point x="208" y="271" type="line"/>
      <point x="142" y="188"/>
      <point x="66" y="83"/>
    </contour>
  </outline>
</glyph>
<glyph name="y" format="2">
  <advance width="500"/>
  <unicode hex="0079"/>
  <anchor x="250" y="0" name="bottom"/>
  <anchor x="250" y="520" name="top"/>
  <outline>
    <contour>
      <point x="119" y="-168" type="curve" smooth="yes"/>
      <point x="217" y="-168"/>
      <point x="262" y="-121"/>
      <point x="312" y="-15" type="curve" smooth="yes"/>
      <point x="380" y="132"/>
      <point x="422" y="294"/>
      <point x="472" y="470" type="curve"/>
      <point x="346" y="470" type="line"/>
      <point x="324" y="368"/>
      <point x="295" y="243"/>
      <point x="267" y="149" type="curve"/>
      <point x="228" y="242"/>
      <point x="188" y="371"/>
      <point x="165" y="470" type="curve"/>
      <point x="37" y="470" type="line"/>
      <point x="85" y="289"/>
      <point x="147" y="134"/>
      <point x="205" y="18" type="curve"/>
      <point x="188" y="-26"/>
      <point x="160" y="-63"/>
      <point x="112" y="-63" type="curve" smooth="yes"/>
      <point x="88" y="-63"/>
      <point x="69" y="-59"/>
      <point x="43" y="-47" type="curve"/>
      <point x="20" y="-150" type="line"/>
      <point x="42" y="-160"/>
      <point x="78" y="-168"/>
    </contour>
  </outline>
</glyph>
<glyph name="z" format="2">
  <advance width="560"/>
  <unicode hex="007A"/>
  <anchor x="280" y="0" name="bottom"/>
  <anchor x="280" y="291" name="center"/>
  <anchor x="280" y="582" name="top"/>
  <outline>
    <contour>
      <point x="75" y="0" type="line"/>
      <point x="488" y="0" type="line"/>
      <point x="488" y="114" type="line"/>
      <point x="240" y="114" type="line"/>
      <point x="310" y="223"/>
      <point x="435" y="379"/>
      <point x="477" y="426" type="curve"/>
      <point x="477" y="526" type="line"/>
      <point x="86" y="526" type="line"/>
      <point x="86" y="412" type="line"/>
      <point x="304" y="412" type="line"/>
      <point x="240" y="328"/>
      <point x="144" y="197"/>
      <point x="75" y="84" type="curve"/>
    </contour>
  </outline>
</glyph>
<glyph name="braceleft" format="2">
  <advance width="560"/>
  <unicode hex="007B"/>
  <outline>
    <contour>
      <point x="373" y="-185" type="curve" smooth="yes"/>
      <point x="489" y="-185" type="line"/>
      <point x="489" y="-77" type="line"/>
      <point x="385" y="-77" type="line" smooth="yes"/>
      <point x="337" y="-77"/>
      <point x="323" y="-50"/>
      <point x="323" y="12" type="curve" smooth="yes"/>
      <point x="323" y="139" type="line" smooth="yes"/>
      <point x="323" y="234"/>
      <point x="289" y="283"/>
      <point x="209" y="298" type="curve"/>
      <point x="289" y="316"/>
      <point x="323" y="364"/>
      <point x="323" y="459" type="curve" smooth="yes"/>
      <point x="323" y="586" type="line" smooth="yes"/>
      <point x="323" y="650"/>
      <point x="337" y="675"/>
      <point x="385" y="675" type="curve" smooth="yes"/>
      <point x="489" y="675" type="line"/>
      <point x="489" y="783" type="line"/>
      <point x="373" y="783" type="line" smooth="yes"/>
      <point x="239" y="783"/>
      <point x="195" y="724"/>
      <point x="195" y="613" type="curve" smooth="yes"/>
      <point x="195" y="447" type="line" smooth="yes"/>
      <point x="195" y="386"/>
      <point x="177" y="353"/>
      <point x="131" y="353" type="curve" smooth="yes"/>
      <point x="71" y="353" type="line"/>
      <point x="71" y="245" type="line"/>
      <point x="131" y="245" type="line" smooth="yes"/>
      <point x="177" y="245"/>
      <point x="195" y="212"/>
      <point x="195" y="150" type="curve" smooth="yes"/>
      <point x="195" y="-15" type="line" smooth="yes"/>
      <point x="195" y="-125"/>
      <point x="239" y="-185"/>
    </contour>
  </outline>
</glyph>
<glyph name="braceright" format="2">
  <advance width="560"/>
  <unicode hex="007D"/>
  <outline>
    <contour>
      <point x="71" y="-185" type="line"/>
      <point x="186" y="-185" type="line" smooth="yes"/>
      <point x="321" y="-185"/>
      <point x="364" y="-125"/>
      <point x="364" y="-15" type="curve" smooth="yes"/>
      <point x="364" y="151" type="line" smooth="yes"/>
      <point x="364" y="212"/>
      <point x="382" y="245"/>
      <point x="428" y="245" type="curve" smooth="yes"/>
      <point x="489" y="245" type="line"/>
      <point x="489" y="353" type="line"/>
      <point x="428" y="353" type="line" smooth="yes"/>
      <point x="382" y="353"/>
      <point x="364" y="386"/>
      <point x="364" y="448" type="curve" smooth="yes"/>
      <point x="364" y="613" type="line" smooth="yes"/>
      <point x="364" y="724"/>
      <point x="321" y="783"/>
      <point x="186" y="783" type="curve" smooth="yes"/>
      <point x="71" y="783" type="line"/>
      <point x="71" y="675" type="line"/>
      <point x="174" y="675" type="line" smooth="yes"/>
      <point x="222" y="675"/>
      <point x="236" y="648"/>
      <point x="236" y="586" type="curve" smooth="yes"/>
      <point x="236" y="459" type="line" smooth="yes"/>
      <point x="236" y="364"/>
      <point x="270" y="315"/>
      <point x="351" y="300" type="curve"/>
      <point x="270" y="282"/>
      <point x="236" y="234"/>
      <point x="236" y="139" type="curve" smooth="yes"/>
      <point x="236" y="12" type="line" smooth="yes"/>
      <point x="236" y="-52"/>
      <point x="222" y="-77"/>
      <point x="174" y="-77" type="curve" smooth="yes"/>
      <point x="71" y="-77" type="line"/>
    </contour>
  </outline>
</glyph>
<glyph name="asciitilde" format="2">
  <advance width="560"/>
  <unicode hex="007E"/>
  <outline>
    <contour>
      <point x="386" y="192" type="curve" smooth="yes"/>
      <point x="491" y="192"/>
      <point x="531" y="295"/>
      <point x="545" y="368" type="curve"/>
      <point x="444" y="396" type="line"/>
      <point x="426" y="330"/>
      <point x="404" y="323"/>
      <point x="381" y="323" type="curve" smooth="yes"/>
      <point x="352" y="323"/>
      <point x="323" y="340"/>
      <point x="291" y="360" type="curve" smooth="yes"/>
      <point x="258" y="379"/>
      <point x="223" y="399"/>
      <point x="183" y="399" type="curve" smooth="yes"/>
      <point x="78" y="399"/>
      <point x="37" y="297"/>
      <point x="24" y="223" type="curve"/>
      <point x="125" y="195" type="line"/>
      <point x="142" y="261"/>
      <point x="164" y="268"/>
      <point x="187" y="268" type="curve" smooth="yes"/>
      <point x="215" y="268"/>
      <point x="243" y="251"/>
      <point x="273" y="233" type="curve" smooth="yes"/>
      <point x="308" y="213"/>
      <point x="345" y="192"/>
    </contour>
  </outline>
</glyph>
<glyph name="exclamdown" format="2">
  <advance width="560"/>
  <unicode hex="00A1"/>
  <outline>
    <contour>
      <point x="200" y="-185" type="line"/>
      <point x="360" y="-185" type="line"/>
      <point x="360" y="-1" type="line" smooth="yes"/>
      <point x="360" y="106"/>
      <point x="349" y="161"/>
      <point x="336" y="255" type="curve"/>
      <point x="222" y="255" type="line"/>
      <point x="209" y="161"/>
      <point x="200" y="108"/>
      <point x="200" y="-1" type="curve" smooth="yes"/>
    </contour>
    <contour>
      <point x="280" y="337" type="curve" smooth="yes"/>
      <point x="328" y="337"/>
      <point x="373" y="371"/>
      <point x="373" y="429" type="curve" smooth="yes"/>
      <point x="373" y="487"/>
      <point x="328" y="521"/>
      <point x="280" y="521" type="curve" smooth="yes"/>
      <point x="232" y="521"/>
      <point x="187" y="487"/>
      <point x="187" y="429" type="curve" smooth="yes"/>
      <point x="187" y="371"/>
      <point x="232" y="337"/>
    </contour>
  </outline>
</glyph>
<glyph name="cent" format="2">
  <advance width="560"/>
  <unicode hex="00A2"/>
  <outline>
    <contour>
      <point x="259" y="-109" type="line"/>
      <point x="398" y="-109" type="line"/>
      <point x="398" y="31" type="line"/>
      <point x="444" y="34"/>
      <point x="482" y="43"/>
      <point x="510" y="54" type="curve"/>
      <point x="491" y="172" type="line"/>
      <point x="454" y="161"/>
      <point x="405" y="155"/>
      <point x="363" y="155" type="curve" smooth="yes"/>
      <point x="240" y="155"/>
      <point x="193" y="205"/>
      <point x="193" y="293" type="curve" smooth="yes"/>
      <point x="193" y="384"/>
      <point x="233" y="432"/>
      <point x="357" y="432" type="curve" smooth="yes"/>
      <point x="411" y="432"/>
      <point x="444" y="422"/>
      <point x="472" y="412" type="curve"/>
      <point x="501" y="529" type="line"/>
      <point x="466" y="542"/>
      <point x="433" y="551"/>
      <point x="398" y="554" type="curve"/>
      <point x="398" y="692" type="line"/>
      <point x="259" y="692" type="line"/>
      <point x="259" y="549" type="line"/>
      <point x="116" y="520"/>
      <point x="52" y="420"/>
      <point x="52" y="293" type="curve" smooth="yes"/>
      <point x="52" y="167"/>
      <point x="114" y="65"/>
      <point x="259" y="37" type="curve"/>
    </contour>
  </outline>
</glyph>
<glyph name="sterling" format="2">
  <advance width="560"/>
  <unicode hex="00A3"/>
  <outline>
    <contour>
      <point x="97" y="0" type="curve"/>
      <point x="510" y="0" type="line"/>
      <point x="510" y="114" type="line"/>
      <point x="249" y="114" type="line"/>
      <point x="256" y="158"/>
      <point x="261" y="228"/>
      <point x="262" y="276" type="curve"/>
      <point x="262" y="276" type="line"/>
      <point x="428" y="276" type="line"/>
      <point x="428" y="389" type="line"/>
      <point x="262" y="389" type="line"/>
      <point x="262" y="467" type="line"/>
      <point x="262" y="566"/>
      <point x="306" y="589"/>
      <point x="370" y="589" type="curve"/>
      <point x="408" y="588"/>
      <point x="431" y="582"/>
      <point x="463" y="567" type="curve"/>
      <point x="500" y="676" type="line"/>
      <point x="455" y="696"/>
      <point x="409" y="707"/>
      <point x="356" y="707" type="curve" smooth="yes"/>
      <point x="217" y="707"/>
      <point x="129" y="646"/>
      <point x="129" y="447" type="curve" smooth="yes"/>
      <point x="129" y="389" type="line"/>
      <point x="43" y="389" type="line"/>
      <point x="43" y="276" type="line"/>
      <point x="129" y="276" type="line"/>
      <point x="129" y="276" type="line"/>
      <point x="127" y="199"/>
      <point x="121" y="108"/>
    </contour>
  </outline>
</glyph>
<glyph name="currency" format="2">
  <advance width="500"/>
  <unicode hex="00A4"/>
  <outline>
    <contour>
      <point x="103" y="86" type="line"/>
      <point x="169" y="150" type="line"/>
      <point x="195" y="138"/>
      <point x="221" y="134"/>
      <point x="251" y="134" type="curve" smooth="yes"/>
      <point x="282" y="134"/>
      <point x="307" y="138"/>
      <point x="332" y="150" type="curve"/>
      <point x="398" y="86" type="line"/>
      <point x="482" y="168" type="line"/>
      <point x="418" y="230" type="line"/>
      <point x="430" y="253"/>
      <point x="437" y="280"/>
      <point x="437" y="310" type="curve" smooth="yes"/>
      <point x="437" y="340"/>
      <point x="430" y="367"/>
      <point x="418" y="390" type="curve"/>
      <point x="482" y="452" type="line"/>
      <point x="399" y="533" type="line"/>
      <point x="333" y="470" type="line"/>
      <point x="307" y="481"/>
      <point x="280" y="486"/>
      <point x="251" y="486" type="curve" smooth="yes"/>
      <point x="220" y="486"/>
      <point x="195" y="481"/>
      <point x="170" y="470" type="curve"/>
      <point x="104" y="534" type="line"/>
      <point x="20" y="452" type="line"/>
      <point x="84" y="390" type="line"/>
      <point x="71" y="367"/>
      <point x="65" y="340"/>
      <point x="65" y="310" type="curve" smooth="yes"/>
      <point x="65" y="280"/>
      <point x="71" y="253"/>
      <point x="84" y="230" type="curve"/>
      <point x="20" y="167" type="line"/>
    </contour>
    <contour>
      <point x="251" y="232" type="curve" smooth="yes"/>
      <point x="211" y="232"/>
      <point x="178" y="259"/>
      <point x="178" y="310" type="curve" smooth="yes"/>
      <point x="178" y="361"/>
      <point x="211" y="388"/>
      <point x="251" y="388" type="curve" smooth="yes"/>
      <point x="291" y="388"/>
      <point x="324" y="361"/>
      <point x="324" y="310" type="curve" smooth="yes"/>
      <point x="324" y="259"/>
      <point x="291" y="232"/>
    </contour>
  </outline>
</glyph>
<glyph name="yen" format="2">
  <advance width="560"/>
  <unicode hex="00A5"/>
  <outline>
    <contour>
      <point x="212" y="0" type="line"/>
      <point x="351" y="0" type="line"/>
      <point x="351" y="116" type="line"/>
      <point x="502" y="116" type="line"/>
      <point x="502" y="211" type="line"/>
      <point x="351" y="211" type="line"/>
      <point x="351" y="280" type="line"/>
      <point x="502" y="280" type="line"/>
      <point x="502" y="374" type="line"/>
      <point x="396" y="374" type="line"/>
      <point x="455" y="475"/>
      <point x="514" y="606"/>
      <point x="547" y="693" type="curve"/>
      <point x="404" y="693" type="line"/>
      <point x="376" y="599"/>
      <point x="336" y="501"/>
      <point x="283" y="395" type="curve"/>
      <point x="230" y="502"/>
      <point x="194" y="598"/>
      <point x="162" y="693" type="curve"/>
      <point x="15" y="693" type="line"/>
      <point x="45" y="605"/>
      <point x="116" y="475"/>
      <point x="172" y="374" type="curve"/>
      <point x="59" y="374" type="line"/>
      <point x="59" y="280" type="line"/>
      <point x="212" y="280" type="line"/>
      <point x="212" y="211" type="line"/>
      <point x="59" y="211" type="line"/>
      <point x="59" y="116" type="line"/>
      <point x="212" y="116" type="line"/>
    </contour>
  </outline>
</glyph>
<glyph name="brokenbar" format="2">
  <advance width="560"/>
  <unicode hex="00A6"/>
  <outline>
    <contour>
      <point x="212" y="386" type="line"/>
      <point x="351" y="386" type="line"/>
      <point x="351" y="783" type="line"/>
      <point x="212" y="783" type="line"/>
    </contour>
    <contour>
      <point x="212" y="-185" type="line"/>
      <point x="351" y="-185" type="line"/>
      <point x="351" y="212" type="line"/>
      <point x="212" y="212" type="line"/>
    </contour>
  </outline>
</glyph>
<glyph name="section" format="2">
  <advance width="560"/>
  <unicode hex="00A7"/>
  <outline>
    <contour>
      <point x="274" y="-110" type="curve" smooth="yes"/>
      <point x="409" y="-110"/>
      <point x="488" y="-57"/>
      <point x="488" y="54" type="curve" smooth="yes"/>
      <point x="488" y="105"/>
      <point x="469" y="136"/>
      <point x="432" y="169" type="curve"/>
      <point x="480" y="214"/>
      <point x="503" y="252"/>
      <point x="503" y="308" type="curve" smooth="yes"/>
      <point x="503" y="393"/>
      <point x="440" y="452"/>
      <point x="318" y="488" type="curve" smooth="yes"/>
      <point x="256" y="506"/>
      <point x="239" y="522"/>
      <point x="239" y="549" type="curve" smooth="yes"/>
      <point x="239" y="571"/>
      <point x="248" y="592"/>
      <point x="309" y="592" type="curve" smooth="yes"/>
      <point x="368" y="592"/>
      <point x="412" y="580"/>
      <point x="454" y="563" type="curve"/>
      <point x="491" y="673" type="line"/>
      <point x="438" y="694"/>
      <point x="370" y="710"/>
      <point x="310" y="710" type="curve" smooth="yes"/>
      <point x="171" y="710"/>
      <point x="93" y="648"/>
      <point x="93" y="547" type="curve" smooth="yes"/>
      <point x="93" y="510"/>
      <point x="112" y="475"/>
      <point x="140" y="450" type="curve"/>
      <point x="84" y="396"/>
      <point x="62" y="352"/>
      <point x="62" y="298" type="curve" smooth="yes"/>
      <point x="62" y="194"/>
      <point x="147" y="152"/>
      <point x="251" y="116" type="curve" smooth="yes"/>
      <point x="317" y="95"/>
      <point x="343" y="78"/>
      <point x="343" y="55" type="curve" smooth="yes"/>
      <point x="343" y="27"/>
      <point x="316" y="8"/>
      <point x="267" y="8" type="curve" smooth="yes"/>
      <point x="195" y="8"/>
      <point x="152" y="21"/>
      <point x="92" y="45" type="curve"/>
      <point x="55" y="-65" type="line"/>
      <point x="101" y="-88"/>
      <point x="172" y="-110"/>
    </contour>
    <contour>
      <point x="336" y="205" type="curve"/>
      <point x="324" y="208"/>
      <point x="312" y="213"/>
      <point x="302" y="216" type="curve" smooth="yes"/>
      <point x="199" y="251"/>
      <point x="184" y="272"/>
      <point x="184" y="319" type="curve" smooth="yes"/>
      <point x="184" y="342"/>
      <point x="203" y="376"/>
      <point x="230" y="398" type="curve"/>
      <point x="243" y="393"/>
      <point x="255" y="389"/>
      <point x="267" y="384" type="curve" smooth="yes"/>
      <point x="361" y="348"/>
      <point x="381" y="332"/>
      <point x="381" y="283" type="curve" smooth="yes"/>
      <point x="381" y="261"/>
      <point x="363" y="227"/>
    </contour>
  </outline>
</glyph>
<glyph name="dieresis" format="2">
  <advance width="560"/>
  <unicode hex="00A8"/>
  <outline>
    <contour>
      <point x="393" y="603" type="curve" smooth="yes"/>
      <point x="435" y="603"/>
      <point x="470" y="631"/>
      <point x="470" y="678" type="curve" smooth="yes"/>
      <point x="470" y="725"/>
      <point x="435" y="754"/>
      <point x="393" y="754" type="curve" smooth="yes"/>
      <point x="352" y="754"/>
      <point x="316" y="725"/>
      <point x="316" y="678" type="curve" smooth="yes"/>
      <point x="316" y="631"/>
      <point x="352" y="603"/>
    </contour>
    <contour>
      <point x="170" y="603" type="curve" smooth="yes"/>
      <point x="211" y="603"/>
      <point x="248" y="631"/>
      <point x="248" y="678" type="curve" smooth="yes"/>
      <point x="248" y="725"/>
      <point x="211" y="754"/>
      <point x="170" y="754" type="curve" smooth="yes"/>
      <point x="129" y="754"/>
      <point x="93" y="725"/>
      <point x="93" y="678" type="curve" smooth="yes"/>
      <point x="93" y="631"/>
      <point x="129" y="603"/>
    </contour>
  </outline>
</glyph>
<glyph name="copyright" format="2">
  <advance width="560"/>
  <unicode hex="00A9"/>
  <outline>
    <contour>
      <point x="281" y="-15" type="curve" smooth="yes"/>
      <point x="411" y="-15"/>
      <point x="534" y="77"/>
      <point x="534" y="259" type="curve" smooth="yes"/>
      <point x="534" y="441"/>
      <point x="411" y="532"/>
      <point x="281" y="532" type="curve" smooth="yes"/>
      <point x="151" y="532"/>
      <point x="28" y="441"/>
      <point x="28" y="259" type="curve" smooth="yes"/>
      <point x="28" y="77"/>
      <point x="151" y="-15"/>
    </contour>
    <contour>
      <point x="287" y="116" type="curve" smooth="yes"/>
      <point x="311" y="116"/>
      <point x="342" y="122"/>
      <point x="366" y="134" type="curve"/>
      <point x="347" y="194" type="line"/>
      <point x="332" y="187"/>
      <point x="312" y="184"/>
      <point x="299" y="184" type="curve" smooth="yes"/>
      <point x="254" y="184"/>
      <point x="228" y="214"/>
      <point x="228" y="261" type="curve" smooth="yes"/>
      <point x="228" y="298"/>
      <point x="248" y="334"/>
      <point x="295" y="334" type="curve" smooth="yes"/>
      <point x="308" y="334"/>
      <point x="325" y="332"/>
      <point x="342" y="325" type="curve"/>
      <point x="364" y="385" type="line"/>
      <point x="338" y="396"/>
      <point x="311" y="400"/>
      <point x="288" y="400" type="curve" smooth="yes"/>
      <point x="199" y="400"/>
      <point x="159" y="328"/>
      <point x="159" y="256" type="curve" smooth="yes"/>
      <point x="159" y="186"/>
      <point x="200" y="116"/>
    </contour>
    <contour>
      <point x="280" y="57" type="curve" smooth="yes"/>
      <point x="192" y="57"/>
      <point x="103" y="128"/>
      <point x="103" y="260" type="curve" smooth="yes"/>
      <point x="103" y="389"/>
      <point x="192" y="461"/>
      <point x="280" y="461" type="curve" smooth="yes"/>
      <point x="370" y="461"/>
      <point x="457" y="389"/>
      <point x="457" y="260" type="curve" smooth="yes"/>
      <point x="457" y="128"/>
      <point x="368" y="57"/>
    </contour>
  </outline>
</glyph>
<glyph name="ordfeminine" format="2">
  <advance width="560"/>
  <unicode hex="00AA"/>
  <outline>
    <contour>
      <point x="286" y="308" type="curve" smooth="yes"/>
      <point x="363" y="308"/>
      <point x="423" y="321"/>
      <point x="454" y="328" type="curve"/>
      <point x="454" y="556" type="line" smooth="yes"/>
      <point x="454" y="650"/>
      <point x="412" y="708"/>
      <point x="284" y="708" type="curve" smooth="yes"/>
      <point x="235" y="708"/>
      <point x="178" y="698"/>
      <point x="153" y="690" type="curve"/>
      <point x="168" y="601" type="line"/>
      <point x="195" y="610"/>
      <point x="235" y="616"/>
      <point x="272" y="616" type="curve" smooth="yes"/>
      <point x="327" y="616"/>
      <point x="347" y="594"/>
      <point x="347" y="557" type="curve" smooth="yes"/>
      <point x="347" y="547" type="line"/>
      <point x="332" y="550"/>
      <point x="310" y="553"/>
      <point x="283" y="553" type="curve" smooth="yes"/>
      <point x="194" y="553"/>
      <point x="116" y="524"/>
      <point x="116" y="435" type="curve" smooth="yes"/>
      <point x="116" y="342"/>
      <point x="181" y="308"/>
    </contour>
    <contour>
      <point x="293" y="393" type="curve" smooth="yes"/>
      <point x="254" y="393"/>
      <point x="228" y="402"/>
      <point x="228" y="437" type="curve" smooth="yes"/>
      <point x="228" y="472"/>
      <point x="263" y="479"/>
      <point x="304" y="479" type="curve" smooth="yes"/>
      <point x="318" y="479"/>
      <point x="338" y="477"/>
      <point x="347" y="474" type="curve"/>
      <point x="347" y="396" type="line"/>
      <point x="335" y="395"/>
      <point x="314" y="393"/>
    </contour>
  </outline>
</glyph>
<glyph name="guillemetleft" format="2">
  <advance width="560"/>
  <unicode hex="00AB"/>
  <outline>
    <contour>
      <point x="211" y="52" type="line"/>
      <point x="281" y="99" type="line"/>
      <point x="176" y="286" type="line"/>
      <point x="281" y="473" type="line"/>
      <point x="208" y="517" type="line"/>
      <point x="56" y="286" type="line"/>
    </contour>
    <contour>
      <point x="433" y="52" type="line"/>
      <point x="505" y="99" type="line"/>
      <point x="401" y="286" type="line"/>
      <point x="505" y="473" type="line"/>
      <point x="431" y="517" type="line"/>
      <point x="281" y="286" type="line"/>
    </contour>
  </outline>
</glyph>
<glyph name="guillemotleft" format="2">
  <advance width="560"/>
  <unicode hex="00AB"/>
  <outline>
    <contour>
      <point x="211" y="52" type="line"/>
      <point x="281" y="99" type="line"/>
      <point x="176" y="286" type="line"/>
      <point x="281" y="473" type="line"/>
      <point x="208" y="517" type="line"/>
      <point x="56" y="286" type="line"/>
    </contour>
    <contour>
      <point x="433" y="52" type="line"/>
      <point x="505" y="99" type="line"/>
      <point x="401" y="286" type="line"/>
      <point x="505" y="473" type="line"/>
      <point x="431" y="517" type="line"/>
      <point x="281" y="286" type="line"/>
    </contour>
  </outline>
</glyph>
<glyph name="logicalnot" format="2">
  <advance width="560"/>
  <unicode hex="00AC"/>
  <outline>
    <contour>
      <point x="384" y="47" type="line"/>
      <point x="502" y="47" type="line"/>
      <point x="502" y="407" type="line"/>
      <point x="50" y="407" type="line"/>
      <point x="50" y="292" type="line"/>
      <point x="384" y="292" type="line"/>
    </contour>
  </outline>
</glyph>
<glyph name="registered" format="2">
  <advance width="560"/>
  <unicode hex="00AE"/>
  <outline>
    <contour>
      <point x="281" y="255" type="curve" smooth="yes"/>
      <point x="406" y="255"/>
      <point x="523" y="345"/>
      <point x="523" y="502" type="curve" smooth="yes"/>
      <point x="523" y="658"/>
      <point x="407" y="748"/>
      <point x="281" y="748" type="curve" smooth="yes"/>
      <point x="154" y="748"/>
      <point x="38" y="658"/>
      <point x="38" y="502" type="curve" smooth="yes"/>
      <point x="38" y="345"/>
      <point x="155" y="255"/>
    </contour>
    <contour>
      <point x="281" y="327" type="curve" smooth="yes"/>
      <point x="182" y="327"/>
      <point x="114" y="397"/>
      <point x="114" y="502" type="curve" smooth="yes"/>
      <point x="114" y="608"/>
      <point x="183" y="678"/>
      <point x="281" y="678" type="curve" smooth="yes"/>
      <point x="379" y="678"/>
      <point x="447" y="607"/>
      <point x="447" y="502" type="curve" smooth="yes"/>
      <point x="447" y="396"/>
      <point x="378" y="327"/>
    </contour>
    <contour>
      <point x="190" y="391" type="line"/>
      <point x="265" y="391" type="line"/>
      <point x="265" y="464" type="line"/>
      <point x="276" y="464" type="line"/>
      <point x="279" y="464"/>
      <point x="281" y="464"/>
      <point x="283" y="464" type="curve"/>
      <point x="295" y="443"/>
      <point x="304" y="419"/>
      <point x="314" y="391" type="curve"/>
      <point x="393" y="391" type="line"/>
      <point x="382" y="427"/>
      <point x="366" y="460"/>
      <point x="349" y="485" type="curve"/>
      <point x="369" y="498"/>
      <point x="381" y="521"/>
      <point x="381" y="546" type="curve" smooth="yes"/>
      <point x="381" y="596"/>
      <point x="340" y="627"/>
      <point x="273" y="627" type="curve" smooth="yes"/>
      <point x="253" y="627"/>
      <point x="221" y="623"/>
      <point x="190" y="615" type="curve"/>
    </contour>
    <contour>
      <point x="265" y="523" type="line"/>
      <point x="265" y="560" type="line"/>
      <point x="269" y="561"/>
      <point x="273" y="562"/>
      <point x="280" y="562" type="curve" smooth="yes"/>
      <point x="295" y="562"/>
      <point x="306" y="556"/>
      <point x="306" y="542" type="curve" smooth="yes"/>
      <point x="306" y="529"/>
      <point x="294" y="523"/>
      <point x="278" y="523" type="curve" smooth="yes"/>
    </contour>
  </outline>
</glyph>
<glyph name="macron" format="2">
  <advance width="560"/>
  <unicode hex="00AF"/>
  <outline>
    <contour>
      <point x="121" y="627" type="line"/>
      <point x="444" y="627" type="line"/>
      <point x="444" y="725" type="line"/>
      <point x="121" y="725" type="line"/>
    </contour>
  </outline>
</glyph>
<glyph name="degree" format="2">
  <advance width="560"/>
  <unicode hex="00B0"/>
  <outline>
    <contour>
      <point x="282" y="472" type="curve" smooth="yes"/>
      <point x="375" y="472"/>
      <point x="444" y="530"/>
      <point x="444" y="626" type="curve" smooth="yes"/>
      <point x="444" y="722"/>
      <point x="375" y="782"/>
      <point x="282" y="782" type="curve" smooth="yes"/>
      <point x="187" y="782"/>
      <point x="121" y="722"/>
      <point x="121" y="626" type="curve" smooth="yes"/>
      <point x="121" y="530"/>
      <point x="185" y="472"/>
    </contour>
    <contour>
      <point x="282" y="566" type="curve" smooth="yes"/>
      <point x="248" y="566"/>
      <point x="221" y="586"/>
      <point x="221" y="627" type="curve" smooth="yes"/>
      <point x="221" y="669"/>
      <point x="249" y="688"/>
      <point x="282" y="688" type="curve" smooth="yes"/>
      <point x="317" y="688"/>
      <point x="343" y="669"/>
      <point x="343" y="627" type="curve" smooth="yes"/>
      <point x="343" y="586"/>
      <point x="317" y="566"/>
    </contour>
  </outline>
</glyph>
<glyph name="plusminus" format="2">
  <advance width="560"/>
  <unicode hex="00B1"/>
  <outline>
    <contour>
      <point x="221" y="160" type="line"/>
      <point x="339" y="160" type="line"/>
      <point x="339" y="336" type="line"/>
      <point x="515" y="336" type="line"/>
      <point x="515" y="450" type="line"/>
      <point x="339" y="450" type="line"/>
      <point x="339" y="625" type="line"/>
      <point x="221" y="625" type="line"/>
      <point x="221" y="450" type="line"/>
      <point x="45" y="450" type="line"/>
      <point x="45" y="336" type="line"/>
      <point x="221" y="336" type="line"/>
    </contour>
    <contour>
      <point x="45" y="0" type="line"/>
      <point x="515" y="0" type="line"/>
      <point x="515" y="114" type="line"/>
      <point x="45" y="114" type="line"/>
    </contour>
  </outline>
</glyph>
<glyph name="twosuperior" format="2">
  <advance width="560"/>
  <unicode hex="00B2"/>
  <outline>
    <contour>
      <point x="144" y="302" type="curve"/>
      <point x="432" y="302" type="line"/>
      <point x="432" y="393" type="line"/>
      <point x="276" y="393" type="line"/>
      <point x="291" y="413"/>
      <point x="317" y="438"/>
      <point x="340" y="457" type="curve" smooth="yes"/>
      <point x="381" y="492"/>
      <point x="422" y="528"/>
      <point x="422" y="586" type="curve" smooth="yes"/>
      <point x="422" y="659"/>
      <point x="382" y="709"/>
      <point x="278" y="709" type="curve" smooth="yes"/>
      <point x="218" y="709"/>
      <point x="161" y="679"/>
      <point x="127" y="650" type="curve"/>
      <point x="178" y="572" type="line"/>
      <point x="200" y="591"/>
      <point x="234" y="609"/>
      <point x="273" y="609" type="curve" smooth="yes"/>
      <point x="296" y="609"/>
      <point x="308" y="596"/>
      <point x="308" y="576" type="curve" smooth="yes"/>
      <point x="308" y="552"/>
      <point x="284" y="532"/>
      <point x="248" y="501" type="curve" smooth="yes"/>
      <point x="172" y="437"/>
      <point x="144" y="402"/>
    </contour>
  </outline>
</glyph>
<glyph name="threesuperior" format="2">
  <advance width="500"/>
  <unicode hex="00B3"/>
  <outline>
    <contour>
      <point x="232" y="263" type="curve" smooth="yes"/>
      <point x="344" y="263"/>
      <point x="384" y="313"/>
      <point x="384" y="379" type="curve" smooth="yes"/>
      <point x="384" y="415"/>
      <point x="368" y="447"/>
      <point x="330" y="464" type="curve"/>
      <point x="357" y="486"/>
      <point x="367" y="508"/>
      <point x="367" y="533" type="curve" smooth="yes"/>
      <point x="367" y="587"/>
      <point x="337" y="633"/>
      <point x="240" y="633" type="curve" smooth="yes"/>
      <point x="197" y="633"/>
      <point x="148" y="617"/>
      <point x="119" y="598" type="curve"/>
      <point x="153" y="528" type="line"/>
      <point x="178" y="539"/>
      <point x="205" y="550"/>
      <point x="233" y="550" type="curve" smooth="yes"/>
      <point x="259" y="550"/>
      <point x="272" y="540"/>
      <point x="272" y="522" type="curve" smooth="yes"/>
      <point x="272" y="500"/>
      <point x="253" y="489"/>
      <point x="225" y="489" type="curve" smooth="yes"/>
      <point x="188" y="489" type="line"/>
      <point x="188" y="416" type="line"/>
      <point x="225" y="416" type="line" smooth="yes"/>
      <point x="267" y="416"/>
      <point x="288" y="404"/>
      <point x="288" y="380" type="curve" smooth="yes"/>
      <point x="288" y="361"/>
      <point x="273" y="346"/>
      <point x="231" y="346" type="curve" smooth="yes"/>
      <point x="198" y="346"/>
      <point x="174" y="349"/>
      <point x="134" y="366" type="curve"/>
      <point x="113" y="287" type="line"/>
      <point x="140" y="273"/>
      <point x="192" y="263"/>
    </contour>
  </outline>
</glyph>
<glyph name="acute" format="2">
  <advance width="560"/>
  <unicode hex="00B4"/>
  <outline>
    <contour>
      <point x="221" y="575" type="line"/>
      <point x="416" y="669" type="line"/>
      <point x="347" y="774" type="line"/>
      <point x="170" y="650" type="line"/>
    </contour>
  </outline>
</glyph>
<glyph name="mu" format="2">
  <advance width="560"/>
  <unicode hex="00B5"/>
  <outline>
    <contour>
      <point x="66" y="-185" type="line"/>
      <point x="204" y="-185" type="line"/>
      <point x="204" y="-92" type="line" smooth="yes"/>
      <point x="204" y="-53"/>
      <point x="200" y="-27"/>
      <point x="197" y="4" type="curve"/>
      <point x="228" y="-4"/>
      <point x="269" y="-12"/>
      <point x="292" y="-12" type="curve" smooth="yes"/>
      <point x="367" y="-12"/>
      <point x="442" y="4"/>
      <point x="491" y="18" type="curve"/>
      <point x="491" y="526" type="line"/>
      <point x="352" y="526" type="line"/>
      <point x="352" y="113" type="line"/>
      <point x="334" y="110"/>
      <point x="311" y="108"/>
      <point x="290" y="108" type="curve" smooth="yes"/>
      <point x="233" y="108"/>
      <point x="204" y="136"/>
      <point x="204" y="240" type="curve" smooth="yes"/>
      <point x="204" y="526" type="line"/>
      <point x="66" y="526" type="line"/>
    </contour>
  </outline>
</glyph>
<glyph name="paragraph" format="2">
  <advance width="560"/>
  <unicode hex="00B6"/>
  <outline>
    <contour>
      <point x="193" y="-185" type="line"/>
      <point x="307" y="-185" type="line"/>
      <point x="307" y="587" type="line"/>
      <point x="339" y="589"/>
      <point x="382" y="587"/>
      <point x="396" y="585" type="curve"/>
      <point x="396" y="-185" type="line"/>
      <point x="510" y="-185" type="line"/>
      <point x="510" y="678" type="line"/>
      <point x="454" y="692"/>
      <point x="371" y="701"/>
      <point x="300" y="701" type="curve" smooth="yes"/>
      <point x="131" y="701"/>
      <point x="21" y="622"/>
      <point x="21" y="478" type="curve" smooth="yes"/>
      <point x="21" y="348"/>
      <point x="80" y="286"/>
      <point x="193" y="260" type="curve"/>
    </contour>
  </outline>
</glyph>
<glyph name="cedilla" format="2">
  <advance width="560"/>
  <unicode hex="00B8"/>
  <outline>
    <contour>
      <point x="268" y="-190" type="curve" smooth="yes"/>
      <point x="335" y="-190"/>
      <point x="402" y="-169"/>
      <point x="402" y="-102" type="curve" smooth="yes"/>
      <point x="402" y="-75"/>
      <point x="385" y="-41"/>
      <point x="336" y="-27" type="curve"/>
      <point x="343" y="-10"/>
      <point x="351" y="4"/>
      <point x="358" y="20" type="curve"/>
      <point x="269" y="20" type="line"/>
      <point x="262" y="8"/>
      <point x="246" y="-22"/>
      <point x="239" y="-48" type="curve"/>
      <point x="261" y="-55" type="line" smooth="yes"/>
      <point x="289" y="-64"/>
      <point x="301" y="-75"/>
      <point x="301" y="-90" type="curve" smooth="yes"/>
      <point x="301" y="-109"/>
      <point x="284" y="-118"/>
      <point x="255" y="-118" type="curve" smooth="yes"/>
      <point x="232" y="-118"/>
      <point x="202" y="-110"/>
      <point x="193" y="-108" type="curve"/>
      <point x="178" y="-178" type="line"/>
      <point x="203" y="-186"/>
      <point x="235" y="-190"/>
    </contour>
  </outline>
</glyph>
<glyph name="onesuperior" format="2">
  <advance width="500"/>
  <unicode hex="00B9"/>
  <outline>
    <contour>
      <point x="138" y="270" type="line"/>
      <point x="422" y="270" type="line"/>
      <point x="422" y="351" type="line"/>
      <point x="340" y="351" type="line"/>
      <point x="340" y="626" type="line"/>
      <point x="263" y="626" type="line"/>
      <point x="228" y="598"/>
      <point x="179" y="572"/>
      <point x="129" y="552" type="curve"/>
      <point x="156" y="474" type="line"/>
      <point x="192" y="488"/>
      <point x="214" y="497"/>
      <point x="238" y="511" type="curve"/>
      <point x="238" y="351" type="line"/>
      <point x="138" y="351" type="line"/>
    </contour>
  </outline>
</glyph>
<glyph name="ordmasculine" format="2">
  <advance width="560"/>
  <unicode hex="00BA"/>
  <outline>
    <contour>
      <point x="279" y="306" type="curve" smooth="yes"/>
      <point x="394" y="306"/>
      <point x="474" y="382"/>
      <point x="474" y="506" type="curve" smooth="yes"/>
      <point x="474" y="633"/>
      <point x="394" y="709"/>
      <point x="279" y="709" type="curve" smooth="yes"/>
      <point x="164" y="709"/>
      <point x="83" y="633"/>
      <point x="83" y="506" type="curve" smooth="yes"/>
      <point x="83" y="382"/>
      <point x="164" y="306"/>
    </contour>
    <contour>
      <point x="279" y="407" type="curve" smooth="yes"/>
      <point x="227" y="407"/>
      <point x="197" y="446"/>
      <point x="197" y="506" type="curve" smooth="yes"/>
      <point x="197" y="570"/>
      <point x="228" y="609"/>
      <point x="279" y="609" type="curve" smooth="yes"/>
      <point x="332" y="609"/>
      <point x="360" y="570"/>
      <point x="360" y="506" type="curve" smooth="yes"/>
      <point x="360" y="446"/>
      <point x="332" y="407"/>
    </contour>
  </outline>
</glyph>
<glyph name="guillemotright" format="2">
  <advance width="560"/>
  <unicode hex="00BB"/>
  <outline>
    <contour>
      <point x="130" y="52" type="line"/>
      <point x="280" y="284" type="line"/>
      <point x="128" y="517" type="line"/>
      <point x="56" y="472" type="line"/>
      <point x="160" y="284" type="line"/>
      <point x="56" y="96" type="line"/>
    </contour>
    <contour>
      <point x="353" y="52" type="line"/>
      <point x="505" y="284" type="line"/>
      <point x="351" y="517" type="line"/>
      <point x="280" y="472" type="line"/>
      <point x="385" y="284" type="line"/>
      <point x="280" y="96" type="line"/>
    </contour>
  </outline>
</glyph>
<glyph name="onequarter" format="2">
  <advance width="560"/>
  <unicode hex="00BC"/>
  <outline>
    <contour>
      <point x="35" y="0" type="line"/>
      <point x="147" y="0" type="line"/>
      <point x="502" y="693" type="line"/>
      <point x="390" y="693" type="line"/>
    </contour>
    <contour>
      <point x="424" y="0" type="line"/>
      <point x="514" y="0" type="line"/>
      <point x="514" y="44" type="line"/>
      <point x="554" y="44" type="line"/>
      <point x="554" y="114" type="line"/>
      <point x="514" y="114" type="line"/>
      <point x="514" y="280" type="line"/>
      <point x="398" y="280" type="line"/>
      <point x="349" y="209"/>
      <point x="320" y="159"/>
      <point x="286" y="94" type="curve"/>
      <point x="286" y="44" type="line"/>
      <point x="424" y="44" type="line"/>
    </contour>
    <contour>
      <point x="367" y="114" type="line"/>
      <point x="382" y="144"/>
      <point x="401" y="175"/>
      <point x="424" y="208" type="curve"/>
      <point x="424" y="114" type="line"/>
    </contour>
    <contour>
      <point x="99" y="421" type="line"/>
      <point x="194" y="421" type="line"/>
      <point x="194" y="701" type="line"/>
      <point x="123" y="701" type="line"/>
      <point x="87" y="668"/>
      <point x="53" y="646"/>
      <point x="2" y="624" type="curve"/>
      <point x="24" y="558" type="line"/>
      <point x="52" y="566"/>
      <point x="69" y="573"/>
      <point x="99" y="589" type="curve"/>
    </contour>
  </outline>
</glyph>
<glyph name="onehalf" format="2">
  <advance width="560"/>
  <unicode hex="00BD"/>
  <outline>
    <contour>
      <point x="35" y="0" type="line"/>
      <point x="147" y="0" type="line"/>
      <point x="502" y="693" type="line"/>
      <point x="390" y="693" type="line"/>
    </contour>
    <contour>
      <point x="316" y="0" type="curve"/>
      <point x="550" y="0" type="line"/>
      <point x="550" y="71" type="line"/>
      <point x="428" y="71" type="line"/>
      <point x="470" y="102"/>
      <point x="544" y="119"/>
      <point x="544" y="198" type="curve" smooth="yes"/>
      <point x="544" y="261"/>
      <point x="491" y="290"/>
      <point x="432" y="290" type="curve" smooth="yes"/>
      <point x="385" y="290"/>
      <point x="338" y="272"/>
      <point x="310" y="239" type="curve"/>
      <point x="356" y="179" type="line"/>
      <point x="374" y="198"/>
      <point x="398" y="212"/>
      <point x="420" y="212" type="curve" smooth="yes"/>
      <point x="439" y="212"/>
      <point x="449" y="203"/>
      <point x="449" y="187" type="curve" smooth="yes"/>
      <point x="449" y="168"/>
      <point x="441" y="160"/>
      <point x="417" y="144" type="curve" smooth="yes"/>
      <point x="392" y="129" type="line" smooth="yes"/>
      <point x="348" y="101"/>
      <point x="314" y="77"/>
      <point x="314" y="26" type="curve" smooth="yes"/>
      <point x="314" y="18"/>
      <point x="314" y="9"/>
    </contour>
    <contour>
      <point x="99" y="421" type="line"/>
      <point x="194" y="421" type="line"/>
      <point x="194" y="701" type="line"/>
      <point x="123" y="701" type="line"/>
      <point x="87" y="668"/>
      <point x="53" y="646"/>
      <point x="2" y="624" type="curve"/>
      <point x="24" y="558" type="line"/>
      <point x="52" y="566"/>
      <point x="69" y="573"/>
      <point x="99" y="589" type="curve"/>
    </contour>
  </outline>
</glyph>
<glyph name="threequarters" format="2">
  <advance width="560"/>
  <unicode hex="00BE"/>
  <outline>
    <contour>
      <point x="55" y="0" type="line"/>
      <point x="167" y="0" type="line"/>
      <point x="522" y="693" type="line"/>
      <point x="410" y="693" type="line"/>
    </contour>
    <contour>
      <point x="424" y="0" type="line"/>
      <point x="514" y="0" type="line"/>
      <point x="514" y="44" type="line"/>
      <point x="554" y="44" type="line"/>
      <point x="554" y="114" type="line"/>
      <point x="514" y="114" type="line"/>
      <point x="514" y="280" type="line"/>
      <point x="398" y="280" type="line"/>
      <point x="349" y="209"/>
      <point x="320" y="159"/>
      <point x="286" y="94" type="curve"/>
      <point x="286" y="44" type="line"/>
      <point x="424" y="44" type="line"/>
    </contour>
    <contour>
      <point x="367" y="114" type="line"/>
      <point x="382" y="144"/>
      <point x="401" y="175"/>
      <point x="424" y="208" type="curve"/>
      <point x="424" y="114" type="line"/>
    </contour>
    <contour>
      <point x="120" y="411" type="curve" smooth="yes"/>
      <point x="199" y="411"/>
      <point x="260" y="433"/>
      <point x="260" y="501" type="curve" smooth="yes"/>
      <point x="260" y="534"/>
      <point x="244" y="557"/>
      <point x="213" y="571" type="curve"/>
      <point x="239" y="587"/>
      <point x="246" y="606"/>
      <point x="246" y="634" type="curve" smooth="yes"/>
      <point x="246" y="673"/>
      <point x="212" y="709"/>
      <point x="134" y="709" type="curve" smooth="yes"/>
      <point x="90" y="709"/>
      <point x="44" y="697"/>
      <point x="22" y="681" type="curve"/>
      <point x="47" y="620" type="line"/>
      <point x="60" y="628"/>
      <point x="95" y="640"/>
      <point x="121" y="640" type="curve" smooth="yes"/>
      <point x="137" y="640"/>
      <point x="150" y="634"/>
      <point x="150" y="620" type="curve" smooth="yes"/>
      <point x="150" y="606"/>
      <point x="138" y="598"/>
      <point x="100" y="598" type="curve" smooth="yes"/>
      <point x="75" y="598" type="line"/>
      <point x="75" y="534" type="line"/>
      <point x="97" y="534" type="line" smooth="yes"/>
      <point x="141" y="534"/>
      <point x="164" y="526"/>
      <point x="164" y="505" type="curve" smooth="yes"/>
      <point x="164" y="486"/>
      <point x="147" y="482"/>
      <point x="112" y="482" type="curve" smooth="yes"/>
      <point x="82" y="482"/>
      <point x="50" y="492"/>
      <point x="34" y="498" type="curve"/>
      <point x="13" y="430" type="line"/>
      <point x="37" y="419"/>
      <point x="78" y="411"/>
    </contour>
  </outline>
</glyph>
<glyph name="questiondown" format="2">
  <advance width="500"/>
  <unicode hex="00BF"/>
  <outline>
    <contour>
      <point x="259" y="-170" type="curve" smooth="yes"/>
      <point x="320" y="-170"/>
      <point x="388" y="-153"/>
      <point x="434" y="-124" type="curve"/>
      <point x="400" y="-30" type="line"/>
      <point x="354" y="-53"/>
      <point x="315" y="-66"/>
      <point x="273" y="-66" type="curve" smooth="yes"/>
      <point x="230" y="-66"/>
      <point x="199" y="-45"/>
      <point x="199" y="-5" type="curve" smooth="yes"/>
      <point x="199" y="28"/>
      <point x="232" y="48"/>
      <point x="262" y="73" type="curve" smooth="yes"/>
      <point x="307" y="110"/>
      <point x="338" y="161"/>
      <point x="338" y="214" type="curve" smooth="yes"/>
      <point x="338" y="219"/>
      <point x="338" y="224"/>
      <point x="337" y="229" type="curve"/>
      <point x="225" y="229" type="line"/>
      <point x="225" y="192"/>
      <point x="196" y="163"/>
      <point x="162" y="133" type="curve" smooth="yes"/>
      <point x="119" y="94"/>
      <point x="69" y="53"/>
      <point x="69" y="-13" type="curve" smooth="yes"/>
      <point x="69" y="-79"/>
      <point x="107" y="-170"/>
    </contour>
    <contour>
      <point x="273" y="301" type="curve" smooth="yes"/>
      <point x="316" y="301"/>
      <point x="357" y="332"/>
      <point x="357" y="383" type="curve" smooth="yes"/>
      <point x="357" y="435"/>
      <point x="316" y="466"/>
      <point x="273" y="466" type="curve" smooth="yes"/>
      <point x="231" y="466"/>
      <point x="190" y="435"/>
      <point x="190" y="383" type="curve" smooth="yes"/>
      <point x="190" y="332"/>
      <point x="231" y="301"/>
    </contour>
  </outline>
</glyph>
<glyph name="Aring" format="2">
  <advance width="560"/>
  <unicode hex="00C5"/>
  <outline>
    <contour>
      <point x="10" y="0" type="curve"/>
      <point x="153" y="0" type="line"/>
      <point x="185" y="160" type="line"/>
      <point x="370" y="160" type="line"/>
      <point x="402" y="0" type="line"/>
      <point x="550" y="0" type="line"/>
      <point x="491" y="258"/>
      <point x="424" y="482"/>
      <point x="361" y="680" type="curve"/>
      <point x="383" y="700"/>
      <point x="398" y="729"/>
      <point x="398" y="767" type="curve" smooth="yes"/>
      <point x="398" y="842"/>
      <point x="343" y="883"/>
      <point x="279" y="883" type="curve" smooth="yes"/>
      <point x="218" y="883"/>
      <point x="162" y="842"/>
      <point x="162" y="767" type="curve" smooth="yes"/>
      <point x="162" y="727"/>
      <point x="178" y="697"/>
      <point x="202" y="678" type="curve"/>
      <point x="140" y="480"/>
      <point x="74" y="267"/>
    </contour>
    <contour>
      <point x="211" y="274" type="line"/>
      <point x="228" y="374"/>
      <point x="249" y="454"/>
      <point x="279" y="559" type="curve"/>
      <point x="309" y="454"/>
      <point x="329" y="374"/>
      <point x="346" y="274" type="curve"/>
    </contour>
    <contour>
      <point x="279" y="720" type="curve" smooth="yes"/>
      <point x="256" y="720"/>
      <point x="234" y="736"/>
      <point x="234" y="767" type="curve" smooth="yes"/>
      <point x="234" y="799"/>
      <point x="256" y="814"/>
      <point x="279" y="814" type="curve" smooth="yes"/>
      <point x="304" y="814"/>
      <point x="325" y="799"/>
      <point x="325" y="767" type="curve" smooth="yes"/>
      <point x="325" y="736"/>
      <point x="304" y="720"/>
    </contour>
  </outline>
</glyph>
<glyph name="AE" format="2">
  <advance width="560"/>
  <unicode hex="00C6"/>
  <anchor x="280" y="0" name="bottom"/>
  <anchor x="280" y="776" name="top"/>
  <outline>
    <contour>
      <point x="10" y="0" type="curve"/>
      <point x="153" y="0" type="line"/>
      <point x="184" y="160" type="line"/>
      <point x="286" y="160" type="line"/>
      <point x="286" y="0" type="line"/>
      <point x="550" y="0" type="line"/>
      <point x="550" y="114" type="line"/>
      <point x="411" y="114" type="line"/>
      <point x="411" y="310" type="line"/>
      <point x="510" y="310" type="line"/>
      <point x="510" y="424" type="line"/>
      <point x="411" y="424" type="line"/>
      <point x="411" y="579" type="line"/>
      <point x="535" y="579" type="line"/>
      <point x="535" y="693" type="line"/>
      <point x="222" y="693" type="line"/>
      <point x="136" y="458"/>
      <point x="88" y="317"/>
    </contour>
    <contour>
      <point x="208" y="274" type="line"/>
      <point x="235" y="398"/>
      <point x="260" y="498"/>
      <point x="286" y="600" type="curve"/>
      <point x="286" y="274" type="line"/>
    </contour>
  </outline>
</glyph>
<glyph name="Ccedilla" format="2">
  <advance width="560"/>
  <unicode hex="00C7"/>
  <outline>
    <contour>
      <point x="268" y="-190" type="curve" smooth="yes"/>
      <point x="335" y="-190"/>
      <point x="402" y="-169"/>
      <point x="402" y="-102" type="curve" smooth="yes"/>
      <point x="402" y="-75"/>
      <point x="385" y="-41"/>
      <point x="336" y="-27" type="curve"/>
      <point x="340" y="-15" type="line"/>
      <point x="422" y="-12"/>
      <point x="488" y="11"/>
      <point x="525" y="34" type="curve"/>
      <point x="491" y="142" type="line"/>
      <point x="463" y="125"/>
      <point x="416" y="105"/>
      <point x="345" y="105" type="curve" smooth="yes"/>
      <point x="222" y="105"/>
      <point x="170" y="194"/>
      <point x="170" y="351" type="curve" smooth="yes"/>
      <point x="170" y="533"/>
      <point x="258" y="589"/>
      <point x="343" y="589" type="curve" smooth="yes"/>
      <point x="404" y="589"/>
      <point x="454" y="571"/>
      <point x="488" y="549" type="curve"/>
      <point x="524" y="659" type="line"/>
      <point x="504" y="672"/>
      <point x="442" y="709"/>
      <point x="345" y="709" type="curve" smooth="yes"/>
      <point x="164" y="709"/>
      <point x="30" y="577"/>
      <point x="30" y="347" type="curve" smooth="yes"/>
      <point x="30" y="149"/>
      <point x="110" y="25"/>
      <point x="254" y="-7" type="curve"/>
      <point x="249" y="-19"/>
      <point x="242" y="-35"/>
      <point x="239" y="-48" type="curve"/>
      <point x="261" y="-55" type="line" smooth="yes"/>
      <point x="289" y="-64"/>
      <point x="301" y="-75"/>
      <point x="301" y="-90" type="curve" smooth="yes"/>
      <point x="301" y="-109"/>
      <point x="284" y="-118"/>
      <point x="255" y="-118" type="curve" smooth="yes"/>
      <point x="232" y="-118"/>
      <point x="202" y="-110"/>
      <point x="193" y="-108" type="curve"/>
      <point x="178" y="-178" type="line"/>
      <point x="203" y="-186"/>
      <point x="235" y="-190"/>
    </contour>
  </outline>
</glyph>
<glyph name="Eth" format="2">
  <advance width="560"/>
  <unicode hex="00D0"/>
  <outline>
    <contour>
      <point x="223" y="-9" type="curve" smooth="yes"/>
      <point x="401" y="-9"/>
      <point x="530" y="90"/>
      <point x="530" y="347" type="curve" smooth="yes"/>
      <point x="530" y="597"/>
      <point x="416" y="701"/>
      <point x="241" y="701" type="curve" smooth="yes"/>
      <point x="194" y="701"/>
      <point x="141" y="698"/>
      <point x="80" y="684" type="curve"/>
      <point x="80" y="417" type="line"/>
      <point x="20" y="417" type="line"/>
      <point x="20" y="302" type="line"/>
      <point x="80" y="302" type="line"/>
      <point x="80" y="8" type="line"/>
      <point x="132" y="-4"/>
      <point x="176" y="-9"/>
    </contour>
    <contour>
      <point x="239" y="111" type="curve" smooth="yes"/>
      <point x="232" y="111"/>
      <point x="224" y="111"/>
      <point x="218" y="112" type="curve"/>
      <point x="218" y="302" type="line"/>
      <point x="304" y="302" type="line"/>
      <point x="304" y="417" type="line"/>
      <point x="218" y="417" type="line"/>
      <point x="218" y="578" type="line"/>
      <point x="228" y="580"/>
      <point x="242" y="581"/>
      <point x="253" y="581" type="curve" smooth="yes"/>
      <point x="364" y="581"/>
      <point x="390" y="468"/>
      <point x="390" y="347" type="curve" smooth="yes"/>
      <point x="390" y="211"/>
      <point x="352" y="111"/>
    </contour>
  </outline>
</glyph>
<glyph name="multiply" format="2">
  <advance width="560"/>
  <unicode hex="00D7"/>
  <outline>
    <contour>
      <point x="144" y="78" type="line"/>
      <point x="284" y="220" type="line"/>
      <point x="424" y="78" type="line"/>
      <point x="504" y="156" type="line"/>
      <point x="363" y="296" type="line"/>
      <point x="503" y="435" type="line"/>
      <point x="424" y="514" type="line"/>
      <point x="284" y="375" type="line"/>
      <point x="144" y="515" type="line"/>
      <point x="67" y="435" type="line"/>
      <point x="207" y="295" type="line"/>
      <point x="67" y="155" type="line"/>
    </contour>
  </outline>
</glyph>
<glyph name="Oslash" format="2">
  <advance width="560"/>
  <unicode hex="00D8"/>
  <anchor x="280" y="0" name="bottom"/>
  <anchor x="280" y="776" name="top"/>
  <outline>
    <contour>
      <point x="142" y="-45" type="line"/>
      <point x="168" y="9" type="line"/>
      <point x="200" y="-8"/>
      <point x="239" y="-17"/>
      <point x="281" y="-17" type="curve" smooth="yes"/>
      <point x="438" y="-17"/>
      <point x="530" y="108"/>
      <point x="530" y="345" type="curve" smooth="yes"/>
      <point x="530" y="466"/>
      <point x="507" y="557"/>
      <point x="463" y="618" type="curve"/>
      <point x="501" y="693" type="line"/>
      <point x="411" y="738" type="line"/>
      <point x="385" y="685" type="line"/>
      <point x="355" y="700"/>
      <point x="319" y="707"/>
      <point x="280" y="707" type="curve" smooth="yes"/>
      <point x="124" y="707"/>
      <point x="30" y="582"/>
      <point x="30" y="345" type="curve" smooth="yes"/>
      <point x="30" y="228"/>
      <point x="52" y="140"/>
      <point x="92" y="80" type="curve"/>
      <point x="54" y="0" type="line"/>
    </contour>
    <contour>
      <point x="280" y="103" type="curve" smooth="yes"/>
      <point x="256" y="103"/>
      <point x="237" y="110"/>
      <point x="222" y="122" type="curve"/>
      <point x="384" y="454" type="line"/>
      <point x="388" y="421"/>
      <point x="390" y="384"/>
      <point x="390" y="345" type="curve" smooth="yes"/>
      <point x="390" y="212"/>
      <point x="374" y="103"/>
    </contour>
    <contour>
      <point x="174" y="248" type="line"/>
      <point x="171" y="277"/>
      <point x="170" y="310"/>
      <point x="170" y="345" type="curve" smooth="yes"/>
      <point x="170" y="478"/>
      <point x="186" y="587"/>
      <point x="280" y="587" type="curve" smooth="yes"/>
      <point x="300" y="587"/>
      <point x="317" y="582"/>
      <point x="332" y="572" type="curve"/>
    </contour>
  </outline>
</glyph>
<glyph name="Thorn" format="2">
  <advance width="560"/>
  <unicode hex="00DE"/>
  <anchor x="280" y="0" name="bottom"/>
  <anchor x="280" y="776" name="top"/>
  <outline>
    <contour>
      <point x="60" y="0" type="line"/>
      <point x="198" y="0" type="line"/>
      <point x="198" y="128" type="line"/>
      <point x="248" y="128" type="line" smooth="yes"/>
      <point x="427" y="128"/>
      <point x="529" y="208"/>
      <point x="529" y="363" type="curve" smooth="yes"/>
      <point x="529" y="519"/>
      <point x="428" y="595"/>
      <point x="251" y="595" type="curve" smooth="yes"/>
      <point x="235" y="595"/>
      <point x="217" y="595"/>
      <point x="198" y="594" type="curve"/>
      <point x="198" y="693" type="line"/>
      <point x="60" y="693" type="line"/>
    </contour>
    <contour>
      <point x="198" y="248" type="line"/>
      <point x="198" y="472" type="line"/>
      <point x="214" y="474"/>
      <point x="250" y="475"/>
      <point x="267" y="475" type="curve" smooth="yes"/>
      <point x="339" y="475"/>
      <point x="388" y="435"/>
      <point x="388" y="364" type="curve" smooth="yes"/>
      <point x="388" y="290"/>
      <point x="342" y="248"/>
      <point x="254" y="248" type="curve" smooth="yes"/>
    </contour>
  </outline>
</glyph>
<glyph name="germandbls" format="2">
  <advance width="560"/>
  <unicode hex="00DF"/>
  <anchor x="280" y="0" name="bottom"/>
  <anchor x="280" y="869" name="top"/>
  <outline>
    <contour>
      <point x="360" y="-12" type="curve" smooth="yes"/>
      <point x="501" y="-12"/>
      <point x="551" y="52"/>
      <point x="551" y="166" type="curve" smooth="yes"/>
      <point x="551" y="242"/>
      <point x="505" y="276"/>
      <point x="463" y="304" type="curve" smooth="yes"/>
      <point x="422" y="330"/>
      <point x="383" y="352"/>
      <point x="383" y="398" type="curve" smooth="yes"/>
      <point x="383" y="436"/>
      <point x="398" y="456"/>
      <point x="413" y="478" type="curve" smooth="yes"/>
      <point x="433" y="507"/>
      <point x="457" y="538"/>
      <point x="457" y="610" type="curve" smooth="yes"/>
      <point x="457" y="699"/>
      <point x="403" y="776"/>
      <point x="254" y="776" type="curve" smooth="yes"/>
      <point x="99" y="776"/>
      <point x="35" y="674"/>
      <point x="35" y="533" type="curve" smooth="yes"/>
      <point x="35" y="0" type="line"/>
      <point x="172" y="0" type="line"/>
      <point x="172" y="536" type="line" smooth="yes"/>
      <point x="172" y="612"/>
      <point x="200" y="659"/>
      <point x="258" y="659" type="curve" smooth="yes"/>
      <point x="300" y="659"/>
      <point x="326" y="637"/>
      <point x="326" y="594" type="curve" smooth="yes"/>
      <point x="326" y="553"/>
      <point x="314" y="529"/>
      <point x="299" y="505" type="curve" smooth="yes"/>
      <point x="277" y="470"/>
      <point x="248" y="442"/>
      <point x="248" y="379" type="curve" smooth="yes"/>
      <point x="248" y="332"/>
      <point x="258" y="286"/>
      <point x="325" y="250" type="curve" smooth="yes"/>
      <point x="375" y="225"/>
      <point x="411" y="199"/>
      <point x="411" y="164" type="curve" smooth="yes"/>
      <point x="411" y="128"/>
      <point x="391" y="104"/>
      <point x="351" y="104" type="curve" smooth="yes"/>
      <point x="319" y="104"/>
      <point x="276" y="119"/>
      <point x="251" y="130" type="curve"/>
      <point x="226" y="16" type="line"/>
      <point x="251" y="4"/>
      <point x="290" y="-12"/>
    </contour>
  </outline>
</glyph>
<glyph name="ae" format="2">
  <advance width="560"/>
  <unicode hex="00E6"/>
  <anchor x="280" y="0" name="bottom"/>
  <anchor x="280" y="582" name="top"/>
  <outline>
    <contour>
      <point x="181" y="-12" type="curve" smooth="yes"/>
      <point x="225" y="-12"/>
      <point x="271" y="4"/>
      <point x="306" y="43" type="curve"/>
      <point x="332" y="11"/>
      <point x="368" y="-12"/>
      <point x="420" y="-12" type="curve" smooth="yes"/>
      <point x="465" y="-12"/>
      <point x="496" y="-4"/>
      <point x="530" y="13" type="curve"/>
      <point x="510" y="122" type="line"/>
      <point x="488" y="111"/>
      <point x="461" y="103"/>
      <point x="435" y="103" type="curve" smooth="yes"/>
      <point x="388" y="103"/>
      <point x="347" y="136"/>
      <point x="344" y="218" type="curve"/>
      <point x="544" y="218" type="line"/>
      <point x="547" y="233"/>
      <point x="547" y="264"/>
      <point x="547" y="282" type="curve" smooth="yes"/>
      <point x="547" y="473"/>
      <point x="483" y="540"/>
      <point x="396" y="540" type="curve" smooth="yes"/>
      <point x="360" y="540"/>
      <point x="328" y="517"/>
      <point x="302" y="479" type="curve"/>
      <point x="271" y="523"/>
      <point x="228" y="540"/>
      <point x="183" y="540" type="curve" smooth="yes"/>
      <point x="144" y="540"/>
      <point x="105" y="530"/>
      <point x="66" y="514" type="curve"/>
      <point x="85" y="408" type="line"/>
      <point x="119" y="420"/>
      <point x="149" y="429"/>
      <point x="174" y="429" type="curve" smooth="yes"/>
      <point x="214" y="429"/>
      <point x="239" y="407"/>
      <point x="239" y="342" type="curve" smooth="yes"/>
      <point x="239" y="316" type="line"/>
      <point x="218" y="323"/>
      <point x="198" y="325"/>
      <point x="179" y="325" type="curve" smooth="yes"/>
      <point x="90" y="325"/>
      <point x="26" y="263"/>
      <point x="26" y="162" type="curve" smooth="yes"/>
      <point x="26" y="76"/>
      <point x="80" y="-12"/>
    </contour>
    <contour>
      <point x="194" y="97" type="curve" smooth="yes"/>
      <point x="153" y="97"/>
      <point x="132" y="123"/>
      <point x="132" y="164" type="curve" smooth="yes"/>
      <point x="132" y="211"/>
      <point x="160" y="228"/>
      <point x="198" y="228" type="curve" smooth="yes"/>
      <point x="211" y="228"/>
      <point x="225" y="227"/>
      <point x="239" y="223" type="curve"/>
      <point x="239" y="190"/>
      <point x="240" y="150"/>
      <point x="249" y="111" type="curve"/>
      <point x="230" y="102"/>
      <point x="211" y="97"/>
    </contour>
    <contour>
      <point x="345" y="314" type="line"/>
      <point x="345" y="367"/>
      <point x="358" y="430"/>
      <point x="396" y="430" type="curve" smooth="yes"/>
      <point x="435" y="430"/>
      <point x="444" y="372"/>
      <point x="444" y="314" type="curve"/>
    </contour>
  </outline>
</glyph>
<glyph name="ccedilla" format="2">
  <advance width="560"/>
  <unicode hex="00E7"/>
  <outline>
    <contour>
      <point x="268" y="-190" type="curve" smooth="yes"/>
      <point x="335" y="-190"/>
      <point x="402" y="-169"/>
      <point x="402" y="-102" type="curve" smooth="yes"/>
      <point x="402" y="-75"/>
      <point x="385" y="-41"/>
      <point x="336" y="-27" type="curve"/>
      <point x="338" y="-22"/>
      <point x="339" y="-17"/>
      <point x="342" y="-12" type="curve"/>
      <point x="428" y="-12"/>
      <point x="484" y="-1"/>
      <point x="522" y="13" type="curve"/>
      <point x="502" y="127" type="line"/>
      <point x="464" y="113"/>
      <point x="413" y="108"/>
      <point x="370" y="108" type="curve" smooth="yes"/>
      <point x="239" y="108"/>
      <point x="189" y="167"/>
      <point x="189" y="263" type="curve" smooth="yes"/>
      <point x="189" y="354"/>
      <point x="232" y="420"/>
      <point x="363" y="420" type="curve" smooth="yes"/>
      <point x="420" y="420"/>
      <point x="454" y="410"/>
      <point x="483" y="400" type="curve"/>
      <point x="513" y="511" type="line"/>
      <point x="461" y="532"/>
      <point x="413" y="540"/>
      <point x="351" y="540" type="curve" smooth="yes"/>
      <point x="142" y="540"/>
      <point x="49" y="416"/>
      <point x="49" y="263" type="curve" smooth="yes"/>
      <point x="49" y="133"/>
      <point x="111" y="28"/>
      <point x="256" y="-2" type="curve"/>
      <point x="250" y="-16"/>
      <point x="243" y="-32"/>
      <point x="239" y="-48" type="curve"/>
      <point x="289" y="-60"/>
      <point x="301" y="-75"/>
      <point x="301" y="-90" type="curve" smooth="yes"/>
      <point x="301" y="-109"/>
      <point x="284" y="-118"/>
      <point x="255" y="-118" type="curve" smooth="yes"/>
      <point x="232" y="-118"/>
      <point x="202" y="-110"/>
      <point x="193" y="-108" type="curve"/>
      <point x="178" y="-178" type="line"/>
      <point x="203" y="-186"/>
      <point x="235" y="-190"/>
    </contour>
  </outline>
</glyph>
<glyph name="eth" format="2">
  <advance width="560"/>
  <unicode hex="00F0"/>
  <anchor x="280" y="0" name="bottom"/>
  <anchor x="280" y="869" name="top"/>
  <outline>
    <contour>
      <point x="276" y="-15" type="curve" smooth="yes"/>
      <point x="454" y="-15"/>
      <point x="510" y="136"/>
      <point x="510" y="309" type="curve" smooth="yes"/>
      <point x="510" y="407"/>
      <point x="485" y="510"/>
      <point x="438" y="599" type="curve"/>
      <point x="538" y="633" type="line"/>
      <point x="510" y="717" type="line"/>
      <point x="388" y="676" type="line"/>
      <point x="355" y="718"/>
      <point x="315" y="754"/>
      <point x="269" y="781" type="curve"/>
      <point x="186" y="694" type="line"/>
      <point x="213" y="675"/>
      <point x="237" y="655"/>
      <point x="258" y="632" type="curve"/>
      <point x="181" y="606" type="line"/>
      <point x="211" y="522" type="line"/>
      <point x="314" y="557" type="line"/>
      <point x="337" y="519"/>
      <point x="352" y="480"/>
      <point x="360" y="446" type="curve"/>
      <point x="335" y="459"/>
      <point x="299" y="472"/>
      <point x="269" y="472" type="curve" smooth="yes"/>
      <point x="118" y="472"/>
      <point x="45" y="362"/>
      <point x="45" y="234" type="curve" smooth="yes"/>
      <point x="45" y="96"/>
      <point x="121" y="-15"/>
    </contour>
    <contour>
      <point x="270" y="105" type="curve" smooth="yes"/>
      <point x="216" y="105"/>
      <point x="186" y="169"/>
      <point x="186" y="234" type="curve" smooth="yes"/>
      <point x="186" y="314"/>
      <point x="216" y="362"/>
      <point x="279" y="362" type="curve" smooth="yes"/>
      <point x="296" y="362"/>
      <point x="330" y="361"/>
      <point x="366" y="329" type="curve"/>
      <point x="366" y="319"/>
      <point x="367" y="309"/>
      <point x="367" y="299" type="curve" smooth="yes"/>
      <point x="367" y="183"/>
      <point x="342" y="105"/>
    </contour>
  </outline>
</glyph>
<glyph name="divide" format="2">
  <advance width="560"/>
  <unicode hex="00F7"/>
  <outline>
    <contour>
      <point x="45" y="237" type="line"/>
      <point x="515" y="237" type="line"/>
      <point x="515" y="351" type="line"/>
      <point x="45" y="351" type="line"/>
    </contour>
    <contour>
      <point x="282" y="6" type="curve" smooth="yes"/>
      <point x="323" y="6"/>
      <point x="360" y="36"/>
      <point x="360" y="88" type="curve" smooth="yes"/>
      <point x="360" y="142"/>
      <point x="323" y="172"/>
      <point x="282" y="172" type="curve" smooth="yes"/>
      <point x="240" y="172"/>
      <point x="203" y="142"/>
      <point x="203" y="88" type="curve" smooth="yes"/>
      <point x="203" y="36"/>
      <point x="240" y="6"/>
    </contour>
    <contour>
      <point x="282" y="416" type="curve" smooth="yes"/>
      <point x="323" y="416"/>
      <point x="360" y="444"/>
      <point x="360" y="497" type="curve" smooth="yes"/>
      <point x="360" y="551"/>
      <point x="323" y="580"/>
      <point x="282" y="580" type="curve" smooth="yes"/>
      <point x="240" y="580"/>
      <point x="203" y="551"/>
      <point x="203" y="497" type="curve" smooth="yes"/>
      <point x="203" y="444"/>
      <point x="240" y="416"/>
    </contour>
  </outline>
</glyph>
<glyph name="oslash" format="2">
  <advance width="500"/>
  <unicode hex="00F8"/>
  <anchor x="250" y="520" name="top"/>
  <outline>
    <contour>
      <point x="100" y="-38" type="line"/>
      <point x="138" y="13" type="line"/>
      <point x="171" y="-4"/>
      <point x="208" y="-15"/>
      <point x="251" y="-15" type="curve" smooth="yes"/>
      <point x="384" y="-15"/>
      <point x="472" y="86"/>
      <point x="472" y="234" type="curve" smooth="yes"/>
      <point x="472" y="300"/>
      <point x="453" y="356"/>
      <point x="421" y="398" type="curve"/>
      <point x="463" y="455" type="line"/>
      <point x="400" y="502" type="line"/>
      <point x="363" y="451" type="line"/>
      <point x="330" y="470"/>
      <point x="293" y="480"/>
      <point x="251" y="480" type="curve" smooth="yes"/>
      <point x="122" y="480"/>
      <point x="29" y="382"/>
      <point x="29" y="234" type="curve" smooth="yes"/>
      <point x="29" y="166"/>
      <point x="47" y="109"/>
      <point x="79" y="66" type="curve"/>
      <point x="38" y="9" type="line"/>
    </contour>
    <contour>
      <point x="249" y="92" type="curve" smooth="yes"/>
      <point x="231" y="92"/>
      <point x="217" y="96"/>
      <point x="204" y="104" type="curve"/>
      <point x="341" y="289" type="line"/>
      <point x="345" y="272"/>
      <point x="346" y="254"/>
      <point x="346" y="233" type="curve" smooth="yes"/>
      <point x="346" y="149"/>
      <point x="313" y="92"/>
    </contour>
    <contour>
      <point x="159" y="174" type="line"/>
      <point x="155" y="192"/>
      <point x="154" y="212"/>
      <point x="154" y="233" type="curve" smooth="yes"/>
      <point x="154" y="317"/>
      <point x="188" y="373"/>
      <point x="251" y="373" type="curve" smooth="yes"/>
      <point x="269" y="373"/>
      <point x="284" y="369"/>
      <point x="296" y="362" type="curve"/>
    </contour>
  </outline>
</glyph>
<glyph name="thorn" format="2">
  <advance width="560"/>
  <unicode hex="00FE"/>
  <anchor x="280" y="0" name="bottom"/>
  <anchor x="280" y="582" name="top"/>
  <outline>
    <contour>
      <point x="71" y="-185" type="line"/>
      <point x="208" y="-185" type="line"/>
      <point x="208" y="13" type="line"/>
      <point x="248" y="-4"/>
      <point x="282" y="-12"/>
      <point x="317" y="-12" type="curve" smooth="yes"/>
      <point x="455" y="-12"/>
      <point x="525" y="101"/>
      <point x="525" y="263" type="curve" smooth="yes"/>
      <point x="525" y="431"/>
      <point x="436" y="538"/>
      <point x="273" y="538" type="curve" smooth="yes"/>
      <point x="252" y="538"/>
      <point x="228" y="533"/>
      <point x="208" y="529" type="curve"/>
      <point x="208" y="777" type="line"/>
      <point x="71" y="754" type="line"/>
    </contour>
    <contour>
      <point x="289" y="106" type="curve" smooth="yes"/>
      <point x="259" y="106"/>
      <point x="226" y="115"/>
      <point x="208" y="127" type="curve"/>
      <point x="208" y="416" type="line"/>
      <point x="224" y="417"/>
      <point x="251" y="420"/>
      <point x="272" y="420" type="curve" smooth="yes"/>
      <point x="348" y="420"/>
      <point x="385" y="353"/>
      <point x="385" y="259" type="curve" smooth="yes"/>
      <point x="385" y="162"/>
      <point x="354" y="106"/>
    </contour>
  </outline>
</glyph>
<glyph name="Aogonek" format="2">
  <advance width="560"/>
  <unicode hex="0104"/>
  <outline>
    <contour>
      <point x="461" y="-190" type="curve" smooth="yes"/>
      <point x="503" y="-190"/>
      <point x="545" y="-183"/>
      <point x="566" y="-175" type="curve"/>
      <point x="558" y="-110" type="line"/>
      <point x="535" y="-116"/>
      <point x="520" y="-118"/>
      <point x="507" y="-118" type="curve" smooth="yes"/>
      <point x="484" y="-118"/>
      <point x="477" y="-105"/>
      <point x="477" y="-91" type="curve" smooth="yes"/>
      <point x="477" y="-64"/>
      <point x="522" y="-24"/>
      <point x="550" y="0" type="curve"/>
      <point x="489" y="264"/>
      <point x="422" y="492"/>
      <point x="357" y="693" type="curve"/>
      <point x="207" y="693" type="line"/>
      <point x="144" y="492"/>
      <point x="76" y="273"/>
      <point x="10" y="0" type="curve"/>
      <point x="153" y="0" type="line"/>
      <point x="185" y="160" type="line"/>
      <point x="370" y="160" type="line"/>
      <point x="402" y="0" type="line"/>
      <point x="430" y="0" type="line"/>
      <point x="382" y="-39"/>
      <point x="361" y="-83"/>
      <point x="361" y="-119" type="curve" smooth="yes"/>
      <point x="361" y="-159"/>
      <point x="390" y="-190"/>
    </contour>
    <contour>
      <point x="211" y="274" type="line"/>
      <point x="228" y="374"/>
      <point x="249" y="454"/>
      <point x="279" y="559" type="curve"/>
      <point x="309" y="454"/>
      <point x="329" y="374"/>
      <point x="346" y="274" type="curve"/>
    </contour>
  </outline>
</glyph>
<glyph name="aogonek" format="2">
  <advance width="500"/>
  <unicode hex="0105"/>
  <outline>
    <contour>
      <point x="346" y="-170" type="curve" smooth="yes"/>
      <point x="383" y="-170"/>
      <point x="421" y="-163"/>
      <point x="439" y="-156" type="curve"/>
      <point x="432" y="-98" type="line"/>
      <point x="412" y="-104"/>
      <point x="398" y="-105"/>
      <point x="387" y="-105" type="curve" smooth="yes"/>
      <point x="366" y="-105"/>
      <point x="360" y="-94"/>
      <point x="360" y="-81" type="curve" smooth="yes"/>
      <point x="360" y="-50"/>
      <point x="423" y="-1"/>
      <point x="441" y="13" type="curve"/>
      <point x="441" y="291" type="line" smooth="yes"/>
      <point x="441" y="408"/>
      <point x="394" y="482"/>
      <point x="240" y="482" type="curve" smooth="yes"/>
      <point x="180" y="482"/>
      <point x="118" y="471"/>
      <point x="88" y="461" type="curve"/>
      <point x="105" y="362" type="line"/>
      <point x="132" y="371"/>
      <point x="179" y="379"/>
      <point x="225" y="379" type="curve" smooth="yes"/>
      <point x="296" y="379"/>
      <point x="323" y="344"/>
      <point x="323" y="297" type="curve" smooth="yes"/>
      <point x="323" y="282" type="line"/>
      <point x="300" y="287"/>
      <point x="271" y="290"/>
      <point x="238" y="290" type="curve" smooth="yes"/>
      <point x="138" y="290"/>
      <point x="44" y="254"/>
      <point x="44" y="144" type="curve" smooth="yes"/>
      <point x="44" y="29"/>
      <point x="122" y="-11"/>
      <point x="242" y="-11" type="curve" smooth="yes"/>
      <point x="263" y="-11"/>
      <point x="287" y="-9"/>
      <point x="309" y="-7" type="curve"/>
      <point x="277" y="-36"/>
      <point x="256" y="-74"/>
      <point x="256" y="-106" type="curve" smooth="yes"/>
      <point x="256" y="-142"/>
      <point x="282" y="-170"/>
    </contour>
    <contour>
      <point x="251" y="88" type="curve" smooth="yes"/>
      <point x="200" y="88"/>
      <point x="165" y="105"/>
      <point x="165" y="147" type="curve" smooth="yes"/>
      <point x="165" y="194"/>
      <point x="212" y="204"/>
      <point x="263" y="204" type="curve" smooth="yes"/>
      <point x="282" y="204"/>
      <point x="307" y="202"/>
      <point x="323" y="199" type="curve"/>
      <point x="323" y="91" type="line"/>
      <point x="304" y="89"/>
      <point x="277" y="88"/>
    </contour>
  </outline>
</glyph>
<glyph name="dcaron" format="2">
  <advance width="560"/>
  <unicode hex="010F"/>
  <outline>
    <contour>
      <point x="231" y="-12" type="curve" smooth="yes"/>
      <point x="295" y="-12"/>
      <point x="367" y="0"/>
      <point x="413" y="16" type="curve"/>
      <point x="413" y="777" type="line"/>
      <point x="274" y="754" type="line"/>
      <point x="274" y="514" type="line"/>
      <point x="253" y="529"/>
      <point x="222" y="538"/>
      <point x="192" y="538" type="curve" smooth="yes"/>
      <point x="76" y="538"/>
      <point x="15" y="431"/>
      <point x="15" y="260" type="curve" smooth="yes"/>
      <point x="15" y="92"/>
      <point x="90" y="-12"/>
    </contour>
    <contour>
      <point x="232" y="106" type="curve" smooth="yes"/>
      <point x="178" y="106"/>
      <point x="155" y="172"/>
      <point x="155" y="267" type="curve" smooth="yes"/>
      <point x="155" y="364"/>
      <point x="172" y="419"/>
      <point x="215" y="419" type="curve" smooth="yes"/>
      <point x="237" y="419"/>
      <point x="260" y="410"/>
      <point x="274" y="398" type="curve"/>
      <point x="274" y="111" type="line"/>
      <point x="261" y="108"/>
      <point x="248" y="106"/>
    </contour>
    <contour>
      <point x="458" y="532" type="line"/>
      <point x="548" y="532" type="line"/>
      <point x="580" y="776" type="line"/>
      <point x="458" y="776" type="line"/>
    </contour>
  </outline>
</glyph>
<glyph name="dcroat" format="2">
  <advance width="560"/>
  <unicode hex="0111"/>
  <outline>
    <contour>
      <point x="278" y="-12" type="curve" smooth="yes"/>
      <point x="348" y="-12"/>
      <point x="427" y="0"/>
      <point x="478" y="16" type="curve"/>
      <point x="478" y="596" type="line"/>
      <point x="540" y="596" type="line"/>
      <point x="540" y="689" type="line"/>
      <point x="478" y="689" type="line"/>
      <point x="478" y="777" type="line"/>
      <point x="340" y="754" type="line"/>
      <point x="340" y="689" type="line"/>
      <point x="197" y="689" type="line"/>
      <point x="197" y="596" type="line"/>
      <point x="340" y="596" type="line"/>
      <point x="340" y="514" type="line"/>
      <point x="314" y="529"/>
      <point x="276" y="538"/>
      <point x="239" y="538" type="curve" smooth="yes"/>
      <point x="103" y="538"/>
      <point x="31" y="431"/>
      <point x="31" y="260" type="curve" smooth="yes"/>
      <point x="31" y="92"/>
      <point x="116" y="-12"/>
    </contour>
    <contour>
      <point x="279" y="106" type="curve" smooth="yes"/>
      <point x="204" y="106"/>
      <point x="171" y="172"/>
      <point x="171" y="267" type="curve" smooth="yes"/>
      <point x="171" y="364"/>
      <point x="199" y="419"/>
      <point x="262" y="419" type="curve" smooth="yes"/>
      <point x="292" y="419"/>
      <point x="320" y="410"/>
      <point x="340" y="398" type="curve"/>
      <point x="340" y="111" type="line"/>
      <point x="320" y="108"/>
      <point x="302" y="106"/>
    </contour>
  </outline>
</glyph>
<glyph name="Eogonek" format="2">
  <advance width="560"/>
  <unicode hex="0118"/>
  <anchor x="280" y="685" name="top"/>
  <outline>
    <contour>
      <point x="427" y="-190" type="curve" smooth="yes"/>
      <point x="468" y="-190"/>
      <point x="511" y="-183"/>
      <point x="531" y="-175" type="curve"/>
      <point x="523" y="-110" type="line"/>
      <point x="501" y="-116"/>
      <point x="485" y="-118"/>
      <point x="473" y="-118" type="curve" smooth="yes"/>
      <point x="449" y="-118"/>
      <point x="442" y="-105"/>
      <point x="442" y="-91" type="curve" smooth="yes"/>
      <point x="442" y="-63"/>
      <point x="486" y="-22"/>
      <point x="515" y="0" type="curve"/>
      <point x="515" y="114" type="line"/>
      <point x="208" y="114" type="line"/>
      <point x="208" y="309" type="line"/>
      <point x="454" y="309" type="line"/>
      <point x="454" y="423" type="line"/>
      <point x="208" y="423" type="line"/>
      <point x="208" y="579" type="line"/>
      <point x="491" y="579" type="line"/>
      <point x="491" y="693" type="line"/>
      <point x="71" y="693" type="line"/>
      <point x="71" y="0" type="line"/>
      <point x="395" y="0" type="line"/>
      <point x="353" y="-32"/>
      <point x="326" y="-80"/>
      <point x="326" y="-119" type="curve" smooth="yes"/>
      <point x="326" y="-159"/>
      <point x="355" y="-190"/>
    </contour>
  </outline>
</glyph>
<glyph name="eogonek" format="2">
  <advance width="560"/>
  <unicode hex="0119"/>
  <anchor x="280" y="582" name="top"/>
  <outline>
    <contour>
      <point x="376" y="-190" type="curve" smooth="yes"/>
      <point x="418" y="-190"/>
      <point x="460" y="-183"/>
      <point x="480" y="-175" type="curve"/>
      <point x="473" y="-110" type="line"/>
      <point x="450" y="-116"/>
      <point x="435" y="-118"/>
      <point x="422" y="-118" type="curve" smooth="yes"/>
      <point x="399" y="-118"/>
      <point x="392" y="-105"/>
      <point x="392" y="-91" type="curve" smooth="yes"/>
      <point x="392" y="-57"/>
      <point x="457" y="-3"/>
      <point x="491" y="19" type="curve"/>
      <point x="472" y="134" type="line"/>
      <point x="438" y="122"/>
      <point x="384" y="108"/>
      <point x="329" y="108" type="curve" smooth="yes"/>
      <point x="240" y="108"/>
      <point x="177" y="150"/>
      <point x="177" y="218" type="curve"/>
      <point x="519" y="218" type="line"/>
      <point x="520" y="231"/>
      <point x="521" y="252"/>
      <point x="521" y="270" type="curve" smooth="yes"/>
      <point x="521" y="446"/>
      <point x="438" y="540"/>
      <point x="283" y="540" type="curve" smooth="yes"/>
      <point x="157" y="540"/>
      <point x="35" y="445"/>
      <point x="35" y="259" type="curve" smooth="yes"/>
      <point x="35" y="81"/>
      <point x="146" y="-12"/>
      <point x="324" y="-12" type="curve" smooth="yes"/>
      <point x="326" y="-12"/>
      <point x="328" y="-12"/>
      <point x="330" y="-12" type="curve"/>
      <point x="297" y="-44"/>
      <point x="276" y="-84"/>
      <point x="276" y="-119" type="curve" smooth="yes"/>
      <point x="276" y="-159"/>
      <point x="305" y="-190"/>
    </contour>
    <contour>
      <point x="177" y="314" type="line"/>
      <point x="183" y="372"/>
      <point x="214" y="424"/>
      <point x="286" y="424" type="curve" smooth="yes"/>
      <point x="360" y="424"/>
      <point x="388" y="370"/>
      <point x="388" y="314" type="curve"/>
    </contour>
  </outline>
</glyph>
<glyph name="hcircumflex" format="2">
  <advance width="560"/>
  <unicode hex="0125"/>
  <outline>
    <contour>
      <point x="71" y="0" type="line"/>
      <point x="208" y="0" type="line"/>
      <point x="208" y="405" type="line"/>
      <point x="223" y="410"/>
      <point x="250" y="418"/>
      <point x="276" y="418" type="curve" smooth="yes"/>
      <point x="337" y="418"/>
      <point x="356" y="377"/>
      <point x="356" y="279" type="curve" smooth="yes"/>
      <point x="356" y="0" type="line"/>
      <point x="494" y="0" type="line"/>
      <point x="494" y="297" type="line" smooth="yes"/>
      <point x="494" y="440"/>
      <point x="446" y="538"/>
      <point x="290" y="538" type="curve" smooth="yes"/>
      <point x="267" y="538"/>
      <point x="231" y="530"/>
      <point x="208" y="522" type="curve"/>
      <point x="208" y="732" type="line"/>
      <point x="71" y="709" type="line"/>
    </contour>
    <contour>
      <point x="104" y="758" type="line"/>
      <point x="209" y="819" type="line"/>
      <point x="312" y="758" type="line"/>
      <point x="355" y="822" type="line"/>
      <point x="209" y="928" type="line"/>
      <point x="62" y="822" type="line"/>
    </contour>
  </outline>
</glyph>
<glyph name="Hbar" format="2">
  <advance width="560"/>
  <unicode hex="0126"/>
  <outline>
    <contour>
      <point x="71" y="0" type="line"/>
      <point x="208" y="0" type="line"/>
      <point x="208" y="284" type="line"/>
      <point x="352" y="284" type="line"/>
      <point x="352" y="0" type="line"/>
      <point x="491" y="0" type="line"/>
      <point x="491" y="502" type="line"/>
      <point x="541" y="502" type="line"/>
      <point x="541" y="613" type="line"/>
      <point x="491" y="613" type="line"/>
      <point x="491" y="693" type="line"/>
      <point x="352" y="693" type="line"/>
      <point x="352" y="613" type="line"/>
      <point x="208" y="613" type="line"/>
      <point x="208" y="693" type="line"/>
      <point x="71" y="693" type="line"/>
      <point x="71" y="613" type="line"/>
      <point x="20" y="613" type="line"/>
      <point x="20" y="502" type="line"/>
      <point x="71" y="502" type="line"/>
    </contour>
    <contour>
      <point x="208" y="398" type="line"/>
      <point x="208" y="502" type="line"/>
      <point x="352" y="502" type="line"/>
      <point x="352" y="398" type="line"/>
    </contour>
  </outline>
</glyph>
<glyph name="hbar" format="2">
  <advance width="560"/>
  <unicode hex="0127"/>
  <outline>
    <contour>
      <point x="90" y="0" type="line"/>
      <point x="228" y="0" type="line"/>
      <point x="228" y="405" type="line"/>
      <point x="241" y="410"/>
      <point x="267" y="418"/>
      <point x="288" y="418" type="curve" smooth="yes"/>
      <point x="340" y="418"/>
      <point x="356" y="377"/>
      <point x="356" y="279" type="curve" smooth="yes"/>
      <point x="356" y="0" type="line"/>
      <point x="494" y="0" type="line"/>
      <point x="494" y="297" type="line" smooth="yes"/>
      <point x="494" y="440"/>
      <point x="449" y="538"/>
      <point x="304" y="538" type="curve" smooth="yes"/>
      <point x="281" y="538"/>
      <point x="249" y="530"/>
      <point x="228" y="522" type="curve"/>
      <point x="228" y="596" type="line"/>
      <point x="371" y="596" type="line"/>
      <point x="371" y="689" type="line"/>
      <point x="228" y="689" type="line"/>
      <point x="228" y="777" type="line"/>
      <point x="90" y="754" type="line"/>
      <point x="90" y="689" type="line"/>
      <point x="28" y="689" type="line"/>
      <point x="28" y="596" type="line"/>
      <point x="90" y="596" type="line"/>
    </contour>
  </outline>
</glyph>
<glyph name="Iogonek" format="2">
  <advance width="560"/>
  <unicode hex="012E"/>
  <outline>
    <contour>
      <point x="270" y="-190" type="curve" smooth="yes"/>
      <point x="311" y="-190"/>
      <point x="354" y="-183"/>
      <point x="374" y="-175" type="curve"/>
      <point x="366" y="-110" type="line"/>
      <point x="344" y="-116"/>
      <point x="328" y="-118"/>
      <point x="316" y="-118" type="curve" smooth="yes"/>
      <point x="292" y="-118"/>
      <point x="286" y="-105"/>
      <point x="286" y="-91" type="curve" smooth="yes"/>
      <point x="286" y="-63"/>
      <point x="328" y="-24"/>
      <point x="357" y="0" type="curve"/>
      <point x="501" y="0" type="line"/>
      <point x="501" y="114" type="line"/>
      <point x="351" y="114" type="line"/>
      <point x="351" y="579" type="line"/>
      <point x="501" y="579" type="line"/>
      <point x="501" y="693" type="line"/>
      <point x="60" y="693" type="line"/>
      <point x="60" y="579" type="line"/>
      <point x="212" y="579" type="line"/>
      <point x="212" y="114" type="line"/>
      <point x="60" y="114" type="line"/>
      <point x="60" y="0" type="line"/>
      <point x="239" y="0" type="line"/>
      <point x="196" y="-32"/>
      <point x="169" y="-80"/>
      <point x="169" y="-119" type="curve" smooth="yes"/>
      <point x="169" y="-159"/>
      <point x="198" y="-190"/>
    </contour>
  </outline>
</glyph>
<glyph name="iogonek" format="2">
  <advance width="560"/>
  <unicode hex="012F"/>
  <outline>
    <contour>
      <point x="420" y="-190" type="curve" smooth="yes"/>
      <point x="452" y="-190"/>
      <point x="485" y="-185"/>
      <point x="513" y="-175" type="curve"/>
      <point x="505" y="-110" type="line"/>
      <point x="483" y="-116"/>
      <point x="467" y="-118"/>
      <point x="455" y="-118" type="curve" smooth="yes"/>
      <point x="431" y="-118"/>
      <point x="424" y="-105"/>
      <point x="424" y="-91" type="curve" smooth="yes"/>
      <point x="424" y="-63"/>
      <point x="466" y="-22"/>
      <point x="523" y="20" type="curve"/>
      <point x="505" y="133" type="line"/>
      <point x="460" y="112"/>
      <point x="423" y="108"/>
      <point x="399" y="108" type="curve" smooth="yes"/>
      <point x="345" y="108"/>
      <point x="324" y="136"/>
      <point x="324" y="199" type="curve" smooth="yes"/>
      <point x="324" y="526" type="line"/>
      <point x="40" y="526" type="line"/>
      <point x="40" y="412" type="line"/>
      <point x="186" y="412" type="line"/>
      <point x="186" y="218" type="line" smooth="yes"/>
      <point x="186" y="77"/>
      <point x="228" y="-7"/>
      <point x="363" y="-12" type="curve"/>
      <point x="328" y="-44"/>
      <point x="308" y="-84"/>
      <point x="308" y="-119" type="curve" smooth="yes"/>
      <point x="308" y="-170"/>
      <point x="362" y="-190"/>
    </contour>
    <contour>
      <point x="231" y="590" type="curve" smooth="yes"/>
      <point x="278" y="590"/>
      <point x="318" y="624"/>
      <point x="318" y="678" type="curve" smooth="yes"/>
      <point x="318" y="732"/>
      <point x="278" y="766"/>
      <point x="231" y="766" type="curve" smooth="yes"/>
      <point x="184" y="766"/>
      <point x="144" y="732"/>
      <point x="144" y="678" type="curve" smooth="yes"/>
      <point x="144" y="624"/>
      <point x="184" y="590"/>
    </contour>
  </outline>
</glyph>
<glyph name="dotlessi" format="2">
  <advance width="500"/>
  <unicode hex="0131"/>
  <anchor x="250" y="0" name="bottom"/>
  <anchor x="450" y="10" name="ogonek"/>
  <anchor x="250" y="520" name="top"/>
  <outline>
    <contour>
      <point x="334" y="-11" type="curve" smooth="yes"/>
      <point x="371" y="-11"/>
      <point x="417" y="-4"/>
      <point x="467" y="20" type="curve"/>
      <point x="451" y="119" type="line"/>
      <point x="411" y="100"/>
      <point x="378" y="96"/>
      <point x="356" y="96" type="curve" smooth="yes"/>
      <point x="308" y="96"/>
      <point x="289" y="123"/>
      <point x="289" y="179" type="curve" smooth="yes"/>
      <point x="289" y="470" type="line"/>
      <point x="36" y="470" type="line"/>
      <point x="36" y="368" type="line"/>
      <point x="166" y="368" type="line"/>
      <point x="166" y="195" type="line" smooth="yes"/>
      <point x="166" y="65"/>
      <point x="206" y="-11"/>
    </contour>
  </outline>
</glyph>
<glyph name="idotless" format="2">
  <advance width="560"/>
  <unicode hex="0131"/>
  <anchor x="280" y="0" name="bottom"/>
  <anchor x="504" y="11" name="ogonek"/>
  <anchor x="280" y="582" name="top"/>
  <outline>
    <contour>
      <point x="374" y="-12" type="curve" smooth="yes"/>
      <point x="416" y="-12"/>
      <point x="467" y="-4"/>
      <point x="523" y="22" type="curve"/>
      <point x="505" y="133" type="line"/>
      <point x="460" y="112"/>
      <point x="423" y="108"/>
      <point x="399" y="108" type="curve" smooth="yes"/>
      <point x="345" y="108"/>
      <point x="324" y="138"/>
      <point x="324" y="200" type="curve" smooth="yes"/>
      <point x="324" y="526" type="line"/>
      <point x="40" y="526" type="line"/>
      <point x="40" y="412" type="line"/>
      <point x="186" y="412" type="line"/>
      <point x="186" y="218" type="line" smooth="yes"/>
      <point x="186" y="73"/>
      <point x="231" y="-12"/>
    </contour>
  </outline>
</glyph>
<glyph name="IJ" format="2">
  <advance width="560"/>
  <unicode hex="0132"/>
  <outline>
    <contour>
      <point x="343" y="-15" type="curve" smooth="yes"/>
      <point x="450" y="-15"/>
      <point x="538" y="34"/>
      <point x="538" y="217" type="curve" smooth="yes"/>
      <point x="538" y="693" type="line"/>
      <point x="399" y="693" type="line"/>
      <point x="399" y="226" type="line" smooth="yes"/>
      <point x="399" y="123"/>
      <point x="371" y="105"/>
      <point x="330" y="105" type="curve" smooth="yes"/>
      <point x="291" y="105"/>
      <point x="270" y="122"/>
      <point x="248" y="142" type="curve"/>
      <point x="194" y="32" type="line"/>
      <point x="248" y="-4"/>
      <point x="290" y="-15"/>
    </contour>
    <contour>
      <point x="27" y="0" type="line"/>
      <point x="165" y="0" type="line"/>
      <point x="165" y="693" type="line"/>
      <point x="27" y="693" type="line"/>
    </contour>
  </outline>
</glyph>
<glyph name="ij" format="2">
  <advance width="500"/>
  <unicode hex="0133"/>
  <outline>
    <contour>
      <point x="259" y="-165" type="curve" smooth="yes"/>
      <point x="373" y="-165"/>
      <point x="426" y="-107"/>
      <point x="426" y="17" type="curve" smooth="yes"/>
      <point x="426" y="470" type="line"/>
      <point x="302" y="470" type="line"/>
      <point x="302" y="13" type="line" smooth="yes"/>
      <point x="302" y="-34"/>
      <point x="288" y="-60"/>
      <point x="246" y="-60" type="curve" smooth="yes"/>
      <point x="224" y="-60"/>
      <point x="211" y="-58"/>
      <point x="193" y="-52" type="curve"/>
      <point x="176" y="-153" type="line"/>
      <point x="204" y="-163"/>
      <point x="242" y="-165"/>
    </contour>
    <contour>
      <point x="73" y="0" type="line"/>
      <point x="196" y="0" type="line"/>
      <point x="196" y="470" type="line"/>
      <point x="73" y="470" type="line"/>
    </contour>
    <contour>
      <point x="134" y="527" type="curve" smooth="yes"/>
      <point x="177" y="527"/>
      <point x="214" y="556"/>
      <point x="214" y="605" type="curve" smooth="yes"/>
      <point x="214" y="655"/>
      <point x="177" y="684"/>
      <point x="134" y="684" type="curve" smooth="yes"/>
      <point x="91" y="684"/>
      <point x="55" y="655"/>
      <point x="55" y="605" type="curve" smooth="yes"/>
      <point x="55" y="556"/>
      <point x="91" y="527"/>
    </contour>
    <contour>
      <point x="363" y="527" type="curve" smooth="yes"/>
      <point x="406" y="527"/>
      <point x="443" y="556"/>
      <point x="443" y="605" type="curve" smooth="yes"/>
      <point x="443" y="655"/>
      <point x="406" y="684"/>
      <point x="363" y="684" type="curve" smooth="yes"/>
      <point x="320" y="684"/>
      <point x="284" y="655"/>
      <point x="284" y="605" type="curve" smooth="yes"/>
      <point x="284" y="556"/>
      <point x="320" y="527"/>
    </contour>
  </outline>
</glyph>
<glyph name="kgreenlandic" format="2">
  <advance width="500"/>
  <unicode hex="0138"/>
  <anchor x="250" y="0" name="bottom"/>
  <anchor x="250" y="520" name="top"/>
  <outline>
    <contour>
      <point x="63" y="0" type="line"/>
      <point x="187" y="0" type="line"/>
      <point x="187" y="222" type="line"/>
      <point x="238" y="174"/>
      <point x="313" y="68"/>
      <point x="346" y="0" type="curve"/>
      <point x="487" y="0" type="line"/>
      <point x="451" y="76"/>
      <point x="353" y="198"/>
      <point x="287" y="263" type="curve"/>
      <point x="341" y="321"/>
      <point x="421" y="408"/>
      <point x="469" y="470" type="curve"/>
      <point x="321" y="470" type="line"/>
      <point x="288" y="415"/>
      <point x="234" y="339"/>
      <point x="187" y="284" type="curve"/>
      <point x="187" y="470" type="line"/>
      <point x="63" y="469" type="line"/>
    </contour>
  </outline>
</glyph>
<glyph name="lacute" format="2">
  <advance width="500"/>
  <unicode hex="013A"/>
  <outline>
    <contour>
      <point x="329" y="-11" type="curve" smooth="yes"/>
      <point x="412" y="-11"/>
      <point x="459" y="15"/>
      <point x="467" y="20" type="curve"/>
      <point x="451" y="119" type="line"/>
      <point x="441" y="115"/>
      <point x="405" y="96"/>
      <point x="356" y="96" type="curve" smooth="yes"/>
      <point x="318" y="96"/>
      <point x="289" y="114"/>
      <point x="289" y="178" type="curve" smooth="yes"/>
      <point x="289" y="645" type="line"/>
      <point x="36" y="645" type="line"/>
      <point x="36" y="543" type="line"/>
      <point x="166" y="543" type="line"/>
      <point x="166" y="187" type="line" smooth="yes"/>
      <point x="166" y="59"/>
      <point x="216" y="-11"/>
    </contour>
    <contour>
      <point x="157" y="677" type="line"/>
      <point x="352" y="739" type="line"/>
      <point x="320" y="829" type="line"/>
      <point x="130" y="739" type="line"/>
    </contour>
  </outline>
</glyph>
<glyph name="Lslash" format="2">
  <advance width="560"/>
  <unicode hex="0141"/>
  <outline>
    <contour>
      <point x="100" y="0" type="line"/>
      <point x="515" y="0" type="line"/>
      <point x="515" y="114" type="line"/>
      <point x="239" y="114" type="line"/>
      <point x="239" y="327" type="line"/>
      <point x="408" y="413" type="line"/>
      <point x="360" y="514" type="line"/>
      <point x="239" y="454" type="line"/>
      <point x="239" y="693" type="line"/>
      <point x="100" y="693" type="line"/>
      <point x="100" y="384" type="line"/>
      <point x="-11" y="328" type="line"/>
      <point x="38" y="227" type="line"/>
      <point x="100" y="258" type="line"/>
    </contour>
  </outline>
</glyph>
<glyph name="lslash" format="2">
  <advance width="560"/>
  <unicode hex="0142"/>
  <outline>
    <contour>
      <point x="368" y="-12" type="curve" smooth="yes"/>
      <point x="461" y="-12"/>
      <point x="514" y="17"/>
      <point x="523" y="22" type="curve"/>
      <point x="505" y="133" type="line"/>
      <point x="494" y="129"/>
      <point x="454" y="108"/>
      <point x="399" y="108" type="curve" smooth="yes"/>
      <point x="356" y="108"/>
      <point x="324" y="128"/>
      <point x="324" y="199" type="curve" smooth="yes"/>
      <point x="324" y="403" type="line"/>
      <point x="440" y="461" type="line"/>
      <point x="395" y="553" type="line"/>
      <point x="324" y="517" type="line"/>
      <point x="324" y="771" type="line"/>
      <point x="40" y="771" type="line"/>
      <point x="40" y="656" type="line"/>
      <point x="186" y="656" type="line"/>
      <point x="186" y="449" type="line"/>
      <point x="80" y="396" type="line"/>
      <point x="124" y="304" type="line"/>
      <point x="186" y="335" type="line"/>
      <point x="186" y="209" type="line" smooth="yes"/>
      <point x="186" y="66"/>
      <point x="242" y="-12"/>
    </contour>
  </outline>
</glyph>
<glyph name="Eng" format="2">
  <advance width="560"/>
  <unicode hex="014A"/>
  <anchor x="280" y="0" name="bottom"/>
  <anchor x="280" y="776" name="top"/>
  <outline>
    <contour>
      <point x="342" y="-187" type="curve" smooth="yes"/>
      <point x="457" y="-187"/>
      <point x="508" y="-120"/>
      <point x="508" y="9" type="curve" smooth="yes"/>
      <point x="508" y="693" type="line"/>
      <point x="384" y="693" type="line"/>
      <point x="384" y="267" type="line"/>
      <point x="336" y="375"/>
      <point x="245" y="562"/>
      <point x="162" y="693" type="curve"/>
      <point x="52" y="693" type="line"/>
      <point x="52" y="0" type="line"/>
      <point x="176" y="0" type="line"/>
      <point x="176" y="460" type="line"/>
      <point x="254" y="318"/>
      <point x="325" y="175"/>
      <point x="384" y="34" type="curve"/>
      <point x="384" y="4" type="line"/>
      <point x="384" y="-43"/>
      <point x="372" y="-69"/>
      <point x="330" y="-69" type="curve" smooth="yes"/>
      <point x="318" y="-69"/>
      <point x="305" y="-67"/>
      <point x="289" y="-60" type="curve"/>
      <point x="269" y="-174" type="line"/>
      <point x="296" y="-185"/>
      <point x="326" y="-187"/>
    </contour>
  </outline>
</glyph>
<glyph name="eng" format="2">
  <advance width="560"/>
  <unicode hex="014B"/>
  <anchor x="280" y="0" name="bottom"/>
  <anchor x="280" y="582" name="top"/>
  <outline>
    <contour>
      <point x="318" y="-185" type="curve" smooth="yes"/>
      <point x="444" y="-185"/>
      <point x="494" y="-125"/>
      <point x="494" y="3" type="curve" smooth="yes"/>
      <point x="494" y="297" type="line" smooth="yes"/>
      <point x="494" y="440"/>
      <point x="448" y="538"/>
      <point x="280" y="538" type="curve" smooth="yes"/>
      <point x="196" y="538"/>
      <point x="120" y="523"/>
      <point x="71" y="510" type="curve"/>
      <point x="71" y="0" type="line"/>
      <point x="208" y="0" type="line"/>
      <point x="208" y="413" type="line"/>
      <point x="231" y="416"/>
      <point x="251" y="418"/>
      <point x="271" y="418" type="curve" smooth="yes"/>
      <point x="339" y="418"/>
      <point x="356" y="377"/>
      <point x="356" y="279" type="curve" smooth="yes"/>
      <point x="356" y="-2" type="line"/>
      <point x="356" y="-49"/>
      <point x="338" y="-73"/>
      <point x="301" y="-73" type="curve" smooth="yes"/>
      <point x="284" y="-73"/>
      <point x="271" y="-71"/>
      <point x="256" y="-66" type="curve"/>
      <point x="239" y="-172" type="line"/>
      <point x="267" y="-184"/>
      <point x="301" y="-185"/>
    </contour>
  </outline>
</glyph>
<glyph name="OE" format="2">
  <advance width="560"/>
  <unicode hex="0152"/>
  <anchor x="280" y="0" name="bottom"/>
  <anchor x="280" y="776" name="top"/>
  <outline>
    <contour>
      <point x="251" y="-6" type="curve" smooth="yes"/>
      <point x="271" y="-6"/>
      <point x="290" y="-4"/>
      <point x="308" y="0" type="curve"/>
      <point x="550" y="0" type="line"/>
      <point x="550" y="114" type="line"/>
      <point x="411" y="114" type="line"/>
      <point x="411" y="310" type="line"/>
      <point x="510" y="310" type="line"/>
      <point x="510" y="424" type="line"/>
      <point x="411" y="424" type="line"/>
      <point x="411" y="579" type="line"/>
      <point x="535" y="579" type="line"/>
      <point x="535" y="693" type="line"/>
      <point x="314" y="693" type="line"/>
      <point x="293" y="697"/>
      <point x="272" y="700"/>
      <point x="250" y="700" type="curve" smooth="yes"/>
      <point x="104" y="700"/>
      <point x="20" y="594"/>
      <point x="20" y="347" type="curve" smooth="yes"/>
      <point x="20" y="100"/>
      <point x="100" y="-6"/>
    </contour>
    <contour>
      <point x="250" y="114" type="curve" smooth="yes"/>
      <point x="165" y="114"/>
      <point x="150" y="203"/>
      <point x="150" y="347" type="curve" smooth="yes"/>
      <point x="150" y="491"/>
      <point x="166" y="580"/>
      <point x="250" y="580" type="curve" smooth="yes"/>
      <point x="263" y="580"/>
      <point x="276" y="578"/>
      <point x="286" y="575" type="curve"/>
      <point x="286" y="120" type="line"/>
      <point x="276" y="116"/>
      <point x="263" y="114"/>
    </contour>
  </outline>
</glyph>
<glyph name="oe" format="2">
  <advance width="560"/>
  <unicode hex="0153"/>
  <anchor x="280" y="0" name="bottom"/>
  <anchor x="280" y="582" name="top"/>
  <outline>
    <contour>
      <point x="185" y="-12" type="curve" smooth="yes"/>
      <point x="237" y="-12"/>
      <point x="272" y="19"/>
      <point x="295" y="58" type="curve"/>
      <point x="320" y="19"/>
      <point x="360" y="-12"/>
      <point x="420" y="-12" type="curve" smooth="yes"/>
      <point x="465" y="-12"/>
      <point x="496" y="-4"/>
      <point x="530" y="13" type="curve"/>
      <point x="510" y="122" type="line"/>
      <point x="488" y="111"/>
      <point x="461" y="103"/>
      <point x="435" y="103" type="curve" smooth="yes"/>
      <point x="388" y="103"/>
      <point x="347" y="136"/>
      <point x="344" y="218" type="curve"/>
      <point x="544" y="218" type="line"/>
      <point x="545" y="231"/>
      <point x="547" y="264"/>
      <point x="547" y="282" type="curve" smooth="yes"/>
      <point x="547" y="473"/>
      <point x="483" y="540"/>
      <point x="396" y="540" type="curve" smooth="yes"/>
      <point x="357" y="540"/>
      <point x="323" y="513"/>
      <point x="295" y="467" type="curve"/>
      <point x="269" y="514"/>
      <point x="226" y="540"/>
      <point x="185" y="540" type="curve" smooth="yes"/>
      <point x="87" y="540"/>
      <point x="25" y="451"/>
      <point x="25" y="264" type="curve" smooth="yes"/>
      <point x="25" y="85"/>
      <point x="76" y="-12"/>
    </contour>
    <contour>
      <point x="185" y="103" type="curve" smooth="yes"/>
      <point x="155" y="103"/>
      <point x="130" y="144"/>
      <point x="130" y="264" type="curve" smooth="yes"/>
      <point x="130" y="385"/>
      <point x="155" y="426"/>
      <point x="184" y="426" type="curve" smooth="yes"/>
      <point x="214" y="426"/>
      <point x="239" y="384"/>
      <point x="239" y="264" type="curve" smooth="yes"/>
      <point x="239" y="143"/>
      <point x="215" y="103"/>
    </contour>
    <contour>
      <point x="345" y="314" type="line"/>
      <point x="345" y="367"/>
      <point x="358" y="430"/>
      <point x="396" y="430" type="curve" smooth="yes"/>
      <point x="435" y="430"/>
      <point x="444" y="372"/>
      <point x="444" y="314" type="curve"/>
    </contour>
  </outline>
</glyph>
<glyph name="Scedilla" format="2">
  <advance width="560"/>
  <unicode hex="015E"/>
  <outline>
    <contour>
      <point x="223" y="-190" type="curve" smooth="yes"/>
      <point x="290" y="-190"/>
      <point x="357" y="-169"/>
      <point x="357" y="-102" type="curve" smooth="yes"/>
      <point x="357" y="-75"/>
      <point x="340" y="-41"/>
      <point x="291" y="-27" type="curve"/>
      <point x="292" y="-22"/>
      <point x="295" y="-18"/>
      <point x="297" y="-13" type="curve"/>
      <point x="442" y="-3"/>
      <point x="515" y="69"/>
      <point x="515" y="189" type="curve" smooth="yes"/>
      <point x="515" y="342"/>
      <point x="402" y="382"/>
      <point x="315" y="414" type="curve" smooth="yes"/>
      <point x="258" y="435"/>
      <point x="193" y="461"/>
      <point x="193" y="514" type="curve" smooth="yes"/>
      <point x="193" y="566"/>
      <point x="228" y="594"/>
      <point x="302" y="594" type="curve" smooth="yes"/>
      <point x="362" y="594"/>
      <point x="407" y="577"/>
      <point x="444" y="556" type="curve"/>
      <point x="484" y="662" type="line"/>
      <point x="441" y="685"/>
      <point x="376" y="709"/>
      <point x="292" y="709" type="curve" smooth="yes"/>
      <point x="146" y="709"/>
      <point x="55" y="631"/>
      <point x="55" y="502" type="curve" smooth="yes"/>
      <point x="55" y="371"/>
      <point x="161" y="333"/>
      <point x="244" y="301" type="curve" smooth="yes"/>
      <point x="306" y="277"/>
      <point x="377" y="249"/>
      <point x="377" y="190" type="curve" smooth="yes"/>
      <point x="377" y="144"/>
      <point x="353" y="101"/>
      <point x="260" y="101" type="curve" smooth="yes"/>
      <point x="180" y="101"/>
      <point x="125" y="127"/>
      <point x="85" y="150" type="curve"/>
      <point x="45" y="38" type="line"/>
      <point x="74" y="20"/>
      <point x="124" y="-4"/>
      <point x="207" y="-12" type="curve"/>
      <point x="203" y="-24"/>
      <point x="197" y="-36"/>
      <point x="194" y="-48" type="curve"/>
      <point x="216" y="-55" type="line" smooth="yes"/>
      <point x="244" y="-64"/>
      <point x="256" y="-75"/>
      <point x="256" y="-90" type="curve" smooth="yes"/>
      <point x="256" y="-109"/>
      <point x="240" y="-118"/>
      <point x="211" y="-118" type="curve" smooth="yes"/>
      <point x="187" y="-118"/>
      <point x="157" y="-110"/>
      <point x="148" y="-108" type="curve"/>
      <point x="133" y="-178" type="line"/>
      <point x="158" y="-186"/>
      <point x="190" y="-190"/>
    </contour>
  </outline>
</glyph>
